<svg width="24" height="24" viewBox="0 0 24 24" fill="none" xmlns="http://www.w3.org/2000/svg">
<path d="M14.533 9.25455C13.9438 8.6654 13.2203 8.23433 12.4272 8L11.0585 9.38323C11.7306 9.39205 12.3851 9.60286 12.9399 9.9892C13.4948 10.3755 13.9252 10.9202 14.1771 11.5548C14.4291 12.1894 14.4913 12.8856 14.3561 13.5562C14.2208 14.2267 13.8941 14.8415 13.4169 15.3236L10.4373 18.3581C9.79506 19.0122 8.92398 19.3797 8.0157 19.3797C7.10743 19.3797 6.23635 19.0122 5.5941 18.3581C4.95185 17.704 4.59104 16.8169 4.59104 15.8919C4.59104 14.9669 4.95185 14.0798 5.5941 13.4257L6.64697 12.3534C6.51008 11.6021 6.51008 10.8315 6.64697 10.0802L4.46752 12.2891C3.52788 13.246 3 14.5439 3 15.8973C3 17.2506 3.52788 18.5485 4.46752 19.5054C5.40716 20.4624 6.68159 21 8.01044 21C9.33929 21 10.6137 20.4624 11.5534 19.5054L14.533 16.4709C15.4723 15.5138 16 14.216 16 12.8627C16 11.5095 15.4723 10.2117 14.533 9.25455Z" fill="black"/>
<path d="M12.9535 14.6168C12.2825 14.608 11.6289 14.3971 11.0749 14.0108C10.5209 13.6245 10.0911 13.0798 9.83956 12.4452C9.58799 11.8106 9.52582 11.1144 9.66087 10.4438C9.79591 9.77334 10.1221 9.15846 10.5986 8.67641L13.5738 5.64189C14.2151 4.9878 15.0849 4.62034 15.9918 4.62034C16.8987 4.62034 17.7685 4.9878 18.4098 5.64189C19.0511 6.29597 19.4113 7.18309 19.4113 8.1081C19.4113 9.03311 19.0511 9.92024 18.4098 10.5743L17.2744 11.7324C17.4111 12.4837 17.4111 13.2543 17.2744 14.0056L19.5347 11.7109C20.4729 10.754 21 9.45607 21 8.10274C21 6.74941 20.4729 5.45151 19.5347 4.49456C18.5964 3.53761 17.3239 3 15.997 3C14.6702 3 13.3977 3.53761 12.4594 4.49456L9.48423 7.5398C8.86606 8.15826 8.4177 8.93125 8.1839 9.78163C7.9501 10.632 7.93904 11.5301 8.15181 12.3862C8.36457 13.2423 8.79374 14.0265 9.39648 14.6607C9.99922 15.2948 10.7545 15.7566 11.5868 16L12.9535 14.6168Z" fill="black"/>
</svg>
