<svg width="24" height="24" viewBox="0 0 24 24" fill="none" xmlns="http://www.w3.org/2000/svg">
<path fill-rule="evenodd" clip-rule="evenodd" d="M18.354 13.6798L18.3367 13.6605C17.9298 13.2055 17.7014 12.6155 17.7014 12C17.7014 11.3845 17.9298 10.7945 18.3367 10.3395L18.3429 10.3325L19.1687 9.41996L17.8468 7.17343L16.5955 7.42186L16.5914 7.42268C15.998 7.54211 15.3794 7.44523 14.8501 7.14682C14.3189 6.84735 13.9106 6.36298 13.7103 5.77906L13.7086 5.77406L13.3106 4.60122H10.5822L10.222 5.75753L10.2146 5.77906C10.0143 6.36298 9.60601 6.84735 9.07482 7.14682C8.54696 7.44441 7.93026 7.54158 7.33837 7.42366L6.09118 7.18244L4.76621 9.4341L5.57907 10.3395C5.98599 10.7945 6.21431 11.3845 6.21431 12C6.21431 12.6155 5.98599 13.2055 5.57907 13.6605L5.57701 13.6628L4.76621 14.5659L6.09648 16.8266L7.34776 16.5781L7.35189 16.5773C7.94525 16.4579 8.56385 16.5548 9.09314 16.8532C9.62434 17.1526 10.0327 17.637 10.233 18.2209L10.2347 18.2259L10.6327 19.3988H13.3747L13.7744 18.2209C13.9747 17.637 14.383 17.1526 14.9142 16.8532C15.4435 16.5548 16.0621 16.4579 16.6554 16.5773L16.6596 16.5781L17.9109 16.8266L19.2253 14.5928L18.354 13.6798ZM20.766 13.8897C20.8952 14.0313 20.9755 14.2095 20.9952 14.3986C21.015 14.5878 20.9732 14.7782 20.876 14.9426L19.0438 18.0562C18.9475 18.2204 18.8009 18.3505 18.6249 18.4281C18.4489 18.5057 18.2525 18.5267 18.0636 18.4881L16.3413 18.1462C16.1222 18.1017 15.8941 18.1375 15.7 18.247C15.5059 18.3564 15.3593 18.5318 15.2878 18.7401L14.729 20.3869C14.6676 20.5656 14.5505 20.7208 14.3943 20.8306C14.2382 20.9404 14.0508 20.9993 13.8588 20.9988H10.1944C9.99465 21.009 9.79696 20.9547 9.63154 20.8443C9.46613 20.7338 9.34207 20.5731 9.27833 20.3869L8.71952 18.7401C8.64807 18.5318 8.50147 18.3564 8.30739 18.247C8.11331 18.1375 7.88517 18.1017 7.66603 18.1462L5.94379 18.4881C5.75492 18.5267 5.55847 18.5057 5.38246 18.4281C5.20645 18.3505 5.05986 18.2204 4.96358 18.0562L3.13141 14.9426C3.03171 14.78 2.98688 14.5907 3.00333 14.4016C3.01978 14.2125 3.09668 14.0333 3.22302 13.8897L4.38645 12.5939C4.53331 12.4297 4.61431 12.2186 4.61431 12C4.61431 11.7814 4.53331 11.5703 4.38645 11.4061L3.22302 10.1103C3.09668 9.96667 3.01978 9.78753 3.00333 9.59843C2.98688 9.40933 3.03171 9.21996 3.13141 9.0574L4.96358 5.94382C5.05583 5.79105 5.19205 5.66851 5.35507 5.59165C5.51809 5.51478 5.70062 5.48703 5.87966 5.51188L7.64771 5.85384C7.86685 5.89832 8.09499 5.86246 8.28907 5.75305C8.48315 5.64363 8.62975 5.46822 8.7012 5.25992L9.21421 3.61314C9.27795 3.42688 9.402 3.26624 9.56742 3.15575C9.73284 3.04525 9.93053 2.99098 10.1303 3.00122H13.7946C13.9867 3.00074 14.174 3.05955 14.3302 3.16936C14.4864 3.27916 14.6034 3.43441 14.6649 3.61314L15.2237 5.25992C15.2952 5.46822 15.4418 5.64363 15.6359 5.75305C15.8299 5.86246 16.0581 5.89832 16.2772 5.85384L17.9995 5.51188C18.1883 5.47333 18.3848 5.49433 18.5608 5.57189C18.7368 5.64945 18.8834 5.77961 18.9797 5.94382L20.8118 9.0574C20.9091 9.2218 20.9508 9.41223 20.9311 9.60138C20.9113 9.79053 20.8311 9.96868 20.7019 10.1103L19.5293 11.4061C19.3824 11.5703 19.3014 11.7814 19.3014 12C19.3014 12.2186 19.3824 12.4297 19.5293 12.5939L20.766 13.8897Z" fill="black"/>
<path fill-rule="evenodd" clip-rule="evenodd" d="M12 10.3C11.0611 10.3 10.3 11.0611 10.3 12C10.3 12.9389 11.0611 13.7 12 13.7C12.9389 13.7 13.7 12.9389 13.7 12C13.7 11.0611 12.9389 10.3 12 10.3ZM8.7 12C8.7 10.1775 10.1775 8.7 12 8.7C13.8225 8.7 15.3 10.1775 15.3 12C15.3 13.8225 13.8225 15.3 12 15.3C10.1775 15.3 8.7 13.8225 8.7 12Z" fill="black"/>
</svg>
