<svg width="13" height="13" viewBox="0 0 13 13" fill="none" xmlns="http://www.w3.org/2000/svg">
<path fill-rule="evenodd" clip-rule="evenodd" d="M6.33333 11.5712C9.22611 11.5712 11.5712 9.22611 11.5712 6.33333C11.5712 3.44056 9.22611 1.0955 6.33333 1.0955C3.44056 1.0955 1.0955 3.44056 1.0955 6.33333C1.0955 9.22611 3.44056 11.5712 6.33333 11.5712ZM6.33333 12.6667C9.83114 12.6667 12.6667 9.83114 12.6667 6.33333C12.6667 2.83553 9.83114 0 6.33333 0C2.83553 0 0 2.83553 0 6.33333C0 9.83114 2.83553 12.6667 6.33333 12.6667Z" fill="#929292"/>
<path d="M7.84658 3.67067C7.84658 3.25035 7.50833 2.90991 7.09073 2.90991C6.67312 2.90991 6.33488 3.25035 6.33488 3.67067C6.33488 4.09099 6.67312 4.43143 7.09073 4.43143C7.50833 4.43143 7.84658 4.09099 7.84658 3.67067Z" fill="#929292"/>
<path d="M7.64181 9.43961C7.67865 9.42498 7.717 9.40974 7.757 9.3939L7.8564 8.98537C7.52004 9.14513 6.78045 9.30337 6.78045 8.66319C6.78045 8.49696 6.85188 8.15348 6.89798 7.99181C6.97996 7.6997 7.04595 7.4663 7.09927 7.27773C7.31436 6.517 7.32319 6.48579 7.34318 6.27211C7.3564 6.12681 7.36321 6.02563 7.36321 5.96819C7.36321 5.35426 6.89042 5.02903 6.24417 5.02903C5.81447 5.02903 5.31108 5.22873 4.91275 5.39191L4.81335 5.80006C5.08924 5.6966 5.56353 5.57298 5.76723 5.76849C5.97093 5.96401 5.82543 6.52126 5.75363 6.794L5.38175 8.11886C5.25817 8.63618 5.19166 9.14132 5.58659 9.49127C5.78651 9.66815 6.06693 9.75678 6.42747 9.75678C6.8432 9.75678 7.04539 9.67648 7.64181 9.43961Z" fill="#929292"/>
</svg>
