<svg width="16" height="10" viewBox="0 0 16 10" fill="none" xmlns="http://www.w3.org/2000/svg">
<path fill-rule="evenodd" clip-rule="evenodd" d="M7.99999 0C3.80998 0 1.81449 2.43836 0.991852 3.9095C0.609812 4.5927 0.609812 5.4073 0.991852 6.0905C1.81449 7.56164 3.80998 10 7.99999 10C12.19 10 14.1855 7.56164 15.0081 6.0905C15.3902 5.4073 15.3902 4.5927 15.0081 3.9095C14.1855 2.43836 12.19 0 7.99999 0ZM11.25 5C11.25 6.79493 9.79493 8.25 8.00001 8.25C6.20508 8.25 4.75001 6.79493 4.75001 5C4.75001 3.20507 6.20508 1.75 8.00001 1.75C9.79493 1.75 11.25 3.20507 11.25 5ZM8 6.75C8.9665 6.75 9.75 5.9665 9.75 5C9.75 4.0335 8.9665 3.25 8 3.25C7.0335 3.25 6.25 4.0335 6.25 5C6.25 5.9665 7.0335 6.75 8 6.75Z" fill="#6C6C6C"/>
</svg>
