<svg width="32" height="32" viewBox="0 0 32 32" fill="none" xmlns="http://www.w3.org/2000/svg">
<path d="M0 16C0 7.16344 7.16344 0 16 0V0C24.8366 0 32 7.16344 32 16V16C32 24.8366 24.8366 32 16 32V32C7.16344 32 0 24.8366 0 16V16Z" fill="#F9F9F9"/>
<path d="M14.4808 9.6C15.4908 8.61025 16.8742 8 18.4 8C21.4928 8 24 10.5072 24 13.6C24 15.1259 23.3897 16.5092 22.4 17.5192M19.2 18.4C19.2 21.4928 16.6928 24 13.6 24C10.5072 24 8 21.4928 8 18.4C8 15.3072 10.5072 12.8 13.6 12.8C16.6928 12.8 19.2 15.3072 19.2 18.4Z" stroke="black" stroke-width="1.6" stroke-linecap="round" stroke-linejoin="round"/>
</svg>
