<svg width="32" height="32" viewBox="0 0 32 32" fill="none" xmlns="http://www.w3.org/2000/svg">
<path d="M0 16C0 7.16344 7.16344 0 16 0V0C24.8366 0 32 7.16344 32 16V16C32 24.8366 24.8366 32 16 32V32C7.16344 32 0 24.8366 0 16V16Z" fill="#F9F9F9"/>
<path d="M10.5 19V13H11.7L12.5 15.1724C12.6 15.5862 12.9 16.3103 13.1 16.7241C13.1 16.2069 13 15.069 13 13.931V13H14.1V18.8966H12.9L12.1 16.931C11.9 16.5172 11.7 15.6897 11.6 15.2759C11.6 15.7931 11.7 16.7241 11.7 17.9655V19H10.5Z" fill="black"/>
<path d="M15.1001 13H17.7001V14.1379H16.4001V15.3793H17.6001V16.5172H16.4001V18.8966H15.1001V13Z" fill="black"/>
<path d="M19.2002 14.3448H18.2002V13H21.5002V14.2414H20.5002V18.8966H19.2002V14.3448Z" fill="black"/>
<path d="M15.4 7.27017C15.7713 7.05581 16.2287 7.05581 16.6 7.27017L23.2603 11.1155C23.6315 11.3298 23.8603 11.726 23.8603 12.1547V19.8453C23.8603 20.274 23.6315 20.6702 23.2603 20.8845L16.6 24.7298C16.2287 24.9442 15.7713 24.9442 15.4 24.7298L8.73975 20.8845C8.36846 20.6702 8.13975 20.274 8.13975 19.8453V12.1547C8.13975 11.726 8.36846 11.3298 8.73975 11.1155L15.4 7.27017Z" stroke="black" stroke-width="1.6"/>
</svg>
