<svg width="20" height="20" viewBox="0 0 20 20" fill="none" xmlns="http://www.w3.org/2000/svg">
<path fill-rule="evenodd" clip-rule="evenodd" d="M11.9167 4.58325C11.7786 4.58325 11.6667 4.69518 11.6667 4.83325V5.66658C11.6667 5.80466 11.7786 5.91659 11.9167 5.91659H13.3905L8.93228 10.2399C8.83208 10.337 8.83085 10.4974 8.92954 10.5961L9.51875 11.1853C9.61533 11.2819 9.77152 11.2831 9.86957 11.188L14.3334 6.85939V8.33325C14.3334 8.47132 14.4453 8.58325 14.5834 8.58325H15.4167C15.5548 8.58325 15.6667 8.47132 15.6667 8.33325V4.58325H11.9167ZM8.50003 6.08309C8.6381 6.08309 8.75003 6.19502 8.75003 6.33309V7.16642C8.75003 7.30449 8.6381 7.41642 8.50003 7.41642H5.99449C5.8104 7.41642 5.66116 7.56566 5.66116 7.74976L5.66115 14.1666C5.66115 14.3507 5.81039 14.4999 5.99449 14.4999L12.5 14.4999C12.6841 14.4999 12.8334 14.3507 12.8334 14.1666V11.7498C12.8334 11.6117 12.9453 11.4998 13.0834 11.4998H13.9167C14.0548 11.4998 14.1667 11.6117 14.1667 11.7498V14.1666C14.1667 15.0871 13.4205 15.8333 12.5 15.8333L5.99449 15.8333C5.07401 15.8333 4.32782 15.0871 4.32782 14.1666L4.32782 7.74976C4.32782 6.82928 5.07402 6.08309 5.99449 6.08309H8.50003Z" fill="#004CFF"/>
</svg>
