<svg width="48" height="48" viewBox="0 0 48 48" fill="none" xmlns="http://www.w3.org/2000/svg">
<circle opacity="0.15" cx="24" cy="24" r="24" fill="#F16514"/>
<path fill-rule="evenodd" clip-rule="evenodd" d="M25.1136 27.5C25.3291 27.5 25.5059 27.3292 25.5133 27.1138L25.9857 13.4138C25.9935 13.1876 25.8123 13 25.586 13H22.414C22.1877 13 22.0065 13.1876 22.0143 13.4138L22.4867 27.1138C22.4941 27.3292 22.6709 27.5 22.8864 27.5H25.1136Z" fill="#F16514"/>
<path d="M21.5 33C21.5 34.3807 22.6193 35.5 24 35.5C25.3807 35.5 26.5 34.3807 26.5 33C26.5 31.6193 25.3807 30.5 24 30.5C22.6193 30.5 21.5 31.6193 21.5 33Z" fill="#F16514"/>
</svg>
