<svg width="32" height="32" viewBox="0 0 32 32" fill="none" xmlns="http://www.w3.org/2000/svg">
<path fill-rule="evenodd" clip-rule="evenodd" d="M12.3238 5.5C11.7715 5.5 11.3238 5.94772 11.3238 6.5C11.3238 7.05228 11.7715 7.5 12.3238 7.5H15.6762L17.32 10.9507L9.7565 14.5093L8.57566 12H10C10.5523 12 11 11.5523 11 11C11 10.4477 10.5523 9.99998 10 9.99998H6.99982H6.99882H5C4.44772 9.99998 4 10.4477 4 11C4 11.5523 4.44772 12 5 12H6.36528L10.0952 19.926C10.3303 20.4257 10.9261 20.6402 11.4258 20.405C11.9255 20.1699 12.14 19.5741 11.9048 19.0744L10.6081 16.3189L18.1801 12.7563L21.5875 19.9091C21.8134 20.413 22.4051 20.6384 22.909 20.4125C23.413 20.1866 23.6384 19.5949 23.4125 19.0909L17.3687 6.38642C17.127 5.84708 16.591 5.5 16 5.5H12.3238Z" fill="#F16514"/>
<path fill-rule="evenodd" clip-rule="evenodd" d="M6.70571 15.7999C4.54915 16.5438 3 18.5913 3 21.0006C3 24.0382 5.46243 26.5006 8.5 26.5006C11.1962 26.5006 13.4393 24.5605 13.9094 22.0002H11.8552C11.4251 23.4461 10.0857 24.5006 8.5 24.5006C6.567 24.5006 5 22.9336 5 21.0006C5 19.3886 6.08973 18.0312 7.57269 17.6248L6.70571 15.7999Z" fill="#F16514"/>
<path fill-rule="evenodd" clip-rule="evenodd" d="M17.9301 15.3771C16.7384 16.5554 16 18.1912 16 19.9994C16 23.5893 18.9101 26.4994 22.5 26.4994C26.0899 26.4994 29 23.5893 29 19.9994C29 16.4309 26.1242 13.534 22.5637 13.4998L23.5752 15.6287C25.5413 16.1107 27 17.8847 27 19.9994C27 22.4847 24.9853 24.4994 22.5 24.4994C20.0147 24.4994 18 22.4847 18 19.9994C18 19.0071 18.3212 18.0897 18.8654 17.3457L17.9301 15.3771Z" fill="#F16514"/>
</svg>
