<svg width="310" height="48" viewBox="0 0 310 48" fill="none" xmlns="http://www.w3.org/2000/svg">
<path d="M278.5 24C278.5 25.4688 277.733 26.9641 276.137 28.4736C274.541 29.9831 272.16 31.4629 269.047 32.8872C262.825 35.7345 253.79 38.3112 242.586 40.4797C220.186 44.8151 189.22 47.5 155 47.5C120.78 47.5 89.8136 44.8151 67.4138 40.4797C56.2098 38.3112 47.1747 35.7345 40.9526 32.8872C37.84 31.4629 35.4587 29.9831 33.8628 28.4736C32.2669 26.9641 31.5 25.4688 31.5 24C31.5 22.5312 32.2669 21.0359 33.8628 19.5264C35.4587 18.0169 37.84 16.5371 40.9526 15.1128C47.1747 12.2655 56.2098 9.68885 67.4138 7.52033C89.8136 3.18488 120.78 0.5 155 0.5C189.22 0.5 220.186 3.18488 242.586 7.52033C253.79 9.68885 262.825 12.2655 269.047 15.1128C272.16 16.5371 274.541 18.0169 276.137 19.5264C277.733 21.0359 278.5 22.5312 278.5 24Z" stroke="url(#paint0_linear_233_14770)"/>
<path d="M272.5 21.5C272.5 22.7844 271.787 24.1086 270.27 25.4596C268.755 26.8088 266.491 28.1336 263.529 29.4096C257.609 31.9599 249.011 34.2682 238.349 36.2109C217.033 40.0948 187.564 42.5 155 42.5C122.436 42.5 92.9672 40.0948 71.651 36.2109C60.9888 34.2682 52.3912 31.9599 46.4708 29.4096C43.5088 28.1336 41.2451 26.8088 39.7298 25.4596C38.2126 24.1086 37.5 22.7844 37.5 21.5C37.5 20.2156 38.2126 18.8914 39.7298 17.5404C41.2451 16.1912 43.5088 14.8664 46.4708 13.5904C52.3912 11.0401 60.9888 8.73179 71.651 6.78911C92.9672 2.90523 122.436 0.5 155 0.5C187.564 0.5 217.033 2.90523 238.349 6.78911C249.011 8.73179 257.609 11.0401 263.529 13.5904C266.491 14.8664 268.755 16.1912 270.27 17.5404C271.787 18.8914 272.5 20.2156 272.5 21.5Z" stroke="url(#paint1_linear_233_14770)"/>
<defs>
<linearGradient id="paint0_linear_233_14770" x1="155.305" y1="24.2243" x2="155.305" y2="3.81308" gradientUnits="userSpaceOnUse">
<stop stop-color="white"/>
<stop offset="1" stop-color="white" stop-opacity="0"/>
</linearGradient>
<linearGradient id="paint1_linear_233_14770" x1="155.29" y1="21.7009" x2="155.29" y2="3.41589" gradientUnits="userSpaceOnUse">
<stop stop-color="white"/>
<stop offset="1" stop-color="white" stop-opacity="0"/>
</linearGradient>
</defs>
</svg>
