<svg width="24" height="24" viewBox="0 0 24 24" fill="none" xmlns="http://www.w3.org/2000/svg">
<path d="M13.9688 15.4919C12.513 16.3156 10.6214 16.1231 9.3685 15.0211C8.10089 13.9033 7.66064 12.101 8.27301 10.5346C8.86998 9.01894 10.3692 8 12.0029 8H12.0824C12.8944 8.01739 13.6764 8.27829 14.3486 8.7591C15.0155 9.24475 15.5103 9.90444 15.7815 10.6689C16.4133 12.4783 15.6341 14.5515 13.9687 15.4922L13.9688 15.4919ZM14.5103 11.1148C14.3339 10.6174 13.9938 10.1662 13.56 9.84938C13.1139 9.53148 12.5933 9.35686 12.0682 9.34566H12.003C10.9187 9.34566 9.92372 10.0212 9.52867 11.0254C9.12137 12.0666 9.4159 13.2663 10.2601 14.0112C10.7449 14.4375 11.3741 14.6576 12.0066 14.6576C12.4547 14.6576 12.904 14.5471 13.3044 14.3206L13.3049 14.3201C14.4116 13.6953 14.9293 12.3163 14.5102 11.1148L14.5103 11.1148Z" fill="white"/>
<path d="M21.082 14.3273L20.2321 14.3616C20.0511 14.9925 19.7997 15.6008 19.4864 16.2161L20.0643 16.7946C20.2335 16.963 20.3314 17.1978 20.3314 17.4391C20.3314 17.6806 20.2341 17.9158 20.0668 18.0818L18.0701 20.0805C17.697 20.4524 17.1546 20.453 16.7784 20.0793L16.1595 19.502C15.5997 19.817 14.992 20.0699 14.3219 20.2832L14.3217 21.1044C14.3217 21.6049 13.9118 22.0117 13.4068 22.0117H10.5845C10.084 22.0117 9.67713 21.6049 9.67713 21.1044L9.64341 20.2527C9.01251 20.0711 8.40479 19.8196 7.79339 19.4983L7.22483 20.0674C6.89089 20.42 6.24943 20.42 5.91507 20.0674L3.94316 18.0937C3.76401 17.9239 3.66245 17.6881 3.66245 17.4399C3.66245 17.1947 3.76096 16.9625 3.93585 16.7933L4.5068 16.1705C4.19237 15.6019 3.9409 14.9936 3.72988 14.3278H2.90929C2.40879 14.3278 2.00195 13.9179 2.00195 13.4137V10.5877C2.00195 10.0872 2.4088 9.68033 2.90929 9.68033L3.75854 9.64905C3.94013 9.00941 4.1922 8.39863 4.51231 7.79149L3.93445 7.21238C3.75915 7.03891 3.66307 6.80857 3.66307 6.56462C3.66307 6.32251 3.75793 6.09358 3.93262 5.91807L5.88706 3.96566C6.05809 3.7666 6.3063 3.65183 6.56913 3.65122H6.57096C6.83299 3.65122 7.0814 3.76537 7.21424 3.92137L7.8376 4.50413C8.43294 4.17405 9.04372 3.92075 9.67889 3.71785V2.89663C9.67889 2.39614 10.0857 1.98929 10.5862 1.98929H13.4086C13.9133 1.98929 14.3235 2.39615 14.3235 2.89663L14.3484 3.75279C14.9649 3.9226 15.5753 4.1765 16.2005 4.5021L16.7808 3.92117L16.8269 3.87871C17.1775 3.57992 17.6837 3.58175 18.0743 3.92117L20.1116 5.96353C20.4104 6.31412 20.4092 6.82032 20.0697 7.21032L19.4858 7.83311C19.8029 8.39839 20.0549 9.00938 20.2721 9.6795H21.0858C21.5899 9.6795 21.9998 10.0863 21.9998 10.5868V13.4129C21.9955 13.9172 21.5854 14.3271 21.0819 14.3271L21.082 14.3273ZM20.408 11.2678H20.2683C19.5569 11.2678 18.9155 10.7848 18.7047 10.0816C18.558 9.56245 18.3533 9.06702 18.0945 8.60657C17.7388 7.96391 17.8467 7.18512 18.3622 6.66981L18.4676 6.565L17.425 5.52034L17.3283 5.61702C16.8297 6.13052 16.0322 6.24549 15.3796 5.89043C14.9053 5.62393 14.4162 5.41999 13.9108 5.28027C13.2169 5.07694 12.7321 4.43466 12.7321 3.71848V3.57751H11.2639V3.71848C11.2639 4.4304 10.7809 5.07185 10.0728 5.28411C9.58433 5.41899 9.09072 5.62353 8.60589 5.89308C7.99126 6.23432 7.16332 6.12199 6.66829 5.62536L6.56917 5.52543L5.52961 6.56562L5.63381 6.66982C6.14608 7.1827 6.25088 7.96085 5.89218 8.61043C5.63625 9.06664 5.4317 9.56206 5.28504 10.0792C5.08903 10.7794 4.449 11.2678 3.72751 11.2678H3.58776V12.7393H3.72751C4.45264 12.7393 5.0929 13.2298 5.28301 13.9231C5.43149 14.4398 5.63685 14.9371 5.88708 15.3888C6.24722 16.0128 6.14607 16.8115 5.63379 17.3382L5.53264 17.4393L6.56773 18.4759L6.67498 18.368C7.18908 17.8681 7.9853 17.766 8.60441 18.1153C9.06793 18.3725 9.56478 18.5782 10.0752 18.7249C10.7747 18.9215 11.2627 19.5618 11.2627 20.2831V20.424H12.7308V20.2831C12.7308 19.5579 13.2207 18.9171 13.914 18.7262C14.4326 18.5771 14.9255 18.3723 15.3773 18.1184C16.0106 17.7597 16.8093 17.8657 17.3197 18.3755L17.4227 18.4791L18.4623 17.439L18.3625 17.3388C17.8539 16.8302 17.7442 16.0334 18.0942 15.4012C18.3514 14.9363 18.5565 14.439 18.7064 13.9192C18.9097 13.2248 19.552 12.7399 20.2676 12.7399H20.4073V11.2679L20.408 11.2678Z" fill="white"/>
</svg>
