<svg width="41" height="48" viewBox="0 0 41 48" fill="none" xmlns="http://www.w3.org/2000/svg"><path d="M19.4889 47.6163L19.4926 47.6181L20.3135 48L21.1408 47.6217L21.1498 47.6175L21.1809 47.6031L21.2939 47.5503C21.3911 47.5046 21.5313 47.4379 21.7095 47.3514C22.0657 47.1784 22.5742 46.9258 23.194 46.6025C24.4318 45.957 26.1235 45.0245 27.9378 43.8758C31.4713 41.6388 35.8274 38.3646 37.9202 34.5875C38.7416 33.105 39.2533 30.8946 39.6063 28.6404C39.9706 26.3139 40.2026 23.6738 40.3512 21.1616C40.6485 16.1327 40.6192 11.4766 40.6102 10.5821C40.6008 9.64983 40.0226 8.90769 39.2639 8.59066C38.5171 8.27862 34.928 6.7729 31.077 5.05466C27.1608 3.30727 23.1781 1.42872 21.5146 0.353946C20.7861 -0.116693 19.8609 -0.118151 19.1309 0.350602C17.4524 1.42838 13.4622 3.30977 9.54788 5.05742C5.69728 6.77662 2.11336 8.28251 1.37355 8.59214C0.623586 8.90601 0.0506039 9.63438 0.0295659 10.5544C0.00923733 11.4434 -0.0782186 16.1052 0.193543 21.1437C0.32929 23.6605 0.556563 26.3099 0.935653 28.6473C1.30253 30.9095 1.84966 33.1468 2.75741 34.6504C5.0277 38.4108 9.33759 41.6648 12.8375 43.9008C14.6264 45.0436 16.2814 45.9685 17.4893 46.6079C18.0942 46.9281 18.5893 47.178 18.9358 47.349C19.1091 47.4346 19.2454 47.5005 19.3399 47.5457L19.4498 47.5979L19.4801 47.6122L19.4889 47.6163Z" fill="#E84256"/><g clipPath="url(#clip0_5821_8813)"><path fillRule="evenodd" clipRule="evenodd" d="M20.3068 12.4615C18.3657 12.4615 16.8811 14.1916 17.1758 16.1102L19.2401 29.549C19.3208 30.074 19.7725 30.4615 20.3036 30.4615C20.8346 30.4615 21.2861 30.0742 21.367 29.5495L23.4376 16.1117C23.7334 14.1926 22.2486 12.4615 20.3068 12.4615ZM20.3077 36.9231C21.5822 36.9231 22.6154 35.8899 22.6154 34.6154C22.6154 33.3409 21.5822 32.3077 20.3077 32.3077C19.0332 32.3077 18 33.3409 18 34.6154C18 35.8899 19.0332 36.9231 20.3077 36.9231Z" fill="white"/></g><defs><clipPath id="clip0_5821_8813"><rect width="11.0769" height="25.8462" fill="white" transform="translate(14.7693 11.0769)"/></clipPath></defs></svg>