<svg width="32" height="32" viewBox="0 0 32 32" fill="none" xmlns="http://www.w3.org/2000/svg">
<path fill-rule="evenodd" clip-rule="evenodd" d="M2 16C2 23.7313 8.26874 30 16 30C23.7313 30 30 23.7313 30 16C30 8.26874 23.7313 2 16 2C8.26874 2 2 8.26874 2 16Z" stroke="white" stroke-width="2"/>
<path fill-rule="evenodd" clip-rule="evenodd" d="M14.5859 16.0001L10.5758 11.99C10.4196 11.8338 10.4196 11.5805 10.5758 11.4243L11.4243 10.5758C11.5805 10.4196 11.8338 10.4196 11.99 10.5758L16.0001 14.5859L20.0101 10.5758C20.1663 10.4196 20.4196 10.4196 20.5758 10.5758L21.4243 11.4243C21.5805 11.5805 21.5805 11.8338 21.4243 11.99L17.4143 16.0001L21.4243 20.0101C21.5805 20.1663 21.5805 20.4196 21.4243 20.5758L20.5758 21.4243C20.4196 21.5805 20.1663 21.5805 20.0101 21.4243L16.0001 17.4143L11.99 21.4243C11.8338 21.5805 11.5805 21.5805 11.4243 21.4243L10.5758 20.5758C10.4196 20.4196 10.4196 20.1663 10.5758 20.0101L14.5859 16.0001Z" fill="white"/>
</svg>
