<svg width="14" height="14" viewBox="0 0 14 14" fill="none" xmlns="http://www.w3.org/2000/svg">
<path fill-rule="evenodd" clip-rule="evenodd" d="M7 12.267C9.9087 12.267 12.2667 9.90903 12.2667 7.00033C12.2667 4.09163 9.9087 1.73366 7 1.73366C4.0913 1.73366 1.73333 4.09163 1.73333 7.00033C1.73333 9.90903 4.0913 12.267 7 12.267ZM7 13.3337C10.4978 13.3337 13.3333 10.4981 13.3333 7.00033C13.3333 3.50252 10.4978 0.666994 7 0.666993C3.50219 0.666993 0.666664 3.50252 0.666663 7.00033C0.666662 10.4981 3.50219 13.3337 7 13.3337Z" fill="#F16514"/>
<path d="M6.6296 9.81116C6.73923 9.88442 6.86812 9.92351 6.99998 9.92351C7.17679 9.92351 7.34636 9.85328 7.47138 9.72825C7.59641 9.60323 7.66664 9.43366 7.66664 9.25685C7.66664 9.12499 7.62754 8.9961 7.55429 8.88647C7.48104 8.77684 7.37692 8.69139 7.2551 8.64093C7.13328 8.59047 6.99924 8.57727 6.86992 8.60299C6.7406 8.62871 6.62181 8.69221 6.52857 8.78544C6.43534 8.87868 6.37184 8.99747 6.34612 9.12679C6.3204 9.25611 6.3336 9.39015 6.38406 9.51197C6.43452 9.63379 6.51996 9.73791 6.6296 9.81116Z" fill="#F16514"/>
<path d="M6.73334 7.79521C6.58606 7.79521 6.46667 7.67582 6.46667 7.52854L6.46667 4.267C6.46667 4.11973 6.58606 4.00034 6.73334 4.00034L7.26667 4.00034C7.41395 4.00034 7.53334 4.11973 7.53334 4.267L7.53334 7.52854C7.53334 7.67582 7.41395 7.79521 7.26667 7.79521L6.73334 7.79521Z" fill="#F16514"/>
</svg>
