<svg width="24" height="24" viewBox="0 0 24 24" fill="none" xmlns="http://www.w3.org/2000/svg">
<path fill-rule="evenodd" clip-rule="evenodd" d="M12 19.9C16.363 19.9 19.9 16.363 19.9 12C19.9 7.63695 16.363 4.1 12 4.1C7.63695 4.1 4.1 7.63695 4.1 12C4.1 16.363 7.63695 19.9 12 19.9ZM12 21.5C17.2467 21.5 21.5 17.2467 21.5 12C21.5 6.75329 17.2467 2.5 12 2.5C6.75329 2.5 2.5 6.75329 2.5 12C2.5 17.2467 6.75329 21.5 12 21.5Z" fill="#004CFF"/>
<path fill-rule="evenodd" clip-rule="evenodd" d="M11.2 15.6C11.2 15.8209 11.3791 16 11.6 16H12.4C12.6209 16 12.8 15.8209 12.8 15.6V12.8H15.6C15.8209 12.8 16 12.6209 16 12.4V11.6C16 11.379 15.8209 11.2 15.6 11.2H12.8V8.4C12.8 8.17909 12.6209 8 12.4 8H11.6C11.3791 8 11.2 8.17909 11.2 8.4V11.2L8.4 11.2C8.17909 11.2 8 11.379 8 11.6V12.4C8 12.6209 8.17909 12.8 8.4 12.8H11.2V15.6Z" fill="#004CFF"/>
</svg>
