<svg width="14" height="14" viewBox="0 0 14 14" fill="none" xmlns="http://www.w3.org/2000/svg">
<path fill-rule="evenodd" clip-rule="evenodd" d="M7 12.2666C9.9087 12.2666 12.2667 9.90866 12.2667 6.99996C12.2667 4.09126 9.9087 1.73329 7.00001 1.73329C4.09131 1.73329 1.73334 4.09126 1.73334 6.99996C1.73334 9.90866 4.0913 12.2666 7 12.2666ZM7 13.3333C10.4978 13.3333 13.3333 10.4978 13.3333 6.99996C13.3333 3.50216 10.4978 0.666628 7.00001 0.666627C3.5022 0.666626 0.666671 3.50216 0.666671 6.99996C0.66667 10.4978 3.5022 13.3333 7 13.3333Z" fill="#E3493F"/>
<path d="M6.6296 9.81079C6.73924 9.88405 6.86813 9.92315 6.99998 9.92315C7.1768 9.92315 7.34636 9.85291 7.47139 9.72789C7.59641 9.60286 7.66665 9.43329 7.66665 9.25648C7.66665 9.12463 7.62755 8.99573 7.5543 8.8861C7.48104 8.77647 7.37692 8.69102 7.25511 8.64056C7.13329 8.5901 6.99925 8.5769 6.86992 8.60263C6.7406 8.62835 6.62182 8.69184 6.52858 8.78508C6.43535 8.87831 6.37185 8.9971 6.34613 9.12642C6.3204 9.25574 6.33361 9.38979 6.38406 9.5116C6.43452 9.63342 6.51997 9.73754 6.6296 9.81079Z" fill="#E3493F"/>
<path d="M6.73335 7.79484C6.58607 7.79484 6.46668 7.67545 6.46668 7.52817L6.46668 4.26664C6.46668 4.11936 6.58607 3.99997 6.73335 3.99997L7.26668 3.99997C7.41396 3.99997 7.53335 4.11936 7.53335 4.26664L7.53335 7.52818C7.53335 7.67545 7.41396 7.79484 7.26668 7.79484L6.73335 7.79484Z" fill="#E3493F"/>
</svg>
