<svg width="20" height="20" viewBox="0 0 20 20" fill="none" xmlns="http://www.w3.org/2000/svg">
<path d="M14.293 15.6525C14.4231 15.7827 14.6342 15.7827 14.7644 15.6525L15.2358 15.1811C15.366 15.051 15.366 14.8399 15.2358 14.7097L10.9429 10.4168L15.2358 6.12394C15.366 5.99376 15.366 5.78271 15.2358 5.65253L14.7644 5.18113C14.6342 5.05095 14.4231 5.05095 14.293 5.18113L10.0001 9.47402L5.70719 5.18113C5.57701 5.05095 5.36596 5.05095 5.23578 5.18113L4.76438 5.65253C4.6342 5.78271 4.6342 5.99376 4.76438 6.12394L9.05727 10.4168L4.76438 14.7097C4.6342 14.8399 4.6342 15.051 4.76438 15.1811L5.23578 15.6525C5.36596 15.7827 5.57701 15.7827 5.70719 15.6525L10.0001 11.3596L14.293 15.6525Z" fill="#959DAD"/>
</svg>
