<svg width="20" height="20" viewBox="0 0 20 20" fill="none" xmlns="http://www.w3.org/2000/svg">
<path d="M14.2932 15.6525C14.4234 15.7827 14.6344 15.7827 14.7646 15.6525L15.236 15.1811C15.3662 15.051 15.3662 14.8399 15.236 14.7097L10.9431 10.4168L15.236 6.12394C15.3662 5.99376 15.3662 5.78271 15.236 5.65253L14.7646 5.18113C14.6344 5.05095 14.4234 5.05095 14.2932 5.18113L10.0003 9.47402L5.70743 5.18113C5.57726 5.05095 5.3662 5.05095 5.23603 5.18113L4.76462 5.65253C4.63445 5.78271 4.63445 5.99376 4.76462 6.12394L9.05752 10.4168L4.76462 14.7097C4.63445 14.8399 4.63445 15.051 4.76462 15.1811L5.23603 15.6525C5.3662 15.7827 5.57726 15.7827 5.70743 15.6525L10.0003 11.3596L14.2932 15.6525Z" fill="#3F475A"/>
</svg>
