<svg width="30" height="30" viewBox="0 0 30 30" fill="none" xmlns="http://www.w3.org/2000/svg">
<path fill-rule="evenodd" clip-rule="evenodd" d="M16.5001 21.8H6.2001C5.9001 21.8 5.6001 21.5 5.6001 21.2V10.1H20.8001C21.1001 10.1 21.4001 10.4 21.4001 10.7V11.7C22.0001 11.5 22.7001 11.4 23.4001 11.4V10.8C23.4001 9.4 22.2001 8.2 20.8001 8.2H19.4001V6.3C19.4001 5.6 18.8001 5 18.1001 5H6.2001C4.7001 5 3.6001 6.1 3.6001 7.5V21.2C3.6001 22.6 4.8001 23.8 6.2001 23.8H18.5001L16.5001 21.8ZM5.6001 7.5C5.6001 7.2 5.8001 7 6.2001 7H17.4001V8.1H5.6001V7.5Z" fill="black"/>
<path d="M21.1 23.6998C20.7 23.6998 20.3 23.4998 20 23.1998L16.1 19.2998C15.9 19.0998 15.8 18.7998 15.8 18.4998C15.8 17.8998 16.3 17.3998 16.9 17.2998H18.2C18.5 14.2998 20.5 12.7998 24.4 12.7998H24.6C25 12.7998 25.3 12.9998 25.4 13.1998C25.6 13.4998 25.6 13.8998 25.4 14.1998L25.3 14.2998L24.9 14.7998L24.7 14.9998L24.5 15.2998C24.1 15.8998 23.8 16.5998 23.8 17.2998H25.2C25.5 17.2998 25.7 17.3998 26 17.5998L26.1 17.6998C26.5 18.0998 26.6 18.7998 26.2 19.2998L26.1 19.3998L22.3 23.2998C22 23.4998 21.6 23.6998 21.1 23.6998ZM21.1 21.8998L23.9 19.0998H22.1L22 18.1998C21.9 16.8998 22.1 15.6998 22.8 14.5998C20.7 14.8998 19.9 15.8998 19.9 17.9998V18.9998H18.3L21.1 21.8998Z" fill="black"/>
</svg>
