<svg width="100" height="100" viewBox="0 0 100 100" fill="none" xmlns="http://www.w3.org/2000/svg">
<path d="M66.0561 43.75C66.5442 43.2618 66.5442 42.4704 66.0561 41.9822L63.1098 39.0359C62.6216 38.5478 61.8302 38.5478 61.342 39.0359L46.4222 53.9558C46.0967 54.2812 45.5691 54.2812 45.2437 53.9558L38.3595 47.0716C37.8714 46.5835 37.0799 46.5835 36.5918 47.0716L33.6455 50.0179C33.1573 50.5061 33.1573 51.2975 33.6455 51.7857L44.949 63.0892C45.4372 63.5774 46.2286 63.5774 46.7168 63.0892L66.0561 43.75Z" fill="#05C28C"/>
<path fill-rule="evenodd" clip-rule="evenodd" d="M89.5833 50C89.5833 71.8612 71.8612 89.5833 50 89.5833C28.1387 89.5833 10.4166 71.8612 10.4166 50C10.4166 28.1387 28.1387 10.4166 50 10.4166C71.8612 10.4166 89.5833 28.1387 89.5833 50ZM82.9166 50C82.9166 68.1793 68.1793 82.9166 50 82.9166C31.8206 82.9166 17.0833 68.1793 17.0833 50C17.0833 31.8206 31.8206 17.0833 50 17.0833C68.1793 17.0833 82.9166 31.8206 82.9166 50Z" fill="#05C28C"/>
</svg>
