<svg width="18" height="18" viewBox="0 0 18 18" fill="none" xmlns="http://www.w3.org/2000/svg">
<path d="M9.64867 11.6178V12.5444C9.64867 12.5985 9.6313 12.6429 9.59655 12.6776C9.5618 12.7124 9.5174 12.7297 9.46334 12.7297H8.5367C8.48265 12.7297 8.43824 12.7124 8.4035 12.6776C8.36875 12.6429 8.35137 12.5985 8.35137 12.5444V11.6178C8.35137 11.5637 8.36875 11.5193 8.4035 11.4846C8.43824 11.4498 8.48265 11.4324 8.5367 11.4324H9.46334C9.5174 11.4324 9.5618 11.4498 9.59655 11.4846C9.6313 11.5193 9.64867 11.5637 9.64867 11.6178Z" fill="#929292"/>
<path fill-rule="evenodd" clip-rule="evenodd" d="M9.67956 5.15237C10.6907 5.33816 11.6481 6.15232 11.6481 7.21707C11.6481 8.09613 11.1638 8.63436 10.6754 8.97367C10.4421 9.13577 10.1939 9.26324 9.99521 9.36425L9.97532 9.37436C9.84009 9.44309 9.73438 9.49681 9.64863 9.5456V10.6216H8.35133V9.42355C8.35133 9.13856 8.46251 8.77894 8.79231 8.55178C8.97009 8.42934 9.18338 8.32128 9.35889 8.23237C9.3754 8.224 9.39158 8.21581 9.40737 8.20778C9.60987 8.10485 9.78394 8.01335 9.93524 7.90824C10.2161 7.71312 10.3508 7.52397 10.3508 7.21707C10.3508 6.97651 10.0585 6.54102 9.44511 6.4283C8.9322 6.33406 8.18576 6.50245 7.55676 7.55079L6.44434 6.88334C7.31492 5.43237 8.56793 4.94811 9.67956 5.15237Z" fill="#929292"/>
<path fill-rule="evenodd" clip-rule="evenodd" d="M9 14.8926C12.2544 14.8926 14.8926 12.2544 14.8926 9C14.8926 5.74562 12.2544 3.10743 9 3.10743C5.74562 3.10743 3.10743 5.74562 3.10743 9C3.10743 12.2544 5.74562 14.8926 9 14.8926ZM9 16.125C12.935 16.125 16.125 12.935 16.125 9C16.125 5.06497 12.935 1.875 9 1.875C5.06497 1.875 1.875 5.06497 1.875 9C1.875 12.935 5.06497 16.125 9 16.125Z" fill="#929292"/>
</svg>
