<svg width="57" height="57" viewBox="0 0 57 57" fill="none" xmlns="http://www.w3.org/2000/svg">
<path fill-rule="evenodd" clip-rule="evenodd" d="M28.2663 46.8289C38.4467 46.8289 46.6996 38.576 46.6996 28.3955C46.6996 18.2151 38.4467 9.96222 28.2663 9.96222C18.0858 9.96222 9.83294 18.2151 9.83294 28.3955C9.83294 38.576 18.0858 46.8289 28.2663 46.8289ZM28.2663 50.5622C40.5086 50.5622 50.4329 40.6379 50.4329 28.3955C50.4329 16.1532 40.5086 6.22888 28.2663 6.22888C16.024 6.22888 6.09961 16.1532 6.09961 28.3955C6.09961 40.6379 16.024 50.5622 28.2663 50.5622Z" fill="#EB4B6D"/>
<path fill-rule="evenodd" clip-rule="evenodd" d="M28.2662 25.7557L32.886 21.1359C33.2505 20.7714 33.8414 20.7714 34.2059 21.1359L35.5258 22.4558C35.8903 22.8203 35.8903 23.4113 35.5258 23.7758L30.9061 28.3955L35.5258 33.0153C35.8903 33.3798 35.8903 33.9707 35.5258 34.3352L34.2059 35.6551C33.8414 36.0196 33.2505 36.0196 32.886 35.6551L28.2662 31.0354L23.6464 35.6551C23.282 36.0196 22.691 36.0196 22.3265 35.6551L21.0066 34.3352C20.6421 33.9707 20.6421 33.3798 21.0066 33.0153L25.6263 28.3955L21.0066 23.7758C20.6421 23.4113 20.6421 22.8203 21.0066 22.4558L22.3265 21.1359C22.691 20.7714 23.282 20.7714 23.6464 21.1359L28.2662 25.7557Z" fill="#EB4B6D"/>
</svg>
