<svg width="20" height="20" viewBox="0 0 20 20" fill="none" xmlns="http://www.w3.org/2000/svg">
<path fill-rule="evenodd" clip-rule="evenodd" d="M9.34572 7.82108C9.40139 8.59322 8.78998 9.25029 8.01584 9.25029H5.83325C5.64916 9.25029 5.49992 9.39953 5.49992 9.58363V11.799L4.67666 15.9153C4.71308 16.0599 4.844 16.167 4.99992 16.167H14.9999C15.1558 16.167 15.2868 16.0599 15.3232 15.9153L14.4999 11.799V9.58363C14.4999 9.39953 14.3507 9.25029 14.1666 9.25029H11.9843C11.2102 9.25029 10.5988 8.59319 10.6545 7.82104C10.7288 6.7899 10.7919 5.6102 10.7917 4.58375C10.7917 4.31958 10.6944 4.15944 10.571 4.05459C10.4337 3.93799 10.2272 3.86174 9.99564 3.86021C9.76401 3.85868 9.5612 3.93213 9.42783 4.04485C9.30903 4.14525 9.20843 4.30543 9.20842 4.58372C9.20835 5.6102 9.27138 6.78993 9.34572 7.82108ZM16.6666 15.8336C16.6666 16.7541 15.9204 17.5003 14.9999 17.5003H4.99992C4.07944 17.5003 3.33325 16.7541 3.33325 15.8336L4.16659 11.667V9.58363C4.16659 8.66316 4.91278 7.91696 5.83325 7.91696H7.56805C7.80997 7.91696 8.00091 7.71163 7.98502 7.47024C7.96603 7.18175 7.94829 6.88424 7.93283 6.58363C7.89821 5.91051 7.87504 5.22178 7.87508 4.58364C7.87512 3.92524 8.13934 3.38807 8.56717 3.02649C8.98016 2.67745 9.50622 2.52361 10.0045 2.52691C10.5027 2.5302 11.0251 2.69082 11.4342 3.03843C11.8577 3.39812 12.125 3.9306 12.1251 4.5836C12.1252 5.22175 12.102 5.9105 12.0674 6.58363C12.0519 6.88424 12.0342 7.18174 12.0152 7.47023C11.9993 7.71163 12.1902 7.91696 12.4321 7.91696H14.1666C15.0871 7.91696 15.8333 8.66315 15.8333 9.58363V11.667L16.6666 15.8336Z" fill="#3D3D3D"/>
<path fill-rule="evenodd" clip-rule="evenodd" d="M14.9998 11.9169H5.47633L5.49992 11.799V10.5836H14.9998V11.9169Z" fill="#3D3D3D"/>
<path fill-rule="evenodd" clip-rule="evenodd" d="M9.58299 16.667C9.44492 16.667 9.33299 16.555 9.33299 16.417V14.417C9.33299 14.2789 9.44492 14.167 9.58299 14.167H10.4163C10.5544 14.167 10.6663 14.2789 10.6663 14.417V16.417C10.6663 16.555 10.5544 16.667 10.4163 16.667H9.58299Z" fill="#3D3D3D"/>
<path fill-rule="evenodd" clip-rule="evenodd" d="M12.2498 16.667C12.1117 16.667 11.9998 16.555 11.9998 16.417V14.417C11.9998 14.2789 12.1117 14.167 12.2498 14.167H13.0831C13.2212 14.167 13.3331 14.2789 13.3331 14.417V16.417C13.3331 16.555 13.2212 16.667 13.0831 16.667H12.2498Z" fill="#3D3D3D"/>
<path fill-rule="evenodd" clip-rule="evenodd" d="M6.91657 16.667C6.77849 16.667 6.66656 16.555 6.66656 16.417V14.417C6.66656 14.2789 6.77849 14.167 6.91657 14.167H7.7499C7.88797 14.167 7.9999 14.2789 7.9999 14.417V16.417C7.9999 16.555 7.88797 16.667 7.7499 16.667H6.91657Z" fill="#3D3D3D"/>
</svg>
