<svg width="24" height="24" viewBox="0 0 24 24" fill="none" xmlns="http://www.w3.org/2000/svg">
<circle cx="12" cy="12" r="8" fill="#BDBDBD"/>
<path fill-rule="evenodd" clip-rule="evenodd" d="M12 10.8686L13.9799 8.88872C14.1361 8.73251 14.3894 8.73251 14.5456 8.88872L15.1113 9.45441C15.2675 9.61062 15.2675 9.86389 15.1113 10.0201L13.1314 12L15.1113 13.9799C15.2675 14.1361 15.2675 14.3894 15.1113 14.5456L14.5456 15.1113C14.3894 15.2675 14.1361 15.2675 13.9799 15.1113L12 13.1314L10.0201 15.1113C9.86389 15.2675 9.61063 15.2675 9.45442 15.1113L8.88873 14.5456C8.73252 14.3894 8.73252 14.1361 8.88873 13.9799L10.8686 12L8.88873 10.0201C8.73252 9.86389 8.73252 9.61062 8.88873 9.45441L9.45442 8.88872C9.61063 8.73251 9.86389 8.73251 10.0201 8.88872L12 10.8686Z" fill="#EBEBEB"/>
</svg>
