<svg width="24" height="24" viewBox="0 0 24 24" fill="none" xmlns="http://www.w3.org/2000/svg">
<path d="M16.5 5.60002H17C17.2209 5.60002 17.4 5.7791 17.4 6.00002V6.50002H19V6.00002C19 4.89545 18.1046 4.00002 17 4.00002H16.5V5.60002Z" fill="#929292"/>
<path d="M15 5.60002V4.00002H13V5.60002H15Z" fill="#929292"/>
<path d="M11.5 5.60002V4.00005H10.9888C9.8894 4.00606 9 4.89917 9 6.00002V6.50005H10.6V6.00002C10.6 5.7791 10.7791 5.60002 11 5.60002H11.5Z" fill="#929292"/>
<path d="M16.5 14.4V16H17C18.1046 16 19 15.1046 19 14V13.5H17.4V14C17.4 14.2209 17.2209 14.4 17 14.4H16.5Z" fill="#929292"/>
<path d="M17.4 12.3501H19V10.6001H17.4V12.3501Z" fill="#929292"/>
<path d="M17.4 9.55006H19V7.80006H17.4V9.55006Z" fill="#929292"/>
<path fill-rule="evenodd" clip-rule="evenodd" d="M13 9.60002H7C6.77909 9.60002 6.6 9.7791 6.6 10V18C6.6 18.2209 6.77909 18.4 7 18.4H13C13.2209 18.4 13.4 18.2209 13.4 18V10C13.4 9.7791 13.2209 9.60002 13 9.60002ZM7 8.00002C5.89543 8.00002 5 8.89545 5 10V18C5 19.1046 5.89543 20 7 20H13C14.1046 20 15 19.1046 15 18V10C15 8.89545 14.1046 8.00002 13 8.00002H7Z" fill="#929292"/>
</svg>
