<svg width="16" height="12" viewBox="0 0 16 12" fill="none" xmlns="http://www.w3.org/2000/svg">
<path d="M13.1132 1.34582C13.1091 1.3379 13.1023 1.3317 13.0941 1.32832C12.141 0.891033 11.1352 0.579215 10.1019 0.400667C10.0925 0.398922 10.0828 0.400181 10.0742 0.404265C10.0656 0.40835 10.0585 0.415051 10.0538 0.423417C9.91689 0.671989 9.79257 0.927314 9.68135 1.18842C8.56751 1.01934 7.43454 1.01934 6.3207 1.18842C6.20874 0.926651 6.08243 0.671263 5.94232 0.423417C5.93752 0.415233 5.93036 0.408686 5.92178 0.404628C5.9132 0.40057 5.9036 0.39919 5.89422 0.400667C4.86082 0.57884 3.85498 0.890682 2.90202 1.32834C2.89387 1.3318 2.88698 1.33771 2.88232 1.34524C0.976599 4.19119 0.454549 6.96717 0.710649 9.70876C0.711369 9.71548 0.713434 9.72199 0.716719 9.72789C0.720005 9.7338 0.724444 9.73899 0.729774 9.74314C1.83946 10.5648 3.08066 11.1919 4.4004 11.5979C4.40969 11.6007 4.41962 11.6005 4.42884 11.5975C4.43806 11.5945 4.44613 11.5887 4.45197 11.581C4.73543 11.1953 4.98659 10.7869 5.2029 10.3599C5.20587 10.3541 5.20757 10.3476 5.20788 10.3411C5.20819 10.3345 5.2071 10.328 5.2047 10.3218C5.20229 10.3157 5.19861 10.3102 5.19391 10.3056C5.18921 10.301 5.18359 10.2975 5.17742 10.2952C4.78136 10.1437 4.39793 9.96099 4.03072 9.74889C4.02405 9.74497 4.01845 9.73947 4.01441 9.73287C4.01037 9.72627 4.00802 9.71877 4.00756 9.71105C4.00711 9.70332 4.00856 9.69561 4.01179 9.68858C4.01502 9.68155 4.01994 9.67542 4.0261 9.67074C4.10337 9.61302 4.1793 9.55353 4.25382 9.49232C4.26036 9.48693 4.26827 9.48348 4.27666 9.48235C4.28505 9.48122 4.2936 9.48245 4.30132 9.48592C6.70705 10.5838 9.31157 10.5838 11.6888 9.48592C11.6966 9.48223 11.7052 9.48082 11.7137 9.48186C11.7222 9.48289 11.7303 9.48632 11.7369 9.49174C11.8115 9.55328 11.8877 9.61297 11.9652 9.67074C11.9714 9.67537 11.9764 9.68146 11.9797 9.68846C11.9829 9.69547 11.9845 9.70317 11.9841 9.7109C11.9837 9.71862 11.9814 9.72613 11.9774 9.73275C11.9734 9.73938 11.9678 9.74492 11.9612 9.74889C11.5948 9.96278 11.211 10.1453 10.8139 10.2946C10.8078 10.297 10.8022 10.3006 10.7975 10.3053C10.7928 10.3099 10.7892 10.3155 10.7868 10.3217C10.7845 10.3278 10.7834 10.3344 10.7838 10.341C10.7842 10.3476 10.7859 10.354 10.7889 10.3599C11.0089 10.7845 11.2596 11.1924 11.5393 11.5803C11.5449 11.5882 11.553 11.5942 11.5622 11.5974C11.5715 11.6005 11.5815 11.6006 11.5908 11.5978C12.913 11.1932 14.1563 10.566 15.2674 9.74314C15.2728 9.73919 15.2773 9.73413 15.2806 9.72831C15.2839 9.72248 15.2859 9.71601 15.2865 9.70934C15.5931 6.53977 14.7732 3.78654 13.1132 1.34582V1.34582ZM5.56217 8.03941C4.83787 8.03941 4.24107 7.37474 4.24107 6.55844C4.24107 5.74214 4.8263 5.07742 5.56217 5.07742C6.3038 5.07742 6.89482 5.74792 6.88325 6.55839C6.88325 7.37474 6.298 8.03941 5.56217 8.03941V8.03941ZM10.4467 8.03941C9.7224 8.03941 9.1256 7.37474 9.1256 6.55844C9.1256 5.74214 9.71082 5.07742 10.4467 5.07742C11.1883 5.07742 11.7793 5.74792 11.7678 6.55839C11.7678 7.37474 11.1883 8.03941 10.4467 8.03941Z" fill="#3D3D3D"/>
</svg>
