<svg width="16" height="10" viewBox="0 0 16 10" fill="none" xmlns="http://www.w3.org/2000/svg">
<path fill-rule="evenodd" clip-rule="evenodd" d="M7.99974 0C3.80973 0 1.81425 2.43836 0.991607 3.9095C0.609568 4.5927 0.609568 5.4073 0.991607 6.0905C1.81425 7.56164 3.80973 10 7.99974 10C12.1898 10 14.1852 7.56164 15.0079 6.0905C15.3899 5.4073 15.3899 4.5927 15.0079 3.9095C14.1852 2.43836 12.1898 0 7.99974 0ZM11.2498 5C11.2498 6.79493 9.79469 8.25 7.99976 8.25C6.20484 8.25 4.74976 6.79493 4.74976 5C4.74976 3.20507 6.20484 1.75 7.99976 1.75C9.79469 1.75 11.2498 3.20507 11.2498 5ZM7.99976 6.75C8.96625 6.75 9.74976 5.9665 9.74976 5C9.74976 4.0335 8.96625 3.25 7.99976 3.25C7.03326 3.25 6.24976 4.0335 6.24976 5C6.24976 5.9665 7.03326 6.75 7.99976 6.75Z" fill="#BDBDBD"/>
</svg>
