<svg width="16" height="14" viewBox="0 0 16 14" fill="none" xmlns="http://www.w3.org/2000/svg">
<path fill-rule="evenodd" clip-rule="evenodd" d="M13.1512 13.2829C13.3074 13.4392 13.5607 13.4392 13.7169 13.2829L14.2826 12.7173C14.4388 12.561 14.4388 12.3078 14.2826 12.1516L12.7439 10.6129C13.8826 9.8166 14.5938 8.83106 15.0079 8.09057C15.3899 7.40737 15.3899 6.59277 15.0079 5.90956C14.1852 4.43843 12.1898 2.00007 7.99974 2.00007C6.71013 2.00007 5.6284 2.23106 4.72478 2.59373L2.8483 0.717255C2.69209 0.561045 2.43882 0.561046 2.28261 0.717255L1.71693 1.28294C1.56072 1.43915 1.56072 1.69242 1.71692 1.84863L13.1512 13.2829ZM7.46448 5.33344L6.33768 4.20664C6.824 3.91666 7.39242 3.75007 7.99976 3.75007C9.79469 3.75007 11.2498 5.20514 11.2498 7.00007C11.2498 7.60741 11.0832 8.17583 10.7932 8.66215L9.66638 7.53534C9.72052 7.36663 9.74976 7.18676 9.74976 7.00007C9.74976 6.03357 8.96625 5.25007 7.99976 5.25007C7.81306 5.25007 7.63319 5.2793 7.46448 5.33344ZM2.2424 4.24279L4.75857 6.75896C4.75273 6.83857 4.74976 6.91897 4.74976 7.00007C4.74976 8.79499 6.20484 10.2501 7.99976 10.2501C8.08086 10.2501 8.16126 10.2471 8.24087 10.2413L9.82968 11.8301C9.27206 11.9389 8.66343 12.0001 7.99974 12.0001C3.80973 12.0001 1.81425 9.56171 0.991607 8.09057C0.609568 7.40737 0.609568 6.59277 0.991607 5.90957C1.26572 5.41937 1.67005 4.82178 2.2424 4.24279Z" fill="#BDBDBD"/>
</svg>
