<svg width="32" height="32" viewBox="0 0 32 32" fill="none" xmlns="http://www.w3.org/2000/svg">
<path fill-rule="evenodd" clip-rule="evenodd" d="M22.8681 24.3763C23.0764 24.5846 23.4141 24.5846 23.6224 24.3763L24.3766 23.622C24.5849 23.4137 24.5849 23.0761 24.3766 22.8678L22.3261 20.8173C23.8435 19.7557 24.7914 18.4421 25.3434 17.4551C25.8527 16.5442 25.8527 15.458 25.3434 14.5471C24.2465 12.5856 21.5859 9.33442 15.9992 9.33442C14.2805 9.33442 12.8387 9.64213 11.6342 10.1253L9.13088 7.62203C8.9226 7.41375 8.58492 7.41375 8.37664 7.62203L7.62239 8.37628C7.41411 8.58456 7.41411 8.92225 7.62239 9.13052L22.8681 24.3763ZM15.2871 13.7783L13.7848 12.2759C14.4329 11.8896 15.1905 11.6678 15.9998 11.6678C18.3931 11.6678 20.3332 13.6079 20.3332 16.0011C20.3332 16.8104 20.1113 17.568 19.725 18.2162L18.2223 16.7135C18.2943 16.4888 18.3332 16.2493 18.3332 16.0008C18.3332 14.7121 17.2885 13.6674 15.9998 13.6674C15.7513 13.6674 15.5118 13.7063 15.2871 13.7783ZM8.32276 12.3247L11.6782 15.6801C11.6704 15.7861 11.6665 15.8931 11.6665 16.0011C11.6665 18.3943 13.6066 20.3344 15.9998 20.3344C16.1078 20.3344 16.2148 20.3305 16.3208 20.3227L18.4392 22.4411C17.6956 22.5862 16.8841 22.6678 15.9992 22.6678C10.4125 22.6678 7.75184 19.4166 6.65499 17.4551C6.1456 16.5442 6.1456 15.458 6.65499 14.5471C7.02048 13.8935 7.5596 13.0967 8.32276 12.3247Z" fill="black"/>
</svg>
