<svg width="48" height="48" viewBox="0 0 48 48" fill="none" xmlns="http://www.w3.org/2000/svg">
<rect width="48" height="48" fill="white"/>
<circle opacity="0.15" cx="24.0001" cy="24" r="22.5882" fill="#F1507B"/>
<path fill-rule="evenodd" clip-rule="evenodd" d="M23.9998 26.4671L29.4402 31.9075C29.5229 31.9902 29.657 31.9902 29.7397 31.9075L31.4367 30.2105C31.5194 30.1278 31.5194 29.9937 31.4367 29.911L25.9963 24.4706L31.4367 19.0302C31.5194 18.9475 31.5194 18.8134 31.4367 18.7307L29.7397 17.0337C29.657 16.951 29.5229 16.951 29.4402 17.0337L23.9998 22.4741L18.5594 17.0337C18.4767 16.951 18.3426 16.951 18.2599 17.0337L16.5628 18.7307C16.4801 18.8134 16.4801 18.9475 16.5628 19.0302L22.0032 24.4706L16.5628 29.911C16.4801 29.9937 16.4801 30.1278 16.5628 30.2105L18.2599 31.9075C18.3426 31.9902 18.4767 31.9902 18.5594 31.9075L23.9998 26.4671Z" fill="#F1507B"/>
</svg>
