<svg width="99" height="25" viewBox="0 0 99 25" fill="none" xmlns="http://www.w3.org/2000/svg">
<path fill-rule="evenodd" clip-rule="evenodd" d="M8.67295 0C12.0458 0 14.8163 2.58033 14.8163 5.68845V7.56505H17.3459V20.584L8.67295 24.5131L0 20.584V7.50641H2.52961V5.68845C2.52961 2.58033 5.30013 0 8.67295 0ZM8.67295 3.04948C6.98654 3.04948 5.66151 4.22236 5.66151 5.68845V7.50641H11.6844V5.68845C11.6844 4.22236 10.3594 3.04948 8.67295 3.04948ZM8.67295 20.8186L13.8526 18.4728V10.6145H3.49327V18.4728L8.67295 20.8186ZM71.7932 14.0741C71.7932 10.2036 74.6842 7.33008 78.7797 7.33008C82.8753 7.33008 85.8265 10.2036 85.8265 14.0741C85.8265 17.9446 82.815 20.8182 78.7797 20.8182C74.7444 20.8182 71.7932 17.9446 71.7932 14.0741ZM75.3467 14.0741C75.3467 16.2439 76.7319 17.7687 78.7797 17.7687C80.8275 17.7687 82.273 16.2439 82.273 14.0741C82.273 11.9043 80.8275 10.3796 78.7797 10.3796C76.7319 10.3796 75.3467 11.8457 75.3467 14.0741ZM60.892 7.50684H71.1912V10.1458L65.5899 17.5349H71.1912V20.6431H60.892V18.0041L66.4933 10.615H60.892V7.50684ZM95.6436 15.7756C96.9084 15.3064 98.2334 14.0749 98.2334 11.9051C98.2334 9.2661 96.3663 7.56543 93.5958 7.56543H87.2718V20.643H90.7651V16.2447H92.0901L94.5595 20.643H98.5948L95.6436 15.7756ZM93.1742 13.1952H90.7651V10.5563H93.1742C94.0776 10.5563 94.6799 11.0841 94.6799 11.8464C94.6799 12.6674 94.0776 13.1952 93.1742 13.1952ZM49.4473 7.50684H59.2044V10.5563H52.9406V12.4916H59.0237V15.4824H52.9406V17.5936H59.2044V20.6431H49.4473V7.50684ZM47.8218 11.9051C47.8218 9.2661 45.9548 7.56543 43.1842 7.56543H36.8602V20.643H40.3535V16.2447H41.6785L44.1479 20.643H48.1832L45.232 15.7756C46.4968 15.3064 47.8218 14.0749 47.8218 11.9051ZM42.7626 13.1952H40.3535V10.5563H42.7626C43.6661 10.5563 44.2683 11.0841 44.2683 11.8464C44.2683 12.6674 43.6661 13.1952 42.7626 13.1952ZM35.294 7.50684H24.3926V10.615H28.0665V20.6431H31.5598V10.615H35.294V7.50684Z" fill="black"/>
</svg>
