<svg width="12" height="11" viewBox="0 0 12 11" fill="none" xmlns="http://www.w3.org/2000/svg">
<path d="M10.293 10.6523C10.4231 10.7825 10.6342 10.7825 10.7644 10.6523L11.2358 10.1809C11.366 10.0507 11.366 9.83965 11.2358 9.70948L6.94289 5.41659L11.2358 1.12369C11.366 0.993517 11.366 0.782462 11.2358 0.652287L10.7644 0.180883C10.6342 0.0507085 10.4231 0.050708 10.293 0.180883L6.00008 4.47378L1.70719 0.180883C1.57701 0.050708 1.36596 0.0507085 1.23578 0.180883L0.764379 0.652288C0.634204 0.782462 0.634204 0.993518 0.764379 1.12369L5.05727 5.41659L0.764379 9.70948C0.634204 9.83965 0.634204 10.0507 0.764379 10.1809L1.23578 10.6523C1.36596 10.7825 1.57701 10.7825 1.70719 10.6523L6.00008 6.35939L10.293 10.6523Z" fill="#6E6E6E"/>
</svg>
