<svg width="30" height="30" viewBox="0 0 30 30" fill="none" xmlns="http://www.w3.org/2000/svg">
<path fill-rule="evenodd" clip-rule="evenodd" d="M6.96623 7.54704C6.96623 7.21912 7.23206 6.95329 7.55998 6.95329H18.7917V8.09131H6.96623V7.54704ZM20.7709 6.26058V8.09131H22.2058C23.6268 8.09131 24.7787 9.24324 24.7787 10.6642V12.8908H25.2716C25.8181 12.8908 26.2612 13.3338 26.2612 13.8804V17.8387C26.2612 18.3852 25.8181 18.8283 25.2716 18.8283H24.7787V21.2033C24.7787 22.6243 23.6268 23.7762 22.2058 23.7762H7.55998C6.13899 23.7762 4.98706 22.6243 4.98706 21.2033V7.54704C4.98706 6.12605 6.139 4.97412 7.55998 4.97412H19.4845C20.1949 4.97412 20.7709 5.55009 20.7709 6.26058ZM22.7996 18.8283H22.3028C20.6632 18.8283 19.3341 17.4991 19.3341 15.8595C19.3341 14.2199 20.6632 12.8908 22.3028 12.8908H22.7996V10.6642C22.7996 10.3363 22.5337 10.0705 22.2058 10.0705H6.96623V21.2033C6.96623 21.5312 7.23206 21.797 7.55998 21.797H22.2058C22.5337 21.797 22.7996 21.5312 22.7996 21.2033V18.8283ZM22.3028 14.87H24.282V16.8491H22.3028C21.7563 16.8491 21.3133 16.4061 21.3133 15.8595C21.3133 15.313 21.7563 14.87 22.3028 14.87Z" fill="black"/>
</svg>
