<svg width="99" height="24" viewBox="0 0 99 24" fill="none" xmlns="http://www.w3.org/2000/svg">
<path fill-rule="evenodd" clip-rule="evenodd" d="M7.73877 1.56126e-05H17.0283C17.455 -0.00129087 17.8777 0.0794115 18.2723 0.237497C18.6669 0.395582 19.0256 0.627942 19.3278 0.921256C19.6299 1.21457 19.8697 1.56307 20.0333 1.94679C20.1969 2.3305 20.2811 2.74188 20.2811 3.15734V12.2024H7.73877V1.56126e-05ZM3.24266 0H4.84359V4.71613H0V3.15732C0 2.31995 0.341636 1.51687 0.949752 0.924758C1.55787 0.332645 2.38265 0 3.24266 0ZM6.5984e-05 7.53613H4.84365V12.2523H6.5984e-05V7.53613ZM17.0796 19.7477H15.4787V15.0713H20.3223V16.5805C20.3236 16.9959 20.2407 17.4075 20.0784 17.7918C19.916 18.176 19.6774 18.5252 19.3761 18.8194C19.0749 19.1137 18.717 19.3471 18.3229 19.5064C17.9288 19.6657 17.5063 19.7477 17.0796 19.7477ZM7.73877 15.0713H12.5824V19.7874H7.73877V15.0713ZM6.5984e-05 16.6301V15.0713H4.84365V19.7874H3.24272C2.38272 19.7874 1.55793 19.4548 0.949818 18.8627C0.341702 18.2705 6.5984e-05 17.4675 6.5984e-05 16.6301ZM32.6604 1.26074H30.7637V18.5267H40.8078V16.8786H32.6604V1.26074ZM40.6148 12.3511C40.6148 8.50871 43.215 5.83789 46.9063 5.83789C50.098 5.83789 52.1884 8.07185 52.0966 11.5767V12.4504V12.5497H42.5114C42.4905 13.1703 42.5997 13.7886 42.8325 14.3667C43.0653 14.9449 43.4167 15.4707 43.8652 15.9121C44.3138 16.3535 44.8501 16.7012 45.4414 16.934C46.0326 17.1667 46.6664 17.2796 47.304 17.2658C48.6982 17.2531 50.037 16.7324 51.0565 15.8063L51.1483 15.7566L52.0049 17.1169V17.1665C50.6916 18.2595 49.0215 18.8614 47.2938 18.8643H47.0491C45.3787 18.8551 43.7766 18.2178 42.5776 17.0854C41.3785 15.9531 40.6752 14.4133 40.6148 12.788V12.3511ZM44.0036 8.41135C43.2308 9.07594 42.736 9.99405 42.6134 10.9909H50.3019C50.1592 8.32006 48.4053 7.38677 46.8044 7.38677C45.7733 7.38208 44.7765 7.74675 44.0036 8.41135ZM63.2212 7.29738V7.94275C62.8223 7.29571 62.2592 6.75949 61.5859 6.38564C60.9127 6.01179 60.1519 5.8129 59.3769 5.80808H59.1424C55.7468 5.80808 53.4015 8.42925 53.4015 12.2717C53.4015 16.1141 55.6448 18.7948 58.9894 18.7948C59.841 18.8343 60.6875 18.6461 61.4371 18.2506C62.1866 17.855 62.8107 17.2672 63.2416 16.5509V18.4473H65.0363V1.26074H63.2212V7.29738ZM55.4307 12.3014C55.4307 15.1724 56.9717 17.155 59.3056 17.1664C61.1964 17.1573 63.2212 15.8728 63.2212 12.3014C63.2212 8.99519 61.2838 7.48603 59.3769 7.48603C57.0724 7.48603 55.4307 9.42212 55.4307 12.3014ZM76.0198 7.63482V7.53553V6.19516H77.8858V18.1096C77.8858 22.1506 74.7145 23.6101 71.7676 23.6101C70.3279 23.5908 68.9118 23.2512 67.6276 22.6172L67.5256 22.5676L68.2292 21.0584L68.321 21.108C69.3792 21.6309 70.5504 21.8998 71.737 21.8924C74.4902 21.8924 76.0401 20.5322 76.0401 18.1493V16.4416C75.6351 17.0954 75.0519 17.6271 74.3553 17.9776C73.6587 18.3281 72.8759 18.4838 72.0939 18.4273C68.6983 18.4273 66.3938 15.8558 66.3938 12.063C66.3938 8.27026 68.5963 5.78809 71.9409 5.78809C74.5718 5.78809 75.6629 7.04903 76.0198 7.63482ZM68.2394 12.1623C68.2394 15.0317 69.8709 16.8784 72.3182 16.8784C74.7145 16.8784 75.928 15.2303 75.928 12.1623C75.928 9.09434 74.6737 7.58518 72.0327 7.58518C69.6364 7.58518 68.2394 9.29291 68.2394 12.1623ZM85.4107 5.83789C81.7091 5.83789 79.1599 8.50871 79.1599 12.3015V12.7383C79.2129 14.3811 79.9206 15.9392 81.133 17.0827C82.3455 18.2261 83.9674 18.8651 85.6554 18.8643H85.9103C87.6324 18.8548 89.2949 18.2495 90.601 17.1566L89.7342 15.707H89.6322C88.6164 16.6324 87.281 17.1532 85.8899 17.1665C85.2519 17.1803 84.6176 17.0674 84.0258 16.8348C83.434 16.6021 82.8971 16.2546 82.4477 15.8133C81.9984 15.3721 81.646 14.8463 81.4121 14.2682C81.1781 13.69 81.0676 13.0715 81.0871 12.4504H90.7539V12.3511V11.4774C90.7539 8.07185 88.6533 5.83789 85.4107 5.83789ZM81.1585 10.9909C81.2835 9.99321 81.7804 9.07498 82.5549 8.41056C83.3293 7.74614 84.3275 7.38181 85.3597 7.38677C86.9504 7.38677 88.7043 8.32006 88.8471 10.9909H81.1585ZM97.8403 5.97754C98.0952 6.07683 98.2889 6.07683 98.5439 6.07683H98.5949V7.81435H98.4929C98.2929 7.79464 98.0913 7.79464 97.8913 7.81435C96.2903 7.81435 94.9443 9.02565 94.3427 10.922C94.0857 11.6816 93.9515 12.4754 93.945 13.2751V18.4778H92.0484V18.3785V6.07683H93.894V8.84693C94.1686 8.03137 94.6949 7.31817 95.4012 6.80464C96.1074 6.29111 96.9592 6.00227 97.8403 5.97754Z" fill="black"/>
</svg>
