<svg width="16" height="16" viewBox="0 0 16 16" fill="none" xmlns="http://www.w3.org/2000/svg">
<path fill-rule="evenodd" clip-rule="evenodd" d="M8.33333 13.5712C11.2261 13.5712 13.5712 11.2261 13.5712 8.33333C13.5712 5.44056 11.2261 3.0955 8.33333 3.0955C5.44056 3.0955 3.0955 5.44056 3.0955 8.33333C3.0955 11.2261 5.44056 13.5712 8.33333 13.5712ZM8.33333 14.6667C11.8311 14.6667 14.6667 11.8311 14.6667 8.33333C14.6667 4.83553 11.8311 2 8.33333 2C4.83553 2 2 4.83553 2 8.33333C2 11.8311 4.83553 14.6667 8.33333 14.6667Z" fill="#929292"/>
<path d="M9.84658 5.67067C9.84658 5.25035 9.50833 4.90991 9.09073 4.90991C8.67312 4.90991 8.33488 5.25035 8.33488 5.67067C8.33488 6.09099 8.67312 6.43143 9.09073 6.43143C9.50833 6.43143 9.84658 6.09099 9.84658 5.67067Z" fill="#929292"/>
<path d="M9.64181 11.4396C9.67865 11.425 9.717 11.4097 9.757 11.3939L9.8564 10.9854C9.52004 11.1451 8.78045 11.3034 8.78045 10.6632C8.78045 10.497 8.85188 10.1535 8.89798 9.99181C8.97996 9.6997 9.04595 9.4663 9.09927 9.27773C9.31436 8.517 9.32319 8.48579 9.34318 8.27211C9.3564 8.12681 9.36321 8.02563 9.36321 7.96819C9.36321 7.35426 8.89042 7.02903 8.24417 7.02903C7.81447 7.02903 7.31108 7.22873 6.91275 7.39191L6.81335 7.80006C7.08924 7.6966 7.56353 7.57298 7.76723 7.76849C7.97094 7.96401 7.82543 8.52126 7.75363 8.794L7.38175 10.1189C7.25817 10.6362 7.19166 11.1413 7.58659 11.4913C7.78651 11.6682 8.06693 11.7568 8.42747 11.7568C8.8432 11.7568 9.04539 11.6765 9.64181 11.4396Z" fill="#929292"/>
</svg>
