<svg width="48" height="48" viewBox="0 0 48 48" fill="none" xmlns="http://www.w3.org/2000/svg">
<mask id="path-1-inside-1_262_608" fill="white">
<path d="M24 1.96762C24 0.880934 24.8824 -0.00838133 25.9654 0.0806104C28.8497 0.317605 31.6729 1.07482 34.2968 2.32106C37.5143 3.84926 40.3513 6.07448 42.6019 8.8353C44.8526 11.5961 46.4605 14.8233 47.3091 18.2827C48.001 21.1039 48.1738 24.0218 47.8248 26.8946C47.6937 27.9734 46.6449 28.6585 45.5805 28.4395V28.4395C44.5161 28.2205 43.8409 27.1801 43.9546 26.0994C44.1964 23.8014 44.0399 21.4739 43.4871 19.2202C42.7777 16.328 41.4334 13.63 39.5518 11.3218C37.6702 9.0137 35.2984 7.15335 32.6084 5.87572C30.5123 4.88015 28.264 4.25787 25.9645 4.03164C24.883 3.92524 24 3.05431 24 1.96762V1.96762Z"/>
</mask>
<path d="M24 1.96762C24 0.880934 24.8824 -0.00838133 25.9654 0.0806104C28.8497 0.317605 31.6729 1.07482 34.2968 2.32106C37.5143 3.84926 40.3513 6.07448 42.6019 8.8353C44.8526 11.5961 46.4605 14.8233 47.3091 18.2827C48.001 21.1039 48.1738 24.0218 47.8248 26.8946C47.6937 27.9734 46.6449 28.6585 45.5805 28.4395V28.4395C44.5161 28.2205 43.8409 27.1801 43.9546 26.0994C44.1964 23.8014 44.0399 21.4739 43.4871 19.2202C42.7777 16.328 41.4334 13.63 39.5518 11.3218C37.6702 9.0137 35.2984 7.15335 32.6084 5.87572C30.5123 4.88015 28.264 4.25787 25.9645 4.03164C24.883 3.92524 24 3.05431 24 1.96762V1.96762Z" stroke="black" stroke-width="8" mask="url(#path-1-inside-1_262_608)"/>
</svg>
