<svg width="101" height="100" viewBox="0 0 101 100" fill="none" xmlns="http://www.w3.org/2000/svg">
<g opacity="0.6" filter="url(#filter0_d_11367_15301)">
<path opacity="0.7" d="M61.3462 25.2036L73.441 68.6819C73.8363 70.1838 72.9667 71.6858 71.4648 72.0811L28.8561 83.3854C27.3541 83.7807 25.8521 82.9111 25.4569 81.4091L10.5952 25.2827C10.1999 23.7807 11.0695 22.2787 12.5715 21.8834L43.4015 13.7411L61.3462 25.2036Z" fill="white" stroke="#D8DCE5" stroke-width="0.8" stroke-miterlimit="10"/>
<path d="M43.4014 13.7412L46.5634 25.757C47.0377 27.4171 48.8559 28.4447 50.516 27.9704L61.346 25.2036" fill="#D6DCE8"/>
<path d="M90.2826 36.4565L83.0098 81.0415C82.7727 82.5435 81.2707 83.5711 79.7687 83.2549L36.4486 75.666C34.9466 75.4288 33.9189 73.9269 34.1561 72.4249L44.1956 15.2707C44.4328 13.7688 45.9348 12.7411 47.4367 13.0573L78.8992 18.5909L90.2826 36.4565Z" fill="white" stroke="#D8DCE6" stroke-width="0.8" stroke-miterlimit="10"/>
<path d="M66.8832 41.1288L46.0927 37.4924C45.6184 37.4134 45.3022 36.9391 45.3812 36.4648C45.4603 35.9905 45.9346 35.6743 46.4089 35.7533L67.1994 39.3897C67.6737 39.4687 67.9899 39.943 67.9109 40.4173C67.8318 40.8126 67.3575 41.2079 66.8832 41.1288Z" fill="#D8DCE5"/>
<path d="M49.1055 24.2986C48.8611 23.9642 48.3918 23.8913 48.0574 24.1357C47.723 24.3801 47.6501 24.8494 47.8945 25.1838L49.1055 24.2986ZM72.8846 25.3851C73.2402 25.1727 73.3563 24.7123 73.1439 24.3567C72.9315 24.001 72.4711 23.8849 72.1154 24.0973L72.8846 25.3851ZM61.9141 30.0165L61.3125 30.4642L61.9141 30.0165ZM58.5168 25.4513L57.9152 25.8991L58.5168 25.4513ZM50.7638 27.8385L50.1583 28.2811L50.7638 27.8385ZM47.8945 25.1838L50.1583 28.2811L51.3693 27.396L49.1055 24.2986L47.8945 25.1838ZM52.4378 28.7687L57.5908 25.8312L56.8479 24.528L51.695 27.4656L52.4378 28.7687ZM57.9152 25.8991L61.3125 30.4642L62.5158 29.5687L59.1185 25.0036L57.9152 25.8991ZM63.6137 30.9219L72.8846 25.3851L72.1154 24.0973L62.8446 29.6341L63.6137 30.9219ZM61.3125 30.4642C61.8485 31.1845 62.8428 31.3823 63.6137 30.9219L62.8446 29.6341C62.7344 29.6999 62.5924 29.6716 62.5158 29.5687L61.3125 30.4642ZM57.5908 25.8312C57.7006 25.7686 57.8397 25.7977 57.9152 25.8991L59.1185 25.0036C58.5905 24.2941 57.6162 24.0901 56.8479 24.528L57.5908 25.8312ZM50.1583 28.2811C50.6836 28.9997 51.6646 29.2096 52.4378 28.7687L51.695 27.4656C51.5845 27.5286 51.4444 27.4986 51.3693 27.396L50.1583 28.2811Z" fill="#D8DCE5"/>
<path d="M53.2078 43.8167L45.2236 42.3938C44.7493 42.3148 44.4331 41.8405 44.5121 41.3661C44.5912 40.8918 45.0655 40.5756 45.5398 40.6547L53.4449 42.0776C53.9192 42.1567 54.2354 42.631 54.1564 43.1053C54.0773 43.5796 53.603 43.8958 53.2078 43.8167Z" fill="#D8DCE5"/>
<path d="M78.8197 18.591L76.6853 30.8439C76.3691 32.5831 77.6339 34.2431 79.3731 34.5594L90.2822 36.4566" fill="#D8DCE5"/>
<path d="M65.1523 79.4071C72.8843 79.4071 79.1523 73.1391 79.1523 65.4071C79.1523 57.6751 72.8843 51.4071 65.1523 51.4071C57.4204 51.4071 51.1523 57.6751 51.1523 65.4071C51.1523 73.1391 57.4204 79.4071 65.1523 79.4071Z" fill="white"/>
<path d="M88.1572 88C87.6082 88 87.0593 87.7781 86.6201 87.2788L77.4529 78.0139L77.1235 78.2358C74.1592 80.4549 70.7009 81.62 67.1877 81.62C62.9609 81.62 58.7341 79.9001 55.6051 76.9043C52.3115 73.742 50.5 69.4702 50.5 64.81C50.5 55.5451 57.9656 48 67.1328 48C73.3907 48 78.8801 51.3287 81.8444 56.9875C84.7537 62.5908 84.3695 69.1373 80.8014 74.4078L80.5818 74.7406L89.804 84.061C90.7372 85.0042 90.5176 85.9473 90.3529 86.4466C89.9138 87.3343 89.0355 88 88.1572 88ZM67.1328 52.6047C60.4358 52.6047 55.0562 58.0971 55.0562 64.81C55.0562 72.466 61.2592 77.0707 67.2975 77.0707C70.9754 77.0707 74.3239 75.4064 76.6844 72.4105C79.5937 68.749 80.0878 63.8114 78.0567 59.5395C75.9707 55.2677 71.7988 52.6047 67.1328 52.6047Z" fill="#E2E6EF" stroke="#CBD1DD" stroke-width="0.8" stroke-miterlimit="10"/>
</g>
<defs>
<filter id="filter0_d_11367_15301" x="4.09961" y="8.59998" width="92.8008" height="87.8" filterUnits="userSpaceOnUse" color-interpolation-filters="sRGB">
<feFlood flood-opacity="0" result="BackgroundImageFix"/>
<feColorMatrix in="SourceAlpha" type="matrix" values="0 0 0 0 0 0 0 0 0 0 0 0 0 0 0 0 0 0 127 0" result="hardAlpha"/>
<feOffset dy="2"/>
<feGaussianBlur stdDeviation="3"/>
<feColorMatrix type="matrix" values="0 0 0 0 0.397708 0 0 0 0 0.47749 0 0 0 0 0.575 0 0 0 0.05 0"/>
<feBlend mode="normal" in2="BackgroundImageFix" result="effect1_dropShadow_11367_15301"/>
<feBlend mode="normal" in="SourceGraphic" in2="effect1_dropShadow_11367_15301" result="shape"/>
</filter>
</defs>
</svg>
