<svg width="24" height="24" viewBox="0 0 24 24" fill="none" xmlns="http://www.w3.org/2000/svg">
<path d="M17.1516 18.7829C17.3078 18.9392 17.561 18.9392 17.7173 18.7829L18.2829 18.2173C18.4391 18.061 18.4391 17.8078 18.2829 17.6516L13.1315 12.5001L18.2829 7.34863C18.4391 7.19242 18.4391 6.93915 18.2829 6.78294L17.7173 6.21726C17.561 6.06105 17.3078 6.06104 17.1516 6.21725L12.0001 11.3687L6.84863 6.21725C6.69242 6.06104 6.43915 6.06105 6.28294 6.21726L5.71726 6.78294C5.56105 6.93915 5.56105 7.19242 5.71725 7.34863L10.8687 12.5001L5.71725 17.6516C5.56105 17.8078 5.56105 18.061 5.71726 18.2173L6.28294 18.7829C6.43915 18.9392 6.69242 18.9392 6.84863 18.7829L12.0001 13.6315L17.1516 18.7829Z" fill="black"/>
</svg>
