<svg width="24" height="24" viewBox="0 0 24 24" fill="none" xmlns="http://www.w3.org/2000/svg">
<path fill-rule="evenodd" clip-rule="evenodd" d="M14.3 5.5C14.1343 5.5 14 5.63431 14 5.8V6.8C14 6.96569 14.1343 7.1 14.3 7.1H16.0686L10.7187 12.2879C10.5985 12.4045 10.597 12.597 10.7154 12.7154L11.4225 13.4225C11.5384 13.5384 11.7258 13.5398 11.8435 13.4257L17.2 8.23137V10C17.2 10.1657 17.3343 10.3 17.5 10.3H18.5C18.6657 10.3 18.8 10.1657 18.8 10V5.5H14.3ZM10.2 7.2998C10.3657 7.2998 10.5 7.43412 10.5 7.59981V8.5998C10.5 8.76549 10.3657 8.8998 10.2 8.8998H7.19336C6.97245 8.8998 6.79336 9.07889 6.79336 9.2998L6.79336 17C6.79336 17.2209 6.97245 17.4 7.19336 17.4L15 17.4C15.2209 17.4 15.4 17.2209 15.4 17V14.0998C15.4 13.9341 15.5343 13.7998 15.7 13.7998H16.7C16.8657 13.7998 17 13.9341 17 14.0998V17C17 18.1046 16.1046 19 15 19L7.19336 19C6.08879 19 5.19336 18.1046 5.19336 17L5.19336 9.2998C5.19336 8.19524 6.0888 7.2998 7.19336 7.2998H10.2Z" fill="#929292"/>
</svg>
