<svg width="100" height="100" viewBox="0 0 100 100" fill="none" xmlns="http://www.w3.org/2000/svg">
<g opacity="0.6" filter="url(#filter0_d_2651_74683)">
<path d="M75.336 30.6285L75.9684 81.5375C75.9684 83.2767 74.5454 84.6205 72.8063 84.6205H23.1621C21.4229 84.6205 20 83.1976 20 81.5375V16.083C20 14.3439 21.4229 13 23.1621 13H59.1304L75.336 30.6285Z" fill="white" stroke="#D6DCE8" stroke-width="0.8" stroke-miterlimit="10"/>
<path d="M52.1739 23.6719H28.3795C27.8261 23.6719 27.3518 23.1975 27.3518 22.6442C27.3518 22.0908 27.8261 21.6165 28.3795 21.6165H52.1739C52.7273 21.6165 53.2016 22.0908 53.2016 22.6442C53.2016 23.1975 52.7273 23.6719 52.1739 23.6719Z" fill="#D6DCE8"/>
<path d="M37.5494 29.3637H28.3795C27.8261 29.3637 27.3518 28.8894 27.3518 28.336C27.3518 27.7827 27.8261 27.3083 28.3795 27.3083H37.4704C38.0237 27.3083 38.4981 27.7827 38.4981 28.336C38.4981 28.8894 38.0237 29.3637 37.5494 29.3637Z" fill="#D6DCE8"/>
<path d="M59.5334 13V27.0711C59.5334 29.0474 61.2726 30.6285 63.2489 30.6285H75.739" fill="#D6DCE8"/>
<path d="M76.3057 88C75.6745 88 75.0432 87.7448 74.5382 87.1706L63.9958 76.5159L63.617 76.7711C60.2081 79.3232 56.2311 80.663 52.1909 80.663C47.33 80.663 42.4692 78.6852 38.8709 75.2399C35.0832 71.6033 33 66.6907 33 61.3315C33 50.6768 41.5854 42 52.1278 42C59.3243 42 65.6371 45.828 69.046 52.3356C72.3918 58.7795 71.9499 66.3079 67.8466 72.3689L67.5941 72.7517L78.1996 83.4702C79.2728 84.5548 79.0202 85.6394 78.8309 86.2136C78.3258 87.2344 77.3158 88 76.3057 88ZM52.1278 47.2954C44.4262 47.2954 38.2396 53.6116 38.2396 61.3315C38.2396 70.1359 45.3731 75.4313 52.3171 75.4313C56.5467 75.4313 60.3975 73.5173 63.112 70.0721C66.4578 65.8613 67.0259 60.1831 64.6902 55.2705C62.2913 50.3578 57.4936 47.2954 52.1278 47.2954Z" fill="#E2E6EF" stroke="#CBD1DD" stroke-width="0.8" stroke-miterlimit="10"/>
</g>
<defs>
<filter id="filter0_d_2651_74683" x="13.6001" y="8.59998" width="71.7998" height="87.8" filterUnits="userSpaceOnUse" color-interpolation-filters="sRGB">
<feFlood flood-opacity="0" result="BackgroundImageFix"/>
<feColorMatrix in="SourceAlpha" type="matrix" values="0 0 0 0 0 0 0 0 0 0 0 0 0 0 0 0 0 0 127 0" result="hardAlpha"/>
<feOffset dy="2"/>
<feGaussianBlur stdDeviation="3"/>
<feColorMatrix type="matrix" values="0 0 0 0 0.397708 0 0 0 0 0.47749 0 0 0 0 0.575 0 0 0 0.05 0"/>
<feBlend mode="normal" in2="BackgroundImageFix" result="effect1_dropShadow_2651_74683"/>
<feBlend mode="normal" in="SourceGraphic" in2="effect1_dropShadow_2651_74683" result="shape"/>
</filter>
</defs>
</svg>
