<svg width="32" height="32" viewBox="0 0 32 32" fill="none" xmlns="http://www.w3.org/2000/svg">
<path fill-rule="evenodd" clip-rule="evenodd" d="M2 16C2 23.7313 8.26874 30 16 30C23.7313 30 30 23.7313 30 16C30 8.26874 23.7313 2 16 2C8.26874 2 2 8.26874 2 16Z" stroke="white" stroke-width="2"/>
<path fill-rule="evenodd" clip-rule="evenodd" d="M23.5658 12.2728C23.6439 12.3509 23.6439 12.4775 23.5658 12.5556L14.6415 21.4799C14.5634 21.558 14.4368 21.558 14.3587 21.4799L9.43439 16.5556C9.35629 16.4775 9.35629 16.3509 9.43439 16.2728L10.5658 15.1414C10.6439 15.0633 10.7705 15.0633 10.8486 15.1414L14.5001 18.7929L22.1515 11.1414C22.2297 11.0633 22.3563 11.0633 22.4344 11.1414L23.5658 12.2728Z" fill="white"/>
</svg>
