<svg width="100" height="100" viewBox="0 0 100 100" fill="none" xmlns="http://www.w3.org/2000/svg">
<g opacity="0.6" filter="url(#filter0_d_34_2648)">
<path opacity="0.7" d="M60.8462 25.2037L72.941 68.6819C73.3363 70.1839 72.4667 71.6859 70.9648 72.0811L28.3561 83.3855C26.8541 83.7807 25.3521 82.9112 24.9569 81.4092L10.0952 25.2827C9.69995 23.7807 10.5695 22.2788 12.0715 21.8835L42.9015 13.7412L60.8462 25.2037Z" fill="white" stroke="#D8DCE5" stroke-width="0.8" stroke-miterlimit="10"/>
<path d="M42.9016 13.7412L46.0637 25.757C46.538 27.4171 48.3562 28.4448 50.0162 27.9705L60.8463 25.2037" fill="#D6DCE8"/>
<path d="M89.7826 36.4565L82.5098 81.0415C82.2727 82.5435 80.7707 83.5711 79.2687 83.2549L35.9486 75.666C34.4466 75.4288 33.4189 73.9269 33.6561 72.4249L43.6956 15.2707C43.9328 13.7688 45.4348 12.7411 46.9367 13.0573L78.3992 18.5909L89.7826 36.4565Z" fill="white" stroke="#D8DCE6" stroke-width="0.8" stroke-miterlimit="10"/>
<path d="M66.3832 41.1288L45.5927 37.4924C45.1184 37.4134 44.8022 36.9391 44.8812 36.4648C44.9603 35.9905 45.4346 35.6743 45.9089 35.7533L66.6994 39.3897C67.1737 39.4687 67.4899 39.943 67.4109 40.4173C67.3318 40.8126 66.8575 41.2079 66.3832 41.1288Z" fill="#D8DCE5"/>
<path d="M48.605 24.2986C48.3606 23.9642 47.8914 23.8913 47.5569 24.1357C47.2225 24.3801 47.1496 24.8494 47.394 25.1838L48.605 24.2986ZM72.3841 25.3851C72.7397 25.1727 72.8558 24.7123 72.6434 24.3567C72.431 24.001 71.9706 23.8849 71.615 24.0973L72.3841 25.3851ZM61.4137 30.0165L60.812 30.4642L61.4137 30.0165ZM58.0164 25.4513L57.4147 25.8991L58.0164 25.4513ZM50.2633 27.8385L49.6578 28.2811L50.2633 27.8385ZM47.394 25.1838L49.6578 28.2811L50.8688 27.396L48.605 24.2986L47.394 25.1838ZM51.9374 28.7687L57.0903 25.8312L56.3474 24.528L51.1945 27.4656L51.9374 28.7687ZM57.4147 25.8991L60.812 30.4642L62.0153 29.5687L58.618 25.0036L57.4147 25.8991ZM63.1132 30.9219L72.3841 25.3851L71.615 24.0973L62.3441 29.6341L63.1132 30.9219ZM60.812 30.4642C61.348 31.1845 62.3423 31.3823 63.1132 30.9219L62.3441 29.6341C62.2339 29.6999 62.0919 29.6716 62.0153 29.5687L60.812 30.4642ZM57.0903 25.8312C57.2001 25.7686 57.3393 25.7977 57.4147 25.8991L58.618 25.0036C58.0901 24.2941 57.1157 24.0901 56.3474 24.528L57.0903 25.8312ZM49.6578 28.2811C50.1831 28.9997 51.1641 29.2096 51.9374 28.7687L51.1945 27.4656C51.084 27.5286 50.9439 27.4986 50.8688 27.396L49.6578 28.2811Z" fill="#D8DCE5"/>
<path d="M52.7073 43.8167L44.7231 42.3938C44.2488 42.3148 43.9326 41.8405 44.0116 41.3661C44.0907 40.8918 44.565 40.5756 45.0393 40.6547L52.9444 42.0776C53.4187 42.1567 53.7349 42.631 53.6559 43.1053C53.5768 43.5796 53.1025 43.8958 52.7073 43.8167Z" fill="#D8DCE5"/>
<path d="M78.3202 18.5911L76.1858 30.844C75.8696 32.5832 77.1344 34.2432 78.8736 34.5594L89.7826 36.4567" fill="#D8DCE5"/>
<path d="M64.6526 79.407C72.3846 79.407 78.6526 73.139 78.6526 65.407C78.6526 57.675 72.3846 51.407 64.6526 51.407C56.9206 51.407 50.6526 57.675 50.6526 65.407C50.6526 73.139 56.9206 79.407 64.6526 79.407Z" fill="white"/>
<path d="M87.6572 88C87.1082 88 86.5593 87.7781 86.1201 87.2788L76.9529 78.0139L76.6235 78.2358C73.6592 80.4549 70.2009 81.62 66.6877 81.62C62.4609 81.62 58.2341 79.9001 55.1051 76.9043C51.8115 73.742 50 69.4702 50 64.81C50 55.5451 57.4656 48 66.6328 48C72.8907 48 78.3801 51.3287 81.3444 56.9875C84.2537 62.5908 83.8695 69.1373 80.3014 74.4078L80.0818 74.7406L89.304 84.061C90.2372 85.0042 90.0176 85.9473 89.8529 86.4466C89.4138 87.3343 88.5355 88 87.6572 88ZM66.6328 52.6047C59.9358 52.6047 54.5562 58.0971 54.5562 64.81C54.5562 72.466 60.7592 77.0707 66.7975 77.0707C70.4754 77.0707 73.8239 75.4064 76.1844 72.4105C79.0937 68.749 79.5878 63.8114 77.5567 59.5395C75.4707 55.2677 71.2988 52.6047 66.6328 52.6047Z" fill="#E2E6EF" stroke="#CBD1DD" stroke-width="0.8" stroke-miterlimit="10"/>
</g>
<defs>
<filter id="filter0_d_34_2648" x="3.59985" y="8.59985" width="92.8" height="87.8" filterUnits="userSpaceOnUse" color-interpolation-filters="sRGB">
<feFlood flood-opacity="0" result="BackgroundImageFix"/>
<feColorMatrix in="SourceAlpha" type="matrix" values="0 0 0 0 0 0 0 0 0 0 0 0 0 0 0 0 0 0 127 0" result="hardAlpha"/>
<feOffset dy="2"/>
<feGaussianBlur stdDeviation="3"/>
<feColorMatrix type="matrix" values="0 0 0 0 0.397708 0 0 0 0 0.47749 0 0 0 0 0.575 0 0 0 0.05 0"/>
<feBlend mode="normal" in2="BackgroundImageFix" result="effect1_dropShadow_34_2648"/>
<feBlend mode="normal" in="SourceGraphic" in2="effect1_dropShadow_34_2648" result="shape"/>
</filter>
</defs>
</svg>
