<svg width="49" height="48" viewBox="0 0 49 48" fill="none" xmlns="http://www.w3.org/2000/svg">
<path fill-rule="evenodd" clip-rule="evenodd" d="M43.5 24C43.5 34.4934 34.9934 43 24.5 43C14.0066 43 5.5 34.4934 5.5 24C5.5 13.5066 14.0066 5 24.5 5C34.9934 5 43.5 13.5066 43.5 24ZM40.3 24C40.3 32.7261 33.2261 39.8 24.5 39.8C15.7739 39.8 8.7 32.7261 8.7 24C8.7 15.2739 15.7739 8.2 24.5 8.2C33.2261 8.2 40.3 15.2739 40.3 24ZM21.5 17.2C21.5 17.0895 21.5895 17 21.7 17H24.5C24.6105 17 24.7 17.0895 24.7 17.2L24.7 23.8H31.3C31.4105 23.8 31.5 23.8895 31.5 24V26.8C31.5 26.9105 31.4105 27 31.3 27H24.5H21.7C21.5895 27 21.5 26.9105 21.5 26.8V24L21.5 17.2Z" fill="#929292"/>
</svg>
