<svg width="32" height="32" viewBox="0 0 32 32" fill="none" xmlns="http://www.w3.org/2000/svg">
<path d="M0 16C0 7.16344 7.16344 0 16 0C24.8366 0 32 7.16344 32 16C32 24.8366 24.8366 32 16 32C7.16344 32 0 24.8366 0 16Z" fill="#F9F9F9"/>
<rect x="9.5" y="12.6666" width="13" height="10.8333" rx="1" stroke="black" stroke-width="1.6"/>
<path d="M11.95 9.95825C11.95 10.4001 12.3082 10.7583 12.75 10.7583C13.1918 10.7583 13.55 10.4001 13.55 9.95825H11.95ZM18.45 12.1249C18.45 12.5667 18.8082 12.9249 19.25 12.9249C19.6918 12.9249 20.05 12.5667 20.05 12.1249H18.45ZM13.55 9.95825C13.55 9.95818 13.55 9.95812 13.55 9.95805C13.55 9.95798 13.55 9.95791 13.55 9.95784C13.55 9.95778 13.55 9.95771 13.55 9.95764C13.55 9.95757 13.55 9.9575 13.55 9.95744C13.55 9.95737 13.55 9.9573 13.55 9.95723C13.55 9.95716 13.55 9.95709 13.55 9.95703C13.55 9.95696 13.55 9.95689 13.55 9.95682C13.55 9.95675 13.55 9.95668 13.55 9.95662C13.55 9.95655 13.55 9.95648 13.55 9.95641C13.55 9.95634 13.55 9.95627 13.55 9.95621C13.55 9.95614 13.55 9.95607 13.55 9.956C13.55 9.95593 13.55 9.95586 13.55 9.95579C13.55 9.95572 13.55 9.95566 13.55 9.95559C13.55 9.95552 13.55 9.95545 13.55 9.95538C13.55 9.95531 13.55 9.95524 13.55 9.95517C13.55 9.95511 13.55 9.95504 13.55 9.95497C13.55 9.9549 13.55 9.95483 13.55 9.95476C13.55 9.95469 13.55 9.95462 13.55 9.95455C13.55 9.95448 13.55 9.95442 13.55 9.95435C13.55 9.95428 13.55 9.95421 13.55 9.95414C13.55 9.95407 13.55 9.954 13.55 9.95393C13.55 9.95386 13.55 9.95379 13.55 9.95372C13.55 9.95365 13.55 9.95358 13.55 9.95351C13.55 9.95344 13.55 9.95338 13.55 9.95331C13.55 9.95324 13.55 9.95317 13.55 9.9531C13.55 9.95303 13.55 9.95296 13.55 9.95289C13.55 9.95282 13.55 9.95275 13.55 9.95268C13.55 9.95261 13.55 9.95254 13.55 9.95247C13.55 9.9524 13.55 9.95233 13.55 9.95226C13.55 9.95219 13.55 9.95212 13.55 9.95205C13.55 9.95198 13.55 9.95191 13.55 9.95184C13.55 9.95177 13.55 9.9517 13.55 9.95163C13.55 9.95156 13.55 9.95149 13.55 9.95142C13.55 9.95135 13.55 9.95128 13.55 9.95121C13.55 9.95114 13.55 9.95107 13.55 9.951C13.55 9.95093 13.55 9.95086 13.55 9.95079C13.55 9.95072 13.55 9.95065 13.55 9.95058C13.55 9.95051 13.55 9.95044 13.55 9.95037C13.55 9.9503 13.55 9.95023 13.55 9.95016C13.55 9.95008 13.55 9.95001 13.55 9.94994C13.55 9.94987 13.55 9.9498 13.55 9.94973C13.55 9.94966 13.55 9.94959 13.55 9.94952C13.55 9.94945 13.55 9.94938 13.55 9.94931C13.55 9.94924 13.55 9.94917 13.55 9.94909C13.55 9.94902 13.55 9.94895 13.55 9.94888C13.55 9.94881 13.55 9.94874 13.55 9.94867C13.55 9.9486 13.55 9.94853 13.55 9.94846C13.55 9.94839 13.55 9.94831 13.55 9.94824C13.55 9.94817 13.55 9.9481 13.55 9.94803C13.55 9.94796 13.55 9.94789 13.55 9.94782C13.55 9.94774 13.55 9.94767 13.55 9.9476C13.55 9.94753 13.55 9.94746 13.55 9.94739C13.55 9.94732 13.55 9.94725 13.55 9.94717C13.55 9.9471 13.55 9.94703 13.55 9.94696C13.55 9.94689 13.55 9.94682 13.55 9.94674C13.55 9.94667 13.55 9.9466 13.55 9.94653C13.55 9.94646 13.55 9.94639 13.55 9.94631C13.55 9.94624 13.55 9.94617 13.55 9.9461C13.55 9.94603 13.55 9.94596 13.55 9.94588C13.55 9.94581 13.55 9.94574 13.55 9.94567C13.55 9.9456 13.55 9.94552 13.55 9.94545C13.55 9.94538 13.55 9.94531 13.55 9.94524C13.55 9.94516 13.55 9.94509 13.55 9.94502C13.55 9.94495 13.55 9.94488 13.55 9.9448C13.55 9.94473 13.55 9.94466 13.55 9.94459C13.55 9.94451 13.55 9.94444 13.55 9.94437C13.55 9.9443 13.55 9.94423 13.55 9.94415C13.55 9.94408 13.55 9.94401 13.55 9.94394C13.55 9.94386 13.55 9.94379 13.55 9.94372C13.55 9.94365 13.55 9.94357 13.55 9.9435C13.55 9.94343 13.55 9.94336 13.55 9.94328C13.55 9.94321 13.55 9.94314 13.55 9.94306C13.55 9.94299 13.55 9.94292 13.55 9.94285C13.55 9.94277 13.55 9.9427 13.55 9.94263C13.55 9.94255 13.55 9.94248 13.55 9.94241C13.55 9.94234 13.55 9.94226 13.55 9.94219C13.55 9.94212 13.55 9.94204 13.55 9.94197C13.55 9.9419 13.55 9.94182 13.55 9.94175C13.55 9.94168 13.55 9.94161 13.55 9.94153C13.55 9.94146 13.55 9.94139 13.55 9.94131C13.55 9.94124 13.55 9.94117 13.55 9.94109C13.55 9.94102 13.55 9.94095 13.55 9.94087C13.55 9.9408 13.55 9.94073 13.55 9.94065C13.55 9.94058 13.55 9.94051 13.55 9.94043C13.55 9.94036 13.55 9.94028 13.55 9.94021C13.55 9.94014 13.55 9.94006 13.55 9.93999C13.55 9.93992 13.55 9.93984 13.55 9.93977C13.55 9.9397 13.55 9.93962 13.55 9.93955C13.55 9.93947 13.55 9.9394 13.55 9.93933C13.55 9.93925 13.55 9.93918 13.55 9.9391C13.55 9.93903 13.55 9.93896 13.55 9.93888C13.55 9.93881 13.55 9.93873 13.55 9.93866C13.55 9.93859 13.55 9.93851 13.55 9.93844C13.55 9.93836 13.55 9.93829 13.55 9.93822C13.55 9.93814 13.55 9.93807 13.55 9.93799C13.55 9.93792 13.55 9.93784 13.55 9.93777C13.55 9.9377 13.55 9.93762 13.55 9.93755C13.55 9.93747 13.55 9.9374 13.55 9.93732C13.55 9.93725 13.55 9.93718 13.55 9.9371C13.55 9.93703 13.55 9.93695 13.55 9.93688C13.55 9.9368 13.55 9.93673 13.55 9.93665C13.55 9.93658 13.55 9.9365 13.55 9.93643C13.55 9.93635 13.55 9.93628 13.55 9.9362C13.55 9.93613 13.55 9.93605 13.55 9.93598C13.55 9.93591 13.55 9.93583 13.55 9.93576C13.55 9.93568 13.55 9.93561 13.55 9.93553C13.55 9.93546 13.55 9.93538 13.55 9.93531C13.55 9.93523 13.55 9.93516 13.55 9.93508C13.55 9.93501 13.55 9.93493 13.55 9.93485C13.55 9.93478 13.55 9.9347 13.55 9.93463C13.55 9.93455 13.55 9.93448 13.55 9.9344C13.55 9.93433 13.55 9.93425 13.55 9.93418C13.55 9.9341 13.55 9.93403 13.55 9.93395C13.55 9.93388 13.55 9.9338 13.55 9.93372C13.55 9.93365 13.55 9.93357 13.55 9.9335C13.55 9.93342 13.55 9.93335 13.55 9.93327C13.55 9.9332 13.55 9.93312 13.55 9.93304C13.55 9.93297 13.55 9.93289 13.55 9.93282C13.55 9.93274 13.55 9.93267 13.55 9.93259C13.55 9.93251 13.55 9.93244 13.55 9.93236C13.55 9.93229 13.55 9.93221 13.55 9.93213C13.55 9.93206 13.55 9.93198 13.55 9.93191C13.55 9.93183 13.55 9.93175 13.55 9.93168C13.55 9.9316 13.55 9.93153 13.55 9.93145C13.55 9.93137 13.55 9.9313 13.55 9.93122C13.55 9.93114 13.55 9.93107 13.55 9.93099C13.55 9.93092 13.55 9.93084 13.55 9.93076C13.55 9.93069 13.55 9.93061 13.55 9.93053C13.55 9.93046 13.55 9.93038 13.55 9.9303C13.55 9.93023 13.55 9.93015 13.55 9.93007C13.55 9.93 13.55 9.92992 13.55 9.92985C13.55 9.92977 13.55 9.92969 13.55 9.92962C13.55 9.92954 13.55 9.92946 13.55 9.92938C13.55 9.92931 13.55 9.92923 13.55 9.92915C13.55 9.92908 13.55 9.929 13.55 9.92892C13.55 9.92885 13.55 9.92877 13.55 9.92869C13.55 9.92862 13.55 9.92854 13.55 9.92846C13.55 9.92839 13.55 9.92831 13.55 9.92823C13.55 9.92815 13.55 9.92808 13.55 9.928C13.55 9.92792 13.55 9.92785 13.55 9.92777C13.55 9.92769 13.55 9.92761 13.55 9.92754C13.55 9.92746 13.55 9.92738 13.55 9.9273C13.55 9.92723 13.55 9.92715 13.55 9.92707C13.55 9.92699 13.55 9.92692 13.55 9.92684C13.55 9.92676 13.55 9.92668 13.55 9.92661C13.55 9.92653 13.55 9.92645 13.55 9.92637C13.55 9.9263 13.55 9.92622 13.55 9.92614C13.55 9.92606 13.55 9.92599 13.55 9.92591C13.55 9.92583 13.55 9.92575 13.55 9.92568C13.55 9.9256 13.55 9.92552 13.55 9.92544C13.55 9.92536 13.55 9.92529 13.55 9.92521C13.55 9.92513 13.55 9.92505 13.55 9.92497C13.55 9.9249 13.55 9.92482 13.55 9.92474C13.55 9.92466 13.55 9.92458 13.55 9.92451C13.55 9.92443 13.55 9.92435 13.55 9.92427C13.55 9.92419 13.55 9.92411 13.55 9.92404C13.55 9.92396 13.55 9.92388 13.55 9.9238C13.55 9.92372 13.55 9.92365 13.55 9.92357C13.55 9.92349 13.55 9.92341 13.55 9.92333C13.55 9.92325 13.55 9.92317 13.55 9.9231C13.55 9.92302 13.55 9.92294 13.55 9.92286C13.55 9.92278 13.55 9.9227 13.55 9.92262C13.55 9.92255 13.55 9.92247 13.55 9.92239C13.55 9.92231 13.55 9.92223 13.55 9.92215C13.55 9.92207 13.55 9.92199 13.55 9.92192C13.55 9.92184 13.55 9.92176 13.55 9.92168C13.55 9.9216 13.55 9.92152 13.55 9.92144C13.55 9.92136 13.55 9.92128 13.55 9.92121C13.55 9.92113 13.55 9.92105 13.55 9.92097C13.55 9.92089 13.55 9.92081 13.55 9.92073C13.55 9.92065 13.55 9.92057 13.55 9.92049C13.55 9.92041 13.55 9.92033 13.55 9.92026C13.55 9.92018 13.55 9.9201 13.55 9.92002C13.55 9.91994 13.55 9.91986 13.55 9.91978C13.55 9.9197 13.55 9.91962 13.55 9.91954C13.55 9.91946 13.55 9.91938 13.55 9.9193C13.55 9.91922 13.55 9.91914 13.55 9.91906C13.55 9.91898 13.55 9.9189 13.55 9.91882C13.55 9.91874 13.55 9.91866 13.55 9.91859C13.55 9.91851 13.55 9.91843 13.55 9.91835C13.55 9.91827 13.55 9.91819 13.55 9.91811C13.55 9.91803 13.55 9.91795 13.55 9.91787C13.55 9.91779 13.55 9.91771 13.55 9.91763C13.55 9.91755 13.55 9.91747 13.55 9.91739C13.55 9.91731 13.55 9.91723 13.55 9.91715C13.55 9.91707 13.55 9.91699 13.55 9.91691C13.55 9.91683 13.55 9.91674 13.55 9.91666C13.55 9.91658 13.55 9.9165 13.55 9.91642C13.55 9.91634 13.55 9.91626 13.55 9.91618C13.55 9.9161 13.55 9.91602 13.55 9.91594C13.55 9.91586 13.55 9.91578 13.55 9.9157C13.55 9.91562 13.55 9.91554 13.55 9.91546C13.55 9.91538 13.55 9.9153 13.55 9.91522C13.55 9.91514 13.55 9.91506 13.55 9.91497C13.55 9.91489 13.55 9.91481 13.55 9.91473C13.55 9.91465 13.55 9.91457 13.55 9.91449C13.55 9.91441 13.55 9.91433 13.55 9.91425C13.55 9.91417 13.55 9.91409 13.55 9.914C13.55 9.91392 13.55 9.91384 13.55 9.91376C13.55 9.91368 13.55 9.9136 13.55 9.91352C13.55 9.91344 13.55 9.91336 13.55 9.91327C13.55 9.91319 13.55 9.91311 13.55 9.91303C13.55 9.91295 13.55 9.91287 13.55 9.91279C13.55 9.91271 13.55 9.91262 13.55 9.91254C13.55 9.91246 13.55 9.91238 13.55 9.9123C13.55 9.91222 13.55 9.91214 13.55 9.91205C13.55 9.91197 13.55 9.91189 13.55 9.91181C13.55 9.91173 13.55 9.91165 13.55 9.91157C13.55 9.91148 13.55 9.9114 13.55 9.91132C13.55 9.91124 13.55 9.91116 13.55 9.91108C13.55 9.91099 13.55 9.91091 13.55 9.91083C13.55 9.91075 13.55 9.91067 13.55 9.91058C13.55 9.9105 13.55 9.91042 13.55 9.91034C13.55 9.91026 13.55 9.91017 13.55 9.91009C13.55 9.91001 13.55 9.90993 13.55 9.90985C13.55 9.90976 13.55 9.90968 13.55 9.9096C13.55 9.90952 13.55 9.90944 13.55 9.90935C13.55 9.90927 13.55 9.90919 13.55 9.90911C13.55 9.90902 13.55 9.90894 13.55 9.90886C13.55 9.90878 13.55 9.9087 13.55 9.90861C13.55 9.90853 13.55 9.90845 13.55 9.90837C13.55 9.90828 13.55 9.9082 13.55 9.90812C13.55 9.90804 13.55 9.90795 13.55 9.90787C13.55 9.90779 13.55 9.90771 13.55 9.90762C13.55 9.90754 13.55 9.90746 13.55 9.90738C13.55 9.90729 13.55 9.90721 13.55 9.90713C13.55 9.90704 13.55 9.90696 13.55 9.90688C13.55 9.9068 13.55 9.90671 13.55 9.90663C13.55 9.90655 13.55 9.90646 13.55 9.90638C13.55 9.9063 13.55 9.90622 13.55 9.90613C13.55 9.90605 13.55 9.90597 13.55 9.90588C13.55 9.9058 13.55 9.90572 13.55 9.90563C13.55 9.90555 13.55 9.90547 13.55 9.90538C13.55 9.9053 13.55 9.90522 13.55 9.90513C13.55 9.90505 13.55 9.90497 13.55 9.90488C13.55 9.9048 13.55 9.90472 13.55 9.90463C13.55 9.90455 13.55 9.90447 13.55 9.90438C13.55 9.9043 13.55 9.90422 13.55 9.90413C13.55 9.90405 13.55 9.90397 13.55 9.90388C13.55 9.9038 13.55 9.90372 13.55 9.90363C13.55 9.90355 13.55 9.90346 13.55 9.90338C13.55 9.9033 13.55 9.90321 13.55 9.90313C13.55 9.90305 13.55 9.90296 13.55 9.90288C13.55 9.90279 13.55 9.90271 13.55 9.90263C13.55 9.90254 13.55 9.90246 13.55 9.90237C13.55 9.90229 13.55 9.90221 13.55 9.90212C13.55 9.90204 13.55 9.90195 13.55 9.90187C13.55 9.90179 13.55 9.9017 13.55 9.90162C13.55 9.90153 13.55 9.90145 13.55 9.90137C13.55 9.90128 13.55 9.9012 13.55 9.90111C13.55 9.90103 13.55 9.90094 13.55 9.90086C13.55 9.90078 13.55 9.90069 13.55 9.90061C13.55 9.90052 13.55 9.90044 13.55 9.90035C13.55 9.90027 13.55 9.90018 13.55 9.9001C13.55 9.90001 13.55 9.89993 13.55 9.89985C13.55 9.89976 13.55 9.89968 13.55 9.89959C13.55 9.89951 13.55 9.89942 13.55 9.89934C13.55 9.89925 13.55 9.89917 13.55 9.89908C13.55 9.899 13.55 9.89891 13.55 9.89883C13.55 9.89874 13.55 9.89866 13.55 9.89857C13.55 9.89849 13.55 9.8984 13.55 9.89832C13.55 9.89823 13.55 9.89815 13.55 9.89806C13.55 9.89798 13.55 9.89789 13.55 9.89781C13.55 9.89772 13.55 9.89764 13.55 9.89755C13.55 9.89747 13.55 9.89738 13.55 9.8973C13.55 9.89721 13.55 9.89713 13.55 9.89704C13.55 9.89696 13.55 9.89687 13.55 9.89679C13.55 9.8967 13.55 9.89662 13.55 9.89653C13.55 9.89644 13.55 9.89636 13.55 9.89627C13.55 9.89619 13.55 9.8961 13.55 9.89602C13.55 9.89593 13.55 9.89585 13.55 9.89576C13.55 9.89567 13.55 9.89559 13.55 9.8955C13.55 9.89542 13.55 9.89533 13.55 9.89525C13.55 9.89516 13.55 9.89507 13.55 9.89499C13.55 9.8949 13.55 9.89482 13.55 9.89473C13.55 9.89465 13.55 9.89456 13.55 9.89447C13.55 9.89439 13.55 9.8943 13.55 9.89422C13.55 9.89413 13.55 9.89404 13.55 9.89396C13.55 9.89387 13.55 9.89379 13.55 9.8937C13.55 9.89361 13.55 9.89353 13.55 9.89344C13.55 9.89335 13.55 9.89327 13.55 9.89318C13.55 9.8931 13.55 9.89301 13.55 9.89292C13.55 9.89284 13.55 9.89275 13.55 9.89266C13.55 9.89258 13.55 9.89249 13.55 9.89241C13.55 9.89232 13.55 9.89223 13.55 9.89215C13.55 9.89206 13.55 9.89197 13.55 9.89189C13.55 9.8918 13.55 9.89171 13.55 9.89163C13.55 9.89154 13.55 9.89145 13.55 9.89137C13.55 9.89128 13.55 9.89119 13.55 9.89111C13.55 9.89102 13.55 9.89093 13.55 9.89085C13.55 9.89076 13.55 9.89067 13.55 9.89059C13.55 9.8905 13.55 9.89041 13.55 9.89033C13.55 9.89024 13.55 9.89015 13.55 9.89006C13.55 9.88998 13.55 9.88989 13.55 9.8898C13.55 9.88972 13.55 9.88963 13.55 9.88954C13.55 9.88945 13.55 9.88937 13.55 9.88928C13.55 9.88919 13.55 9.88911 13.55 9.88902C13.55 9.88893 13.55 9.88884 13.55 9.88876C13.55 9.88867 13.55 9.88858 13.55 9.88849C13.55 9.88841 13.55 9.88832 13.55 9.88823C13.55 9.88815 13.55 9.88806 13.55 9.88797C13.55 9.88788 13.55 9.8878 13.55 9.88771C13.55 9.88762 13.55 9.88753 13.55 9.88744C13.55 9.88736 13.55 9.88727 13.55 9.88718C13.55 9.88709 13.55 9.88701 13.55 9.88692C13.55 9.88683 13.55 9.88674 13.55 9.88666C13.55 9.88657 13.55 9.88648 13.55 9.88639C13.55 9.8863 13.55 9.88622 13.55 9.88613C13.55 9.88604 13.55 9.88595 13.55 9.88586C13.55 9.88578 13.55 9.88569 13.55 9.8856C13.55 9.88551 13.55 9.88542 13.55 9.88534C13.55 9.88525 13.55 9.88516 13.55 9.88507C13.55 9.88498 13.55 9.8849 13.55 9.88481C13.55 9.88472 13.55 9.88463 13.55 9.88454C13.55 9.88445 13.55 9.88437 13.55 9.88428C13.55 9.88419 13.55 9.8841 13.55 9.88401C13.55 9.88392 13.55 9.88384 13.55 9.88375C13.55 9.88366 13.55 9.88357 13.55 9.88348C13.55 9.88339 13.55 9.8833 13.55 9.88322C13.55 9.88313 13.55 9.88304 13.55 9.88295C13.55 9.88286 13.55 9.88277 13.55 9.88268C13.55 9.88259 13.55 9.88251 13.55 9.88242C13.55 9.88233 13.55 9.88224 13.55 9.88215C13.55 9.88206 13.55 9.88197 13.55 9.88188C13.55 9.8818 13.55 9.88171 13.55 9.88162C13.55 9.88153 13.55 9.88144 13.55 9.88135C13.55 9.88126 13.55 9.88117 13.55 9.88108C13.55 9.88099 13.55 9.8809 13.55 9.88082C13.55 9.88073 13.55 9.88064 13.55 9.88055C13.55 9.88046 13.55 9.88037 13.55 9.88028C13.55 9.88019 13.55 9.8801 13.55 9.88001C13.55 9.87992 13.55 9.87983 13.55 9.87974C13.55 9.87965 13.55 9.87957 13.55 9.87948C13.55 9.87939 13.55 9.8793 13.55 9.87921C13.55 9.87912 13.55 9.87903 13.55 9.87894C13.55 9.87885 13.55 9.87876 13.55 9.87867C13.55 9.87858 13.55 9.87849 13.55 9.8784C13.55 9.87831 13.55 9.87822 13.55 9.87813C13.55 9.87804 13.55 9.87795 13.55 9.87786C13.55 9.87777 13.55 9.87768 13.55 9.87759C13.55 9.8775 13.55 9.87741 13.55 9.87732C13.55 9.87723 13.55 9.87714 13.55 9.87705C13.55 9.87696 13.55 9.87687 13.55 9.87678C13.55 9.87669 13.55 9.8766 13.55 9.87651C13.55 9.87642 13.55 9.87633 13.55 9.87624C13.55 9.87615 13.55 9.87606 13.55 9.87597C13.55 9.87588 13.55 9.87579 13.55 9.8757C13.55 9.87561 13.55 9.87552 13.55 9.87543C13.55 9.87534 13.55 9.87525 13.55 9.87516C13.55 9.87507 13.55 9.87498 13.55 9.87489C13.55 9.8748 13.55 9.8747 13.55 9.87461C13.55 9.87452 13.55 9.87443 13.55 9.87434C13.55 9.87425 13.55 9.87416 13.55 9.87407C13.55 9.87398 13.55 9.87389 13.55 9.8738C13.55 9.87371 13.55 9.87362 13.55 9.87353C13.55 9.87343 13.55 9.87334 13.55 9.87325C13.55 9.87316 13.55 9.87307 13.55 9.87298C13.55 9.87289 13.55 9.8728 13.55 9.87271C13.55 9.87262 13.55 9.87253 13.55 9.87243C13.55 9.87234 13.55 9.87225 13.55 9.87216C13.55 9.87207 13.55 9.87198 13.55 9.87189C13.55 9.8718 13.55 9.87171 13.55 9.87161C13.55 9.87152 13.55 9.87143 13.55 9.87134C13.55 9.87125 13.55 9.87116 13.55 9.87107C13.55 9.87097 13.55 9.87088 13.55 9.87079C13.55 9.8707 13.55 9.87061 13.55 9.87052C13.55 9.87043 13.55 9.87033 13.55 9.87024C13.55 9.87015 13.55 9.87006 13.55 9.86997C13.55 9.86988 13.55 9.86978 13.55 9.86969C13.55 9.8696 13.55 9.86951 13.55 9.86942C13.55 9.86933 13.55 9.86923 13.55 9.86914C13.55 9.86905 13.55 9.86896 13.55 9.86887C13.55 9.86878 13.55 9.86868 13.55 9.86859C13.55 9.8685 13.55 9.86841 13.55 9.86832C13.55 9.86822 13.55 9.86813 13.55 9.86804C13.55 9.86795 13.55 9.86786 13.55 9.86776C13.55 9.86767 13.55 9.86758 13.55 9.86749C13.55 9.86739 13.55 9.8673 13.55 9.86721C13.55 9.86712 13.55 9.86703 13.55 9.86693C13.55 9.86684 13.55 9.86675 13.55 9.86666C13.55 9.86656 13.55 9.86647 13.55 9.86638C13.55 9.86629 13.55 9.86619 13.55 9.8661C13.55 9.86601 13.55 9.86592 13.55 9.86582C13.55 9.86573 13.55 9.86564 13.55 9.86555C13.55 9.86545 13.55 9.86536 13.55 9.86527C13.55 9.86518 13.55 9.86508 13.55 9.86499C13.55 9.8649 13.55 9.86481 13.55 9.86471C13.55 9.86462 13.55 9.86453 13.55 9.86443C13.55 9.86434 13.55 9.86425 13.55 9.86416C13.55 9.86406 13.55 9.86397 13.55 9.86388C13.55 9.86378 13.55 9.86369 13.55 9.8636C13.55 9.8635 13.55 9.86341 13.55 9.86332C13.55 9.86323 13.55 9.86313 13.55 9.86304C13.55 9.86295 13.55 9.86285 13.55 9.86276C13.55 9.86267 13.55 9.86257 13.55 9.86248C13.55 9.86239 13.55 9.86229 13.55 9.8622C13.55 9.86211 13.55 9.86201 13.55 9.86192C13.55 9.86183 13.55 9.86173 13.55 9.86164C13.55 9.86155 13.55 9.86145 13.55 9.86136C13.55 9.86127 13.55 9.86117 13.55 9.86108C13.55 9.86099 13.55 9.86089 13.55 9.8608C13.55 9.8607 13.55 9.86061 13.55 9.86052C13.55 9.86042 13.55 9.86033 13.55 9.86024C13.55 9.86014 13.55 9.86005 13.55 9.85995C13.55 9.85986 13.55 9.85977 13.55 9.85967C13.55 9.85958 13.55 9.85949 13.55 9.85939C13.55 9.8593 13.55 9.8592 13.55 9.85911C13.55 9.85902 13.55 9.85892 13.55 9.85883C13.55 9.85873 13.55 9.85864 13.55 9.85855C13.55 9.85845 13.55 9.85836 13.55 9.85826C13.55 9.85817 13.55 9.85807 13.55 9.85798C13.55 9.85789 13.55 9.85779 13.55 9.8577C13.55 9.8576 13.55 9.85751 13.55 9.85741C13.55 9.85732 13.55 9.85723 13.55 9.85713C13.55 9.85704 13.55 9.85694 13.55 9.85685C13.55 9.85675 13.55 9.85666 13.55 9.85656C13.55 9.85647 13.55 9.85638 13.55 9.85628C13.55 9.85619 13.55 9.85609 13.55 9.856C13.55 9.8559 13.55 9.85581 13.55 9.85571C13.55 9.85562 13.55 9.85552 13.55 9.85543C13.55 9.85533 13.55 9.85524 13.55 9.85514C13.55 9.85505 13.55 9.85495 13.55 9.85486C13.55 9.85476 13.55 9.85467 13.55 9.85457C13.55 9.85448 13.55 9.85439 13.55 9.85429C13.55 9.8542 13.55 9.8541 13.55 9.854C13.55 9.85391 13.55 9.85381 13.55 9.85372C13.55 9.85362 13.55 9.85353 13.55 9.85343C13.55 9.85334 13.55 9.85324 13.55 9.85315C13.55 9.85305 13.55 9.85296 13.55 9.85286C13.55 9.85277 13.55 9.85267 13.55 9.85258C13.55 9.85248 13.55 9.85239 13.55 9.85229C13.55 9.8522 13.55 9.8521 13.55 9.852C13.55 9.85191 13.55 9.85181 13.55 9.85172C13.55 9.85162 13.55 9.85153 13.55 9.85143C13.55 9.85134 13.55 9.85124 13.55 9.85114C13.55 9.85105 13.55 9.85095 13.55 9.85086C13.55 9.85076 13.55 9.85067 13.55 9.85057C13.55 9.85047 13.55 9.85038 13.55 9.85028C13.55 9.85019 13.55 9.85009 13.55 9.84999C13.55 9.8499 13.55 9.8498 13.55 9.84971C13.55 9.84961 13.55 9.84951 13.55 9.84942C13.55 9.84932 13.55 9.84923 13.55 9.84913C13.55 9.84903 13.55 9.84894 13.55 9.84884C13.55 9.84875 13.55 9.84865 13.55 9.84855C13.55 9.84846 13.55 9.84836 13.55 9.84826C13.55 9.84817 13.55 9.84807 13.55 9.84798C13.55 9.84788 13.55 9.84778 13.55 9.84769C13.55 9.84759 13.55 9.84749 13.55 9.8474C13.55 9.8473 13.55 9.8472 13.55 9.84711C13.55 9.84701 13.55 9.84692 13.55 9.84682C13.55 9.84672 13.55 9.84663 13.55 9.84653C13.55 9.84643 13.55 9.84634 13.55 9.84624C13.55 9.84614 13.55 9.84605 13.55 9.84595C13.55 9.84585 13.55 9.84576 13.55 9.84566C13.55 9.84556 13.55 9.84547 13.55 9.84537C13.55 9.84527 13.55 9.84517 13.55 9.84508C13.55 9.84498 13.55 9.84488 13.55 9.84479C13.55 9.84469 13.55 9.84459 13.55 9.8445C13.55 9.8444 13.55 9.8443 13.55 9.8442C13.55 9.84411 13.55 9.84401 13.55 9.84391C13.55 9.84382 13.55 9.84372 13.55 9.84362C13.55 9.84352 13.55 9.84343 13.55 9.84333C13.55 9.84323 13.55 9.84314 13.55 9.84304C13.55 9.84294 13.55 9.84284 13.55 9.84275C13.55 9.84265 13.55 9.84255 13.55 9.84245C13.55 9.84236 13.55 9.84226 13.55 9.84216C13.55 9.84206 13.55 9.84197 13.55 9.84187C13.55 9.84177 13.55 9.84167 13.55 9.84158C13.55 9.84148 13.55 9.84138 13.55 9.84128C13.55 9.84119 13.55 9.84109 13.55 9.84099C13.55 9.84089 13.55 9.84079 13.55 9.8407C13.55 9.8406 13.55 9.8405 13.55 9.8404C13.55 9.84031 13.55 9.84021 13.55 9.84011C13.55 9.84001 13.55 9.83991 13.55 9.83982C13.55 9.83972 13.55 9.83962 13.55 9.83952C13.55 9.83942 13.55 9.83933 13.55 9.83923C13.55 9.83913 13.55 9.83903 13.55 9.83893C13.55 9.83883 13.55 9.83874 13.55 9.83864C13.55 9.83854 13.55 9.83844 13.55 9.83834C13.55 9.83825 13.55 9.83815 13.55 9.83805C13.55 9.83795 13.55 9.83785 13.55 9.83775C13.55 9.83766 13.55 9.83756 13.55 9.83746C13.55 9.83736 13.55 9.83726 13.55 9.83716C13.55 9.83706 13.55 9.83697 13.55 9.83687C13.55 9.83677 13.55 9.83667 13.55 9.83657C13.55 9.83647 13.55 9.83637 13.55 9.83628C13.55 9.83618 13.55 9.83608 13.55 9.83598C13.55 9.83588 13.55 9.83578 13.55 9.83568C13.55 9.83558 13.55 9.83549 13.55 9.83539C13.55 9.83529 13.55 9.83519 13.55 9.83509C13.55 9.83499 13.55 9.83489 13.55 9.83479C13.55 9.83469 13.55 9.83459 13.55 9.8345C13.55 9.8344 13.55 9.8343 13.55 9.8342C13.55 9.8341 13.55 9.834 13.55 9.8339C13.55 9.8338 13.55 9.8337 13.55 9.8336C13.55 9.8335 13.55 9.83341 13.55 9.83331C13.55 9.83321 13.55 9.83311 13.55 9.83301C13.55 9.83291 13.55 9.83281 13.55 9.83271C13.55 9.83261 13.55 9.83251 13.55 9.83241C13.55 9.83231 13.55 9.83221 13.55 9.83211C13.55 9.83201 13.55 9.83191 13.55 9.83181C13.55 9.83172 13.55 9.83162 13.55 9.83152C13.55 9.83142 13.55 9.83132 13.55 9.83122C13.55 9.83112 13.55 9.83102 13.55 9.83092C13.55 9.83082 13.55 9.83072 13.55 9.83062C13.55 9.83052 13.55 9.83042 13.55 9.83032C13.55 9.83022 13.55 9.83012 13.55 9.83002C13.55 9.82992 13.55 9.82982 13.55 9.82972C13.55 9.82962 13.55 9.82952 13.55 9.82942C13.55 9.82932 13.55 9.82922 13.55 9.82912C13.55 9.82902 13.55 9.82892 13.55 9.82882C13.55 9.82872 13.55 9.82862 13.55 9.82852H11.95C11.95 9.82862 11.95 9.82872 11.95 9.82882C11.95 9.82892 11.95 9.82902 11.95 9.82912C11.95 9.82922 11.95 9.82932 11.95 9.82942C11.95 9.82952 11.95 9.82962 11.95 9.82972C11.95 9.82982 11.95 9.82992 11.95 9.83002C11.95 9.83012 11.95 9.83022 11.95 9.83032C11.95 9.83042 11.95 9.83052 11.95 9.83062C11.95 9.83072 11.95 9.83082 11.95 9.83092C11.95 9.83102 11.95 9.83112 11.95 9.83122C11.95 9.83132 11.95 9.83142 11.95 9.83152C11.95 9.83162 11.95 9.83172 11.95 9.83181C11.95 9.83191 11.95 9.83201 11.95 9.83211C11.95 9.83221 11.95 9.83231 11.95 9.83241C11.95 9.83251 11.95 9.83261 11.95 9.83271C11.95 9.83281 11.95 9.83291 11.95 9.83301C11.95 9.83311 11.95 9.83321 11.95 9.83331C11.95 9.83341 11.95 9.8335 11.95 9.8336C11.95 9.8337 11.95 9.8338 11.95 9.8339C11.95 9.834 11.95 9.8341 11.95 9.8342C11.95 9.8343 11.95 9.8344 11.95 9.8345C11.95 9.83459 11.95 9.83469 11.95 9.83479C11.95 9.83489 11.95 9.83499 11.95 9.83509C11.95 9.83519 11.95 9.83529 11.95 9.83539C11.95 9.83549 11.95 9.83558 11.95 9.83568C11.95 9.83578 11.95 9.83588 11.95 9.83598C11.95 9.83608 11.95 9.83618 11.95 9.83628C11.95 9.83637 11.95 9.83647 11.95 9.83657C11.95 9.83667 11.95 9.83677 11.95 9.83687C11.95 9.83697 11.95 9.83706 11.95 9.83716C11.95 9.83726 11.95 9.83736 11.95 9.83746C11.95 9.83756 11.95 9.83766 11.95 9.83775C11.95 9.83785 11.95 9.83795 11.95 9.83805C11.95 9.83815 11.95 9.83825 11.95 9.83834C11.95 9.83844 11.95 9.83854 11.95 9.83864C11.95 9.83874 11.95 9.83883 11.95 9.83893C11.95 9.83903 11.95 9.83913 11.95 9.83923C11.95 9.83933 11.95 9.83942 11.95 9.83952C11.95 9.83962 11.95 9.83972 11.95 9.83982C11.95 9.83991 11.95 9.84001 11.95 9.84011C11.95 9.84021 11.95 9.84031 11.95 9.8404C11.95 9.8405 11.95 9.8406 11.95 9.8407C11.95 9.84079 11.95 9.84089 11.95 9.84099C11.95 9.84109 11.95 9.84119 11.95 9.84128C11.95 9.84138 11.95 9.84148 11.95 9.84158C11.95 9.84167 11.95 9.84177 11.95 9.84187C11.95 9.84197 11.95 9.84206 11.95 9.84216C11.95 9.84226 11.95 9.84236 11.95 9.84245C11.95 9.84255 11.95 9.84265 11.95 9.84275C11.95 9.84284 11.95 9.84294 11.95 9.84304C11.95 9.84314 11.95 9.84323 11.95 9.84333C11.95 9.84343 11.95 9.84352 11.95 9.84362C11.95 9.84372 11.95 9.84382 11.95 9.84391C11.95 9.84401 11.95 9.84411 11.95 9.8442C11.95 9.8443 11.95 9.8444 11.95 9.8445C11.95 9.84459 11.95 9.84469 11.95 9.84479C11.95 9.84488 11.95 9.84498 11.95 9.84508C11.95 9.84517 11.95 9.84527 11.95 9.84537C11.95 9.84547 11.95 9.84556 11.95 9.84566C11.95 9.84576 11.95 9.84585 11.95 9.84595C11.95 9.84605 11.95 9.84614 11.95 9.84624C11.95 9.84634 11.95 9.84643 11.95 9.84653C11.95 9.84663 11.95 9.84672 11.95 9.84682C11.95 9.84692 11.95 9.84701 11.95 9.84711C11.95 9.8472 11.95 9.8473 11.95 9.8474C11.95 9.84749 11.95 9.84759 11.95 9.84769C11.95 9.84778 11.95 9.84788 11.95 9.84798C11.95 9.84807 11.95 9.84817 11.95 9.84826C11.95 9.84836 11.95 9.84846 11.95 9.84855C11.95 9.84865 11.95 9.84875 11.95 9.84884C11.95 9.84894 11.95 9.84903 11.95 9.84913C11.95 9.84923 11.95 9.84932 11.95 9.84942C11.95 9.84951 11.95 9.84961 11.95 9.84971C11.95 9.8498 11.95 9.8499 11.95 9.84999C11.95 9.85009 11.95 9.85019 11.95 9.85028C11.95 9.85038 11.95 9.85047 11.95 9.85057C11.95 9.85067 11.95 9.85076 11.95 9.85086C11.95 9.85095 11.95 9.85105 11.95 9.85114C11.95 9.85124 11.95 9.85134 11.95 9.85143C11.95 9.85153 11.95 9.85162 11.95 9.85172C11.95 9.85181 11.95 9.85191 11.95 9.852C11.95 9.8521 11.95 9.8522 11.95 9.85229C11.95 9.85239 11.95 9.85248 11.95 9.85258C11.95 9.85267 11.95 9.85277 11.95 9.85286C11.95 9.85296 11.95 9.85305 11.95 9.85315C11.95 9.85324 11.95 9.85334 11.95 9.85343C11.95 9.85353 11.95 9.85362 11.95 9.85372C11.95 9.85381 11.95 9.85391 11.95 9.854C11.95 9.8541 11.95 9.8542 11.95 9.85429C11.95 9.85439 11.95 9.85448 11.95 9.85457C11.95 9.85467 11.95 9.85476 11.95 9.85486C11.95 9.85495 11.95 9.85505 11.95 9.85514C11.95 9.85524 11.95 9.85533 11.95 9.85543C11.95 9.85552 11.95 9.85562 11.95 9.85571C11.95 9.85581 11.95 9.8559 11.95 9.856C11.95 9.85609 11.95 9.85619 11.95 9.85628C11.95 9.85638 11.95 9.85647 11.95 9.85656C11.95 9.85666 11.95 9.85675 11.95 9.85685C11.95 9.85694 11.95 9.85704 11.95 9.85713C11.95 9.85723 11.95 9.85732 11.95 9.85741C11.95 9.85751 11.95 9.8576 11.95 9.8577C11.95 9.85779 11.95 9.85789 11.95 9.85798C11.95 9.85807 11.95 9.85817 11.95 9.85826C11.95 9.85836 11.95 9.85845 11.95 9.85855C11.95 9.85864 11.95 9.85873 11.95 9.85883C11.95 9.85892 11.95 9.85902 11.95 9.85911C11.95 9.8592 11.95 9.8593 11.95 9.85939C11.95 9.85949 11.95 9.85958 11.95 9.85967C11.95 9.85977 11.95 9.85986 11.95 9.85995C11.95 9.86005 11.95 9.86014 11.95 9.86024C11.95 9.86033 11.95 9.86042 11.95 9.86052C11.95 9.86061 11.95 9.8607 11.95 9.8608C11.95 9.86089 11.95 9.86099 11.95 9.86108C11.95 9.86117 11.95 9.86127 11.95 9.86136C11.95 9.86145 11.95 9.86155 11.95 9.86164C11.95 9.86173 11.95 9.86183 11.95 9.86192C11.95 9.86201 11.95 9.86211 11.95 9.8622C11.95 9.86229 11.95 9.86239 11.95 9.86248C11.95 9.86257 11.95 9.86267 11.95 9.86276C11.95 9.86285 11.95 9.86295 11.95 9.86304C11.95 9.86313 11.95 9.86323 11.95 9.86332C11.95 9.86341 11.95 9.8635 11.95 9.8636C11.95 9.86369 11.95 9.86378 11.95 9.86388C11.95 9.86397 11.95 9.86406 11.95 9.86416C11.95 9.86425 11.95 9.86434 11.95 9.86443C11.95 9.86453 11.95 9.86462 11.95 9.86471C11.95 9.86481 11.95 9.8649 11.95 9.86499C11.95 9.86508 11.95 9.86518 11.95 9.86527C11.95 9.86536 11.95 9.86545 11.95 9.86555C11.95 9.86564 11.95 9.86573 11.95 9.86582C11.95 9.86592 11.95 9.86601 11.95 9.8661C11.95 9.86619 11.95 9.86629 11.95 9.86638C11.95 9.86647 11.95 9.86656 11.95 9.86666C11.95 9.86675 11.95 9.86684 11.95 9.86693C11.95 9.86703 11.95 9.86712 11.95 9.86721C11.95 9.8673 11.95 9.86739 11.95 9.86749C11.95 9.86758 11.95 9.86767 11.95 9.86776C11.95 9.86786 11.95 9.86795 11.95 9.86804C11.95 9.86813 11.95 9.86822 11.95 9.86832C11.95 9.86841 11.95 9.8685 11.95 9.86859C11.95 9.86868 11.95 9.86878 11.95 9.86887C11.95 9.86896 11.95 9.86905 11.95 9.86914C11.95 9.86923 11.95 9.86933 11.95 9.86942C11.95 9.86951 11.95 9.8696 11.95 9.86969C11.95 9.86978 11.95 9.86988 11.95 9.86997C11.95 9.87006 11.95 9.87015 11.95 9.87024C11.95 9.87033 11.95 9.87043 11.95 9.87052C11.95 9.87061 11.95 9.8707 11.95 9.87079C11.95 9.87088 11.95 9.87097 11.95 9.87107C11.95 9.87116 11.95 9.87125 11.95 9.87134C11.95 9.87143 11.95 9.87152 11.95 9.87161C11.95 9.87171 11.95 9.8718 11.95 9.87189C11.95 9.87198 11.95 9.87207 11.95 9.87216C11.95 9.87225 11.95 9.87234 11.95 9.87243C11.95 9.87253 11.95 9.87262 11.95 9.87271C11.95 9.8728 11.95 9.87289 11.95 9.87298C11.95 9.87307 11.95 9.87316 11.95 9.87325C11.95 9.87334 11.95 9.87343 11.95 9.87353C11.95 9.87362 11.95 9.87371 11.95 9.8738C11.95 9.87389 11.95 9.87398 11.95 9.87407C11.95 9.87416 11.95 9.87425 11.95 9.87434C11.95 9.87443 11.95 9.87452 11.95 9.87461C11.95 9.8747 11.95 9.8748 11.95 9.87489C11.95 9.87498 11.95 9.87507 11.95 9.87516C11.95 9.87525 11.95 9.87534 11.95 9.87543C11.95 9.87552 11.95 9.87561 11.95 9.8757C11.95 9.87579 11.95 9.87588 11.95 9.87597C11.95 9.87606 11.95 9.87615 11.95 9.87624C11.95 9.87633 11.95 9.87642 11.95 9.87651C11.95 9.8766 11.95 9.87669 11.95 9.87678C11.95 9.87687 11.95 9.87696 11.95 9.87705C11.95 9.87714 11.95 9.87723 11.95 9.87732C11.95 9.87741 11.95 9.8775 11.95 9.87759C11.95 9.87768 11.95 9.87777 11.95 9.87786C11.95 9.87795 11.95 9.87804 11.95 9.87813C11.95 9.87822 11.95 9.87831 11.95 9.8784C11.95 9.87849 11.95 9.87858 11.95 9.87867C11.95 9.87876 11.95 9.87885 11.95 9.87894C11.95 9.87903 11.95 9.87912 11.95 9.87921C11.95 9.8793 11.95 9.87939 11.95 9.87948C11.95 9.87957 11.95 9.87965 11.95 9.87974C11.95 9.87983 11.95 9.87992 11.95 9.88001C11.95 9.8801 11.95 9.88019 11.95 9.88028C11.95 9.88037 11.95 9.88046 11.95 9.88055C11.95 9.88064 11.95 9.88073 11.95 9.88082C11.95 9.8809 11.95 9.88099 11.95 9.88108C11.95 9.88117 11.95 9.88126 11.95 9.88135C11.95 9.88144 11.95 9.88153 11.95 9.88162C11.95 9.88171 11.95 9.8818 11.95 9.88188C11.95 9.88197 11.95 9.88206 11.95 9.88215C11.95 9.88224 11.95 9.88233 11.95 9.88242C11.95 9.88251 11.95 9.88259 11.95 9.88268C11.95 9.88277 11.95 9.88286 11.95 9.88295C11.95 9.88304 11.95 9.88313 11.95 9.88322C11.95 9.8833 11.95 9.88339 11.95 9.88348C11.95 9.88357 11.95 9.88366 11.95 9.88375C11.95 9.88384 11.95 9.88392 11.95 9.88401C11.95 9.8841 11.95 9.88419 11.95 9.88428C11.95 9.88437 11.95 9.88445 11.95 9.88454C11.95 9.88463 11.95 9.88472 11.95 9.88481C11.95 9.8849 11.95 9.88498 11.95 9.88507C11.95 9.88516 11.95 9.88525 11.95 9.88534C11.95 9.88542 11.95 9.88551 11.95 9.8856C11.95 9.88569 11.95 9.88578 11.95 9.88586C11.95 9.88595 11.95 9.88604 11.95 9.88613C11.95 9.88622 11.95 9.8863 11.95 9.88639C11.95 9.88648 11.95 9.88657 11.95 9.88666C11.95 9.88674 11.95 9.88683 11.95 9.88692C11.95 9.88701 11.95 9.88709 11.95 9.88718C11.95 9.88727 11.95 9.88736 11.95 9.88744C11.95 9.88753 11.95 9.88762 11.95 9.88771C11.95 9.8878 11.95 9.88788 11.95 9.88797C11.95 9.88806 11.95 9.88815 11.95 9.88823C11.95 9.88832 11.95 9.88841 11.95 9.88849C11.95 9.88858 11.95 9.88867 11.95 9.88876C11.95 9.88884 11.95 9.88893 11.95 9.88902C11.95 9.88911 11.95 9.88919 11.95 9.88928C11.95 9.88937 11.95 9.88945 11.95 9.88954C11.95 9.88963 11.95 9.88972 11.95 9.8898C11.95 9.88989 11.95 9.88998 11.95 9.89006C11.95 9.89015 11.95 9.89024 11.95 9.89033C11.95 9.89041 11.95 9.8905 11.95 9.89059C11.95 9.89067 11.95 9.89076 11.95 9.89085C11.95 9.89093 11.95 9.89102 11.95 9.89111C11.95 9.89119 11.95 9.89128 11.95 9.89137C11.95 9.89145 11.95 9.89154 11.95 9.89163C11.95 9.89171 11.95 9.8918 11.95 9.89189C11.95 9.89197 11.95 9.89206 11.95 9.89215C11.95 9.89223 11.95 9.89232 11.95 9.89241C11.95 9.89249 11.95 9.89258 11.95 9.89266C11.95 9.89275 11.95 9.89284 11.95 9.89292C11.95 9.89301 11.95 9.8931 11.95 9.89318C11.95 9.89327 11.95 9.89335 11.95 9.89344C11.95 9.89353 11.95 9.89361 11.95 9.8937C11.95 9.89379 11.95 9.89387 11.95 9.89396C11.95 9.89404 11.95 9.89413 11.95 9.89422C11.95 9.8943 11.95 9.89439 11.95 9.89447C11.95 9.89456 11.95 9.89465 11.95 9.89473C11.95 9.89482 11.95 9.8949 11.95 9.89499C11.95 9.89507 11.95 9.89516 11.95 9.89525C11.95 9.89533 11.95 9.89542 11.95 9.8955C11.95 9.89559 11.95 9.89567 11.95 9.89576C11.95 9.89585 11.95 9.89593 11.95 9.89602C11.95 9.8961 11.95 9.89619 11.95 9.89627C11.95 9.89636 11.95 9.89644 11.95 9.89653C11.95 9.89662 11.95 9.8967 11.95 9.89679C11.95 9.89687 11.95 9.89696 11.95 9.89704C11.95 9.89713 11.95 9.89721 11.95 9.8973C11.95 9.89738 11.95 9.89747 11.95 9.89755C11.95 9.89764 11.95 9.89772 11.95 9.89781C11.95 9.89789 11.95 9.89798 11.95 9.89806C11.95 9.89815 11.95 9.89823 11.95 9.89832C11.95 9.8984 11.95 9.89849 11.95 9.89857C11.95 9.89866 11.95 9.89874 11.95 9.89883C11.95 9.89891 11.95 9.899 11.95 9.89908C11.95 9.89917 11.95 9.89925 11.95 9.89934C11.95 9.89942 11.95 9.89951 11.95 9.89959C11.95 9.89968 11.95 9.89976 11.95 9.89985C11.95 9.89993 11.95 9.90001 11.95 9.9001C11.95 9.90018 11.95 9.90027 11.95 9.90035C11.95 9.90044 11.95 9.90052 11.95 9.90061C11.95 9.90069 11.95 9.90078 11.95 9.90086C11.95 9.90094 11.95 9.90103 11.95 9.90111C11.95 9.9012 11.95 9.90128 11.95 9.90137C11.95 9.90145 11.95 9.90153 11.95 9.90162C11.95 9.9017 11.95 9.90179 11.95 9.90187C11.95 9.90195 11.95 9.90204 11.95 9.90212C11.95 9.90221 11.95 9.90229 11.95 9.90237C11.95 9.90246 11.95 9.90254 11.95 9.90263C11.95 9.90271 11.95 9.90279 11.95 9.90288C11.95 9.90296 11.95 9.90305 11.95 9.90313C11.95 9.90321 11.95 9.9033 11.95 9.90338C11.95 9.90346 11.95 9.90355 11.95 9.90363C11.95 9.90372 11.95 9.9038 11.95 9.90388C11.95 9.90397 11.95 9.90405 11.95 9.90413C11.95 9.90422 11.95 9.9043 11.95 9.90438C11.95 9.90447 11.95 9.90455 11.95 9.90463C11.95 9.90472 11.95 9.9048 11.95 9.90488C11.95 9.90497 11.95 9.90505 11.95 9.90513C11.95 9.90522 11.95 9.9053 11.95 9.90538C11.95 9.90547 11.95 9.90555 11.95 9.90563C11.95 9.90572 11.95 9.9058 11.95 9.90588C11.95 9.90597 11.95 9.90605 11.95 9.90613C11.95 9.90622 11.95 9.9063 11.95 9.90638C11.95 9.90646 11.95 9.90655 11.95 9.90663C11.95 9.90671 11.95 9.9068 11.95 9.90688C11.95 9.90696 11.95 9.90704 11.95 9.90713C11.95 9.90721 11.95 9.90729 11.95 9.90738C11.95 9.90746 11.95 9.90754 11.95 9.90762C11.95 9.90771 11.95 9.90779 11.95 9.90787C11.95 9.90795 11.95 9.90804 11.95 9.90812C11.95 9.9082 11.95 9.90828 11.95 9.90837C11.95 9.90845 11.95 9.90853 11.95 9.90861C11.95 9.9087 11.95 9.90878 11.95 9.90886C11.95 9.90894 11.95 9.90902 11.95 9.90911C11.95 9.90919 11.95 9.90927 11.95 9.90935C11.95 9.90944 11.95 9.90952 11.95 9.9096C11.95 9.90968 11.95 9.90976 11.95 9.90985C11.95 9.90993 11.95 9.91001 11.95 9.91009C11.95 9.91017 11.95 9.91026 11.95 9.91034C11.95 9.91042 11.95 9.9105 11.95 9.91058C11.95 9.91067 11.95 9.91075 11.95 9.91083C11.95 9.91091 11.95 9.91099 11.95 9.91108C11.95 9.91116 11.95 9.91124 11.95 9.91132C11.95 9.9114 11.95 9.91148 11.95 9.91157C11.95 9.91165 11.95 9.91173 11.95 9.91181C11.95 9.91189 11.95 9.91197 11.95 9.91205C11.95 9.91214 11.95 9.91222 11.95 9.9123C11.95 9.91238 11.95 9.91246 11.95 9.91254C11.95 9.91262 11.95 9.91271 11.95 9.91279C11.95 9.91287 11.95 9.91295 11.95 9.91303C11.95 9.91311 11.95 9.91319 11.95 9.91327C11.95 9.91336 11.95 9.91344 11.95 9.91352C11.95 9.9136 11.95 9.91368 11.95 9.91376C11.95 9.91384 11.95 9.91392 11.95 9.914C11.95 9.91409 11.95 9.91417 11.95 9.91425C11.95 9.91433 11.95 9.91441 11.95 9.91449C11.95 9.91457 11.95 9.91465 11.95 9.91473C11.95 9.91481 11.95 9.91489 11.95 9.91497C11.95 9.91506 11.95 9.91514 11.95 9.91522C11.95 9.9153 11.95 9.91538 11.95 9.91546C11.95 9.91554 11.95 9.91562 11.95 9.9157C11.95 9.91578 11.95 9.91586 11.95 9.91594C11.95 9.91602 11.95 9.9161 11.95 9.91618C11.95 9.91626 11.95 9.91634 11.95 9.91642C11.95 9.9165 11.95 9.91658 11.95 9.91666C11.95 9.91674 11.95 9.91683 11.95 9.91691C11.95 9.91699 11.95 9.91707 11.95 9.91715C11.95 9.91723 11.95 9.91731 11.95 9.91739C11.95 9.91747 11.95 9.91755 11.95 9.91763C11.95 9.91771 11.95 9.91779 11.95 9.91787C11.95 9.91795 11.95 9.91803 11.95 9.91811C11.95 9.91819 11.95 9.91827 11.95 9.91835C11.95 9.91843 11.95 9.91851 11.95 9.91859C11.95 9.91866 11.95 9.91874 11.95 9.91882C11.95 9.9189 11.95 9.91898 11.95 9.91906C11.95 9.91914 11.95 9.91922 11.95 9.9193C11.95 9.91938 11.95 9.91946 11.95 9.91954C11.95 9.91962 11.95 9.9197 11.95 9.91978C11.95 9.91986 11.95 9.91994 11.95 9.92002C11.95 9.9201 11.95 9.92018 11.95 9.92026C11.95 9.92033 11.95 9.92041 11.95 9.92049C11.95 9.92057 11.95 9.92065 11.95 9.92073C11.95 9.92081 11.95 9.92089 11.95 9.92097C11.95 9.92105 11.95 9.92113 11.95 9.92121C11.95 9.92128 11.95 9.92136 11.95 9.92144C11.95 9.92152 11.95 9.9216 11.95 9.92168C11.95 9.92176 11.95 9.92184 11.95 9.92192C11.95 9.92199 11.95 9.92207 11.95 9.92215C11.95 9.92223 11.95 9.92231 11.95 9.92239C11.95 9.92247 11.95 9.92255 11.95 9.92262C11.95 9.9227 11.95 9.92278 11.95 9.92286C11.95 9.92294 11.95 9.92302 11.95 9.9231C11.95 9.92317 11.95 9.92325 11.95 9.92333C11.95 9.92341 11.95 9.92349 11.95 9.92357C11.95 9.92365 11.95 9.92372 11.95 9.9238C11.95 9.92388 11.95 9.92396 11.95 9.92404C11.95 9.92411 11.95 9.92419 11.95 9.92427C11.95 9.92435 11.95 9.92443 11.95 9.92451C11.95 9.92458 11.95 9.92466 11.95 9.92474C11.95 9.92482 11.95 9.9249 11.95 9.92497C11.95 9.92505 11.95 9.92513 11.95 9.92521C11.95 9.92529 11.95 9.92536 11.95 9.92544C11.95 9.92552 11.95 9.9256 11.95 9.92568C11.95 9.92575 11.95 9.92583 11.95 9.92591C11.95 9.92599 11.95 9.92606 11.95 9.92614C11.95 9.92622 11.95 9.9263 11.95 9.92637C11.95 9.92645 11.95 9.92653 11.95 9.92661C11.95 9.92668 11.95 9.92676 11.95 9.92684C11.95 9.92692 11.95 9.92699 11.95 9.92707C11.95 9.92715 11.95 9.92723 11.95 9.9273C11.95 9.92738 11.95 9.92746 11.95 9.92754C11.95 9.92761 11.95 9.92769 11.95 9.92777C11.95 9.92785 11.95 9.92792 11.95 9.928C11.95 9.92808 11.95 9.92815 11.95 9.92823C11.95 9.92831 11.95 9.92839 11.95 9.92846C11.95 9.92854 11.95 9.92862 11.95 9.92869C11.95 9.92877 11.95 9.92885 11.95 9.92892C11.95 9.929 11.95 9.92908 11.95 9.92915C11.95 9.92923 11.95 9.92931 11.95 9.92938C11.95 9.92946 11.95 9.92954 11.95 9.92962C11.95 9.92969 11.95 9.92977 11.95 9.92985C11.95 9.92992 11.95 9.93 11.95 9.93007C11.95 9.93015 11.95 9.93023 11.95 9.9303C11.95 9.93038 11.95 9.93046 11.95 9.93053C11.95 9.93061 11.95 9.93069 11.95 9.93076C11.95 9.93084 11.95 9.93092 11.95 9.93099C11.95 9.93107 11.95 9.93114 11.95 9.93122C11.95 9.9313 11.95 9.93137 11.95 9.93145C11.95 9.93153 11.95 9.9316 11.95 9.93168C11.95 9.93175 11.95 9.93183 11.95 9.93191C11.95 9.93198 11.95 9.93206 11.95 9.93213C11.95 9.93221 11.95 9.93229 11.95 9.93236C11.95 9.93244 11.95 9.93251 11.95 9.93259C11.95 9.93267 11.95 9.93274 11.95 9.93282C11.95 9.93289 11.95 9.93297 11.95 9.93304C11.95 9.93312 11.95 9.9332 11.95 9.93327C11.95 9.93335 11.95 9.93342 11.95 9.9335C11.95 9.93357 11.95 9.93365 11.95 9.93372C11.95 9.9338 11.95 9.93388 11.95 9.93395C11.95 9.93403 11.95 9.9341 11.95 9.93418C11.95 9.93425 11.95 9.93433 11.95 9.9344C11.95 9.93448 11.95 9.93455 11.95 9.93463C11.95 9.9347 11.95 9.93478 11.95 9.93485C11.95 9.93493 11.95 9.93501 11.95 9.93508C11.95 9.93516 11.95 9.93523 11.95 9.93531C11.95 9.93538 11.95 9.93546 11.95 9.93553C11.95 9.93561 11.95 9.93568 11.95 9.93576C11.95 9.93583 11.95 9.93591 11.95 9.93598C11.95 9.93605 11.95 9.93613 11.95 9.9362C11.95 9.93628 11.95 9.93635 11.95 9.93643C11.95 9.9365 11.95 9.93658 11.95 9.93665C11.95 9.93673 11.95 9.9368 11.95 9.93688C11.95 9.93695 11.95 9.93703 11.95 9.9371C11.95 9.93718 11.95 9.93725 11.95 9.93732C11.95 9.9374 11.95 9.93747 11.95 9.93755C11.95 9.93762 11.95 9.9377 11.95 9.93777C11.95 9.93784 11.95 9.93792 11.95 9.93799C11.95 9.93807 11.95 9.93814 11.95 9.93822C11.95 9.93829 11.95 9.93836 11.95 9.93844C11.95 9.93851 11.95 9.93859 11.95 9.93866C11.95 9.93873 11.95 9.93881 11.95 9.93888C11.95 9.93896 11.95 9.93903 11.95 9.9391C11.95 9.93918 11.95 9.93925 11.95 9.93933C11.95 9.9394 11.95 9.93947 11.95 9.93955C11.95 9.93962 11.95 9.9397 11.95 9.93977C11.95 9.93984 11.95 9.93992 11.95 9.93999C11.95 9.94006 11.95 9.94014 11.95 9.94021C11.95 9.94028 11.95 9.94036 11.95 9.94043C11.95 9.94051 11.95 9.94058 11.95 9.94065C11.95 9.94073 11.95 9.9408 11.95 9.94087C11.95 9.94095 11.95 9.94102 11.95 9.94109C11.95 9.94117 11.95 9.94124 11.95 9.94131C11.95 9.94139 11.95 9.94146 11.95 9.94153C11.95 9.94161 11.95 9.94168 11.95 9.94175C11.95 9.94182 11.95 9.9419 11.95 9.94197C11.95 9.94204 11.95 9.94212 11.95 9.94219C11.95 9.94226 11.95 9.94234 11.95 9.94241C11.95 9.94248 11.95 9.94255 11.95 9.94263C11.95 9.9427 11.95 9.94277 11.95 9.94285C11.95 9.94292 11.95 9.94299 11.95 9.94306C11.95 9.94314 11.95 9.94321 11.95 9.94328C11.95 9.94336 11.95 9.94343 11.95 9.9435C11.95 9.94357 11.95 9.94365 11.95 9.94372C11.95 9.94379 11.95 9.94386 11.95 9.94394C11.95 9.94401 11.95 9.94408 11.95 9.94415C11.95 9.94423 11.95 9.9443 11.95 9.94437C11.95 9.94444 11.95 9.94451 11.95 9.94459C11.95 9.94466 11.95 9.94473 11.95 9.9448C11.95 9.94488 11.95 9.94495 11.95 9.94502C11.95 9.94509 11.95 9.94516 11.95 9.94524C11.95 9.94531 11.95 9.94538 11.95 9.94545C11.95 9.94552 11.95 9.9456 11.95 9.94567C11.95 9.94574 11.95 9.94581 11.95 9.94588C11.95 9.94596 11.95 9.94603 11.95 9.9461C11.95 9.94617 11.95 9.94624 11.95 9.94631C11.95 9.94639 11.95 9.94646 11.95 9.94653C11.95 9.9466 11.95 9.94667 11.95 9.94674C11.95 9.94682 11.95 9.94689 11.95 9.94696C11.95 9.94703 11.95 9.9471 11.95 9.94717C11.95 9.94725 11.95 9.94732 11.95 9.94739C11.95 9.94746 11.95 9.94753 11.95 9.9476C11.95 9.94767 11.95 9.94774 11.95 9.94782C11.95 9.94789 11.95 9.94796 11.95 9.94803C11.95 9.9481 11.95 9.94817 11.95 9.94824C11.95 9.94831 11.95 9.94839 11.95 9.94846C11.95 9.94853 11.95 9.9486 11.95 9.94867C11.95 9.94874 11.95 9.94881 11.95 9.94888C11.95 9.94895 11.95 9.94902 11.95 9.94909C11.95 9.94917 11.95 9.94924 11.95 9.94931C11.95 9.94938 11.95 9.94945 11.95 9.94952C11.95 9.94959 11.95 9.94966 11.95 9.94973C11.95 9.9498 11.95 9.94987 11.95 9.94994C11.95 9.95001 11.95 9.95008 11.95 9.95016C11.95 9.95023 11.95 9.9503 11.95 9.95037C11.95 9.95044 11.95 9.95051 11.95 9.95058C11.95 9.95065 11.95 9.95072 11.95 9.95079C11.95 9.95086 11.95 9.95093 11.95 9.951C11.95 9.95107 11.95 9.95114 11.95 9.95121C11.95 9.95128 11.95 9.95135 11.95 9.95142C11.95 9.95149 11.95 9.95156 11.95 9.95163C11.95 9.9517 11.95 9.95177 11.95 9.95184C11.95 9.95191 11.95 9.95198 11.95 9.95205C11.95 9.95212 11.95 9.95219 11.95 9.95226C11.95 9.95233 11.95 9.9524 11.95 9.95247C11.95 9.95254 11.95 9.95261 11.95 9.95268C11.95 9.95275 11.95 9.95282 11.95 9.95289C11.95 9.95296 11.95 9.95303 11.95 9.9531C11.95 9.95317 11.95 9.95324 11.95 9.95331C11.95 9.95338 11.95 9.95344 11.95 9.95351C11.95 9.95358 11.95 9.95365 11.95 9.95372C11.95 9.95379 11.95 9.95386 11.95 9.95393C11.95 9.954 11.95 9.95407 11.95 9.95414C11.95 9.95421 11.95 9.95428 11.95 9.95435C11.95 9.95442 11.95 9.95448 11.95 9.95455C11.95 9.95462 11.95 9.95469 11.95 9.95476C11.95 9.95483 11.95 9.9549 11.95 9.95497C11.95 9.95504 11.95 9.95511 11.95 9.95517C11.95 9.95524 11.95 9.95531 11.95 9.95538C11.95 9.95545 11.95 9.95552 11.95 9.95559C11.95 9.95566 11.95 9.95572 11.95 9.95579C11.95 9.95586 11.95 9.95593 11.95 9.956C11.95 9.95607 11.95 9.95614 11.95 9.95621C11.95 9.95627 11.95 9.95634 11.95 9.95641C11.95 9.95648 11.95 9.95655 11.95 9.95662C11.95 9.95668 11.95 9.95675 11.95 9.95682C11.95 9.95689 11.95 9.95696 11.95 9.95703C11.95 9.95709 11.95 9.95716 11.95 9.95723C11.95 9.9573 11.95 9.95737 11.95 9.95744C11.95 9.9575 11.95 9.95757 11.95 9.95764C11.95 9.95771 11.95 9.95778 11.95 9.95784C11.95 9.95791 11.95 9.95798 11.95 9.95805C11.95 9.95812 11.95 9.95818 11.95 9.95825H13.55ZM18.45 10.0883V12.1249H20.05V10.0883H18.45ZM15.87 7.50825C17.2949 7.50825 18.45 8.66336 18.45 10.0883H20.05C20.05 7.7797 18.1786 5.90825 15.87 5.90825V7.50825ZM13.55 9.82852C13.55 8.54713 14.5888 7.50825 15.87 7.50825V5.90825C13.705 5.90825 11.95 7.66365 11.95 9.82852H13.55Z" fill="black"/>
<circle cx="16" cy="18.0833" r="1.625" fill="black"/>
</svg>
