<svg width="32" height="32" viewBox="0 0 32 32" fill="none" xmlns="http://www.w3.org/2000/svg">
<path d="M0 16C0 7.16344 7.16344 0 16 0V0C24.8366 0 32 7.16344 32 16V16C32 24.8366 24.8366 32 16 32V32C7.16344 32 0 24.8366 0 16V16Z" fill="#F9F9F9"/>
<path fill-rule="evenodd" clip-rule="evenodd" d="M8.8008 11C8.80605 11.0222 8.84455 11.1378 9.10423 11.3297C9.40917 11.555 9.90156 11.7916 10.5819 12.0042C11.9331 12.4264 13.8489 12.7 16.0002 12.7C18.1514 12.7 20.0672 12.4264 21.4184 12.0042C22.0988 11.7916 22.5912 11.555 22.8961 11.3297C23.1558 11.1378 23.1943 11.0222 23.1995 11C23.1943 10.9778 23.1558 10.8622 22.8961 10.6703C22.5912 10.445 22.0988 10.2084 21.4184 9.99582C20.0672 9.57357 18.1514 9.3 16.0002 9.3C13.8489 9.3 11.9331 9.57357 10.5819 9.99582C9.90156 10.2084 9.40917 10.445 9.10423 10.6703C8.84455 10.8622 8.80605 10.9778 8.8008 11ZM10.1047 8.46865C11.6489 7.98608 13.7331 7.7 16.0002 7.7C18.2672 7.7 20.3514 7.98608 21.8956 8.46865C22.663 8.70845 23.3422 9.01057 23.8469 9.38346C24.3359 9.74478 24.8002 10.2818 24.8002 11C24.8002 11.7182 24.3359 12.2552 23.8469 12.6166C23.3422 12.9894 22.663 13.2916 21.8956 13.5314C20.3514 14.0139 18.2672 14.3 16.0002 14.3C13.7331 14.3 11.6489 14.0139 10.1047 13.5314C9.33734 13.2916 8.65816 12.9894 8.15345 12.6166C7.66441 12.2552 7.20016 11.7182 7.20016 11C7.20016 10.2818 7.66441 9.74478 8.15345 9.38346C8.65816 9.01057 9.33734 8.70845 10.1047 8.46865Z" fill="black"/>
<path fill-rule="evenodd" clip-rule="evenodd" d="M10.3747 16.8468C11.64 17.2291 13.4042 17.4689 15.4002 17.4972C15.6211 17.5004 15.8002 17.6791 15.8002 17.9001V18.7001C15.8002 18.921 15.621 19.1003 15.4001 19.0974C13.2964 19.0691 11.3664 18.8179 9.91189 18.3784C9.14343 18.1461 8.45805 17.8467 7.94776 17.4627C7.53724 17.1537 7.17019 16.7325 7.04541 16.1966C6.99531 15.9815 7.17925 15.8001 7.40016 15.8001H8.40016C8.51062 15.8001 8.61642 15.8912 8.6859 15.9771C8.73174 16.0338 8.80207 16.1031 8.90992 16.1843C9.20928 16.4096 9.69548 16.6415 10.3747 16.8468Z" fill="black"/>
<path fill-rule="evenodd" clip-rule="evenodd" d="M10.5749 21.5467C11.8402 21.9291 13.6044 22.1688 15.6004 22.1972C15.8213 22.2003 16.0004 22.3791 16.0004 22.6V23.4C16.0004 23.6209 15.8212 23.8003 15.6003 23.7973C13.4966 23.7691 11.5666 23.5179 10.1121 23.0783C9.34362 22.8461 8.65824 22.5467 8.14796 22.1626C7.73744 21.8537 7.37039 21.4325 7.24561 20.8966C7.19551 20.6814 7.37945 20.5 7.60036 20.5H8.60036C8.71082 20.5 8.81661 20.5912 8.8861 20.6771C8.93194 20.7337 9.00226 20.8031 9.11012 20.8843C9.40948 21.1096 9.89567 21.3414 10.5749 21.5467Z" fill="black"/>
<path fill-rule="evenodd" clip-rule="evenodd" d="M20.2001 21.292V16.9C20.2001 16.6791 20.3792 16.5 20.6001 16.5H21.4001C21.621 16.5 21.8001 16.6791 21.8001 16.9V21.292L23.1807 20.1415C23.3504 20.0001 23.6026 20.023 23.744 20.1927L24.2562 20.8073C24.3976 20.977 24.3747 21.2292 24.205 21.3707L21.3842 23.7213C21.1617 23.9067 20.8385 23.9067 20.616 23.7213L17.7952 21.3707C17.6255 21.2292 17.6026 20.977 17.744 20.8073L18.2562 20.1927C18.3976 20.023 18.6498 20.0001 18.8195 20.1415L20.2001 21.292Z" fill="black"/>
</svg>
