<svg width="32" height="32" viewBox="0 0 32 32" fill="none" xmlns="http://www.w3.org/2000/svg">
<path d="M0 16C0 7.16344 7.16344 0 16 0V0C24.8366 0 32 7.16344 32 16V16C32 24.8366 24.8366 32 16 32V32C7.16344 32 0 24.8366 0 16V16Z" fill="#F9F9F9"/>
<path fill-rule="evenodd" clip-rule="evenodd" d="M8 11.8692C8 9.73229 9.7323 7.99999 11.8692 7.99999C14.0061 7.99999 15.7384 9.73229 15.7384 11.8692C15.7384 14.0061 14.0061 15.7384 11.8692 15.7384C9.7323 15.7384 8 14.0061 8 11.8692ZM11.8692 9.54216C10.584 9.54216 9.54217 10.584 9.54217 11.8692C9.54217 13.1544 10.584 14.1962 11.8692 14.1962C13.1544 14.1962 14.1962 13.1544 14.1962 11.8692C14.1962 10.584 13.1544 9.54216 11.8692 9.54216Z" fill="black"/>
<path d="M23.3139 14.6266C23.5418 14.9106 24.0001 14.7494 24.0001 14.3853V9.63853C24.0001 9.4256 23.8275 9.25299 23.6145 9.25299H22.8435C22.6305 9.25299 22.4579 9.4256 22.4579 9.63853V11.2348C21.0937 9.81315 19.7403 8.83289 18.3926 8.36234C18.1916 8.29215 17.9785 8.41286 17.9211 8.6179L17.713 9.3604C17.6556 9.56543 17.7756 9.77694 17.9752 9.85107C19.3412 10.3584 20.8958 11.6144 22.6277 13.7718L23.3139 14.6266Z" fill="black"/>
<path d="M8.34314 16.9469C8.22914 16.805 8.00009 16.8856 8.00009 17.0676V22.3614C8.00009 22.5744 8.1727 22.747 8.38563 22.747H9.15672C9.36965 22.747 9.54226 22.5744 9.54226 22.3614V20.764C10.9113 22.1897 12.2697 23.172 13.6225 23.6423C13.8236 23.7122 14.0365 23.5912 14.0937 23.3861L14.3008 22.6434C14.358 22.4383 14.2378 22.2269 14.038 22.1531C12.6676 21.6463 11.1085 20.3889 9.37229 18.2279L8.34314 16.9469Z" fill="black"/>
<path fill-rule="evenodd" clip-rule="evenodd" d="M20.1309 16.2616C17.994 16.2616 16.2617 17.9939 16.2617 20.1308C16.2617 22.2677 17.994 24 20.1309 24C22.2678 24 24.0001 22.2677 24.0001 20.1308C24.0001 17.9939 22.2678 16.2616 20.1309 16.2616ZM17.8039 20.1308C17.8039 18.8456 18.8457 17.8038 20.1309 17.8038C21.4161 17.8038 22.4579 18.8456 22.4579 20.1308C22.4579 21.416 21.4161 22.4578 20.1309 22.4578C18.8457 22.4578 17.8039 21.416 17.8039 20.1308Z" fill="black"/>
</svg>
