<svg width="32" height="32" viewBox="0 0 32 32" fill="none" xmlns="http://www.w3.org/2000/svg">
<path d="M0 16C0 7.16344 7.16344 0 16 0V0C24.8366 0 32 7.16344 32 16V16C32 24.8366 24.8366 32 16 32V32C7.16344 32 0 24.8366 0 16V16Z" fill="#F9F9F9"/>
<path fill-rule="evenodd" clip-rule="evenodd" d="M12.2676 8.50002H10.5C9.39543 8.50002 8.5 9.39545 8.5 10.5V23C8.5 24.1046 9.39543 25 10.5 25H21.5C22.6046 25 23.5 24.1046 23.5 23V10.5C23.5 9.39545 22.6046 8.50002 21.5 8.50002H19.7324C19.9026 8.79419 20 9.13573 20 9.50002V10.1H21.5C21.7209 10.1 21.9 10.2791 21.9 10.5V23C21.9 23.2209 21.7209 23.4 21.5 23.4H10.5C10.2791 23.4 10.1 23.2209 10.1 23V10.5C10.1 10.2791 10.2791 10.1 10.5 10.1H12V9.50002C12 9.13573 12.0974 8.79419 12.2676 8.50002Z" fill="black"/>
<path fill-rule="evenodd" clip-rule="evenodd" d="M18 9.10002H14C13.7791 9.10002 13.6 9.27911 13.6 9.50002V10.5C13.6 10.7209 13.7791 10.9 14 10.9H18.2222C18.3204 10.9 18.4 10.8204 18.4 10.7222V9.50002C18.4 9.27911 18.2209 9.10002 18 9.10002ZM14 7.50002H18C19.1046 7.50002 20 8.39545 20 9.50002V10.7222C20 11.7041 19.2041 12.5 18.2222 12.5H14C12.8954 12.5 12 11.6046 12 10.5L12 9.50002C12 8.39545 12.8954 7.50002 14 7.50002Z" fill="black"/>
<path d="M18.8 14.5C18.9105 14.5 19 14.5896 19 14.7V15.9C19 16.0105 18.9105 16.1 18.8 16.1H13.2C13.0895 16.1 13 16.0105 13 15.9V14.7C13 14.5896 13.0895 14.5 13.2 14.5H18.8Z" fill="black"/>
<path d="M16.8 17.4C16.9105 17.4 17 17.4896 17 17.6V18.8C17 18.9105 16.9105 19 16.8 19H13.2C13.0895 19 13 18.9105 13 18.8V17.6C13 17.4896 13.0895 17.4 13.2 17.4H16.8Z" fill="black"/>
</svg>
