<svg width="32" height="32" viewBox="0 0 32 32" fill="none" xmlns="http://www.w3.org/2000/svg">
<rect width="32" height="32" rx="16" fill="#F9F9F9"/>
<path fill-rule="evenodd" clip-rule="evenodd" d="M18 7.5H14C13.2597 7.5 12.6134 7.9022 12.2676 8.5H10.5C9.39543 8.5 8.5 9.39543 8.5 10.5V23C8.5 24.1046 9.39543 25 10.5 25H15.7C15.8657 25 16 24.8657 16 24.7V23.7C16 23.5343 15.8657 23.4 15.7 23.4H10.5C10.2791 23.4 10.1 23.2209 10.1 23V10.5C10.1 10.2791 10.2791 10.1 10.5 10.1H12L12 10.5C12 11.6046 12.8954 12.5 14 12.5H18.2222C19.2041 12.5 20 11.7041 20 10.7222V10.1H21.5C21.7209 10.1 21.9 10.2791 21.9 10.5V15.7C21.9 15.8657 22.0343 16 22.2 16H23.2C23.3657 16 23.5 15.8657 23.5 15.7V10.5C23.5 9.39543 22.6046 8.5 21.5 8.5H19.7324C19.3866 7.9022 18.7403 7.5 18 7.5ZM14 9.1H18C18.2209 9.1 18.4 9.27909 18.4 9.5V10.7222C18.4 10.8204 18.3204 10.9 18.2222 10.9H14C13.7791 10.9 13.6 10.7209 13.6 10.5V9.5C13.6 9.27909 13.7791 9.1 14 9.1Z" fill="black"/>
<path d="M18.8 14.5C18.9105 14.5 19 14.5895 19 14.7V15.9C19 16.0105 18.9105 16.1 18.8 16.1H13.2C13.0895 16.1 13 16.0105 13 15.9V14.7C13 14.5895 13.0895 14.5 13.2 14.5H18.8Z" fill="black"/>
<path d="M17 17.6C17 17.4895 16.9105 17.4 16.8 17.4H13.2C13.0895 17.4 13 17.4895 13 17.6V18.8C13 18.9105 13.0895 19 13.2 19H16.8C16.9105 19 17 18.9105 17 18.8V17.6Z" fill="black"/>
<path fill-rule="evenodd" clip-rule="evenodd" d="M17.3977 24.9289C17.6577 25.1889 18.0177 25.3289 18.3977 25.3289C18.4639 25.3289 18.5232 25.3221 18.5927 25.314C18.6072 25.3124 18.6221 25.3106 18.6377 25.3089L19.9877 25.1189C20.3377 25.0689 20.7477 24.859 20.9977 24.609L23.9974 21.6092C24.0223 21.5874 24.0458 21.5638 24.0678 21.5388L24.5377 21.0689C25.0077 20.5889 25.2677 20.109 25.3177 19.609C25.3777 18.979 25.1177 18.369 24.5377 17.789C23.9577 17.209 23.3477 16.9489 22.7177 17.0089C22.2077 17.0589 21.7377 17.309 21.2577 17.789L17.7177 21.3289C17.4677 21.5789 17.2577 21.999 17.2077 22.349L17.0177 23.6989C16.9477 24.1689 17.0877 24.6189 17.3977 24.9289ZM23.3022 20.1744L23.4777 19.9989C23.6877 19.7889 23.8177 19.5989 23.8277 19.4589C23.8477 19.2589 23.6477 19.019 23.4777 18.849C23.3177 18.689 23.0877 18.4989 22.8877 18.4989H22.8577C22.7177 18.5089 22.5277 18.629 22.3177 18.849L22.1528 19.0138C22.3924 19.5186 22.8001 19.9301 23.3022 20.1744ZM21.0521 20.1145L18.7777 22.3889C18.7477 22.4189 18.6977 22.5189 18.6977 22.5589L18.5177 23.8089L19.7677 23.6289C19.8077 23.6189 19.9077 23.569 19.9377 23.539L22.2058 21.2708C21.7465 20.9693 21.3526 20.5746 21.0521 20.1145Z" fill="black"/>
</svg>
