<svg width="24" height="24" viewBox="0 0 24 24" fill="none" xmlns="http://www.w3.org/2000/svg">
<circle cx="12" cy="12" r="12" fill="#F9F9F9"/>
<path fill-rule="evenodd" clip-rule="evenodd" d="M9.95064 14.9266H13.5414C13.812 14.9266 14.0364 14.7 14.0364 14.4266C14.0364 14.1533 13.812 13.9333 13.5414 13.9333H9.95064C9.68001 13.9333 9.45559 14.1533 9.45559 14.4266C9.45559 14.7 9.68001 14.9266 9.95064 14.9266ZM12.1817 10.6H9.95064C9.68001 10.6 9.45559 10.8266 9.45559 11.1C9.45559 11.3733 9.68001 11.5933 9.95064 11.5933H12.1817C12.4523 11.5933 12.6767 11.3733 12.6767 11.1C12.6767 10.8266 12.4523 10.6 12.1817 10.6ZM16.8922 10.017C17.0474 10.0152 17.2163 10.0133 17.3698 10.0133C17.5348 10.0133 17.6668 10.1466 17.6668 10.3133V15.6733C17.6668 17.3266 16.3401 18.6666 14.7031 18.6666H9.44901C7.73284 18.6666 6.3335 17.2599 6.3335 15.5266V8.33992C6.3335 6.68659 7.66683 5.33325 9.31039 5.33325H12.8351C13.0068 5.33325 13.1388 5.47325 13.1388 5.63992V7.78659C13.1388 9.00659 14.1355 10.0066 15.3434 10.0133C15.6255 10.0133 15.8743 10.0154 16.092 10.0172C16.2613 10.0186 16.4119 10.0199 16.5447 10.0199C16.6387 10.0199 16.7605 10.0185 16.8922 10.017ZM17.0742 9.044C16.5317 9.046 15.8921 9.044 15.432 9.03933C14.702 9.03933 14.1006 8.432 14.1006 7.69466V5.93733C14.1006 5.65 14.4459 5.50733 14.6432 5.71466C15.0005 6.08982 15.4914 6.60552 15.98 7.11886C16.4674 7.63084 16.9526 8.14048 17.3006 8.506C17.4934 8.708 17.3521 9.04333 17.0742 9.044Z" fill="#DBDBDB"/>
</svg>
