<svg width="12" height="12" viewBox="0 0 12 12" fill="none" xmlns="http://www.w3.org/2000/svg">
<path fill-rule="evenodd" clip-rule="evenodd" d="M6 9.95C8.18152 9.95 9.95 8.18152 9.95 6C9.95 3.81848 8.18152 2.05 6 2.05C3.81848 2.05 2.05 3.81848 2.05 6C2.05 8.18152 3.81848 9.95 6 9.95ZM6 10.75C8.62335 10.75 10.75 8.62335 10.75 6C10.75 3.37665 8.62335 1.25 6 1.25C3.37665 1.25 1.25 3.37665 1.25 6C1.25 8.62335 3.37665 10.75 6 10.75Z" fill="#E3493F"/>
<path fill-rule="evenodd" clip-rule="evenodd" d="M5.99998 5.43431L6.98993 4.44436C7.06804 4.36625 7.19467 4.36625 7.27278 4.44436L7.55562 4.7272C7.63372 4.80531 7.63372 4.93194 7.55562 5.01004L6.56567 5.99999L7.55562 6.98994C7.63372 7.06805 7.63372 7.19468 7.55562 7.27279L7.27278 7.55563C7.19467 7.63373 7.06804 7.63373 6.98993 7.55563L5.99998 6.56568L5.01004 7.55563C4.93193 7.63373 4.8053 7.63373 4.72719 7.55563L4.44435 7.27279C4.36624 7.19468 4.36624 7.06805 4.44435 6.98994L5.4343 5.99999L4.44435 5.01004C4.36624 4.93194 4.36624 4.80531 4.44435 4.7272L4.72719 4.44436C4.8053 4.36625 4.93193 4.36625 5.01004 4.44436L5.99998 5.43431Z" fill="#E3493F"/>
</svg>
