<svg width="12" height="12" viewBox="0 0 12 12" fill="none" xmlns="http://www.w3.org/2000/svg">
<path fill-rule="evenodd" clip-rule="evenodd" d="M10.75 6C10.75 8.62335 8.62335 10.75 6 10.75C3.37665 10.75 1.25 8.62335 1.25 6C1.25 3.37665 3.37665 1.25 6 1.25C8.62335 1.25 10.75 3.37665 10.75 6ZM9.95 6C9.95 8.18152 8.18152 9.95 6 9.95C3.81848 9.95 2.05 8.18152 2.05 6C2.05 3.81848 3.81848 2.05 6 2.05C8.18152 2.05 9.95 3.81848 9.95 6ZM5.25 4.45C5.25 4.33954 5.33954 4.25 5.45 4.25H5.85C5.96046 4.25 6.05 4.33954 6.05 4.45L6.05 5.95H7.55C7.66046 5.95 7.75 6.03954 7.75 6.15V6.55C7.75 6.66046 7.66046 6.75 7.55 6.75H5.85H5.45C5.33954 6.75 5.25 6.66046 5.25 6.55V6.15L5.25 4.45Z" fill="#929292"/>
</svg>
