<svg width="100" height="100" viewBox="0 0 100 100" fill="none" xmlns="http://www.w3.org/2000/svg">
<g clip-path="url(#clip0_14758_37993)">
<g opacity="0.6" filter="url(#filter0_d_14758_37993)">
<path opacity="0.7" d="M60.8462 25.2037L72.941 68.6819C73.3363 70.1839 72.4667 71.6859 70.9648 72.0811L28.3561 83.3855C26.8541 83.7807 25.3521 82.9112 24.9569 81.4092L10.0952 25.2827C9.69995 23.7807 10.5695 22.2788 12.0715 21.8835L42.9015 13.7412L60.8462 25.2037Z" fill="white" stroke="#D8DCE5" stroke-width="0.8" stroke-miterlimit="10"/>
<path d="M42.9023 13.7412L46.0644 25.757C46.5387 27.4171 48.3569 28.4448 50.017 27.9705L60.847 25.2037" fill="#D6DCE8"/>
<path d="M89.7816 36.4565L82.5089 81.0415C82.2717 82.5435 80.7697 83.5711 79.2678 83.2549L35.9476 75.666C34.4456 75.4288 33.418 73.9269 33.6551 72.4249L43.6946 15.2707C43.9318 13.7688 45.4338 12.7411 46.9358 13.0573L78.3982 18.5909L89.7816 36.4565Z" fill="white" stroke="#D8DCE6" stroke-width="0.8" stroke-miterlimit="10"/>
<path d="M66.3813 41.1288L45.5908 37.4924C45.1164 37.4134 44.8002 36.9391 44.8793 36.4648C44.9583 35.9905 45.4327 35.6743 45.907 35.7533L66.6975 39.3897C67.1718 39.4687 67.488 39.943 67.4089 40.4173C67.3299 40.8126 66.8556 41.2079 66.3813 41.1288Z" fill="#D8DCE5"/>
<path d="M48 24.7412L50.2638 27.8385C50.564 28.2492 51.1245 28.3691 51.5664 28.1172L56.7194 25.1796C57.1584 24.9293 57.7151 25.0459 58.0168 25.4513L61.4141 30.0165C61.7205 30.4281 62.2886 30.5411 62.7291 30.278L72 24.7412" stroke="#D8DCE5" stroke-width="1.5" stroke-linecap="round"/>
<path d="M52.7078 43.8167L44.7236 42.3938C44.2493 42.3148 43.9331 41.8405 44.0121 41.3661C44.0912 40.8918 44.5655 40.5756 45.0398 40.6547L52.9449 42.0776C53.4192 42.1567 53.7354 42.631 53.6564 43.1053C53.5773 43.5796 53.103 43.8958 52.7078 43.8167Z" fill="#D8DCE5"/>
<path d="M78.3197 18.5908L76.1853 30.8438C75.8691 32.5829 77.1339 34.243 78.8731 34.5592L89.7822 36.4564" fill="#D8DCE5"/>
<path d="M64.6523 79.4072C72.3843 79.4072 78.6523 73.1392 78.6523 65.4072C78.6523 57.6752 72.3843 51.4072 64.6523 51.4072C56.9204 51.4072 50.6523 57.6752 50.6523 65.4072C50.6523 73.1392 56.9204 79.4072 64.6523 79.4072Z" fill="white"/>
<path d="M87.6572 88C87.1082 88 86.5593 87.7781 86.1201 87.2788L76.9529 78.0139L76.6235 78.2358C73.6592 80.4549 70.2009 81.62 66.6877 81.62C62.4609 81.62 58.2341 79.9001 55.1051 76.9043C51.8115 73.742 50 69.4702 50 64.81C50 55.5451 57.4656 48 66.6328 48C72.8907 48 78.3801 51.3287 81.3444 56.9875C84.2537 62.5908 83.8695 69.1373 80.3014 74.4078L80.0818 74.7406L89.304 84.061C90.2372 85.0042 90.0176 85.9473 89.8529 86.4466C89.4138 87.3343 88.5355 88 87.6572 88ZM66.6328 52.6047C59.9358 52.6047 54.5562 58.0971 54.5562 64.81C54.5562 72.466 60.7592 77.0707 66.7975 77.0707C70.4754 77.0707 73.8239 75.4064 76.1844 72.4105C79.0937 68.749 79.5878 63.8114 77.5567 59.5395C75.4707 55.2677 71.2988 52.6047 66.6328 52.6047Z" fill="#E2E6EF" stroke="#CBD1DD" stroke-width="0.8" stroke-miterlimit="10"/>
</g>
</g>
<defs>
<filter id="filter0_d_14758_37993" x="3.60156" y="8.59961" width="92.7969" height="87.8008" filterUnits="userSpaceOnUse" color-interpolation-filters="sRGB">
<feFlood flood-opacity="0" result="BackgroundImageFix"/>
<feColorMatrix in="SourceAlpha" type="matrix" values="0 0 0 0 0 0 0 0 0 0 0 0 0 0 0 0 0 0 127 0" result="hardAlpha"/>
<feOffset dy="2"/>
<feGaussianBlur stdDeviation="3"/>
<feColorMatrix type="matrix" values="0 0 0 0 0.397708 0 0 0 0 0.47749 0 0 0 0 0.575 0 0 0 0.05 0"/>
<feBlend mode="normal" in2="BackgroundImageFix" result="effect1_dropShadow_14758_37993"/>
<feBlend mode="normal" in="SourceGraphic" in2="effect1_dropShadow_14758_37993" result="shape"/>
</filter>
<clipPath id="clip0_14758_37993">
<rect width="100" height="100" fill="white"/>
</clipPath>
</defs>
</svg>
