<svg width="87" height="86" viewBox="0 0 87 86" fill="none" xmlns="http://www.w3.org/2000/svg">
<g clip-path="url(#clip0_1330_10265)">
<g opacity="0.6" filter="url(#filter0_d_1330_10265)">
<path d="M79.6199 58.7918C79.6199 65.9721 73.8132 71.7788 66.5705 71.7788C66.4456 71.7788 65.3842 71.7788 57.5795 71.7788C52.1475 71.7788 43.4687 71.7788 29.6076 71.7788H22.9892C14.3104 71.9661 7.37988 65.0355 7.37988 56.6689C7.37988 48.2399 14.3729 41.2469 23.1765 41.684C30.7314 18.0827 65.3217 21.3918 68.2563 45.8048C74.7498 46.6165 79.6199 52.111 79.6199 58.7918Z" fill="white" stroke="#D6DDE8" stroke-width="0.8" stroke-miterlimit="10"/>
<path d="M68.0688 45.8673C67.5693 45.8049 67.0698 45.8049 66.5703 45.8049C64.0104 45.8049 61.5753 46.5541 59.5149 47.8653" fill="white"/>
<path d="M68.0688 45.8673C67.5693 45.8049 67.0698 45.8049 66.5703 45.8049C64.0104 45.8049 61.5753 46.5541 59.5149 47.8653" stroke="#D6DCE8" stroke-miterlimit="10" stroke-linecap="round"/>
<path d="M23.1766 41.684C22.4274 43.9317 22.0527 46.3043 22.0527 48.8018C22.0527 49.8008 22.1152 50.7374 22.24 51.6739" fill="white"/>
<path d="M23.1766 41.684C22.4274 43.9317 22.0527 46.3043 22.0527 48.8018C22.0527 49.8008 22.1152 50.7374 22.24 51.6739" stroke="#D6DCE8" stroke-miterlimit="10" stroke-linecap="round" stroke-linejoin="round"/>
<path fill-rule="evenodd" clip-rule="evenodd" d="M18.9727 27.2063C19.1037 26.6908 19.6278 26.3791 20.1433 26.5101L23.7884 27.4367C24.3039 27.5677 24.6156 28.0918 24.4846 28.6073C24.3535 29.1228 23.8294 29.4345 23.3139 29.3035L19.6688 28.3769C19.1533 28.2459 18.8416 27.7218 18.9727 27.2063Z" fill="#CBD1DD"/>
<path fill-rule="evenodd" clip-rule="evenodd" d="M22.0692 16.955C22.5093 16.6563 23.1082 16.7709 23.4069 17.211L27.7644 23.6306C28.0631 24.0706 27.9485 24.6696 27.5084 24.9683C27.0683 25.267 26.4694 25.1524 26.1706 24.7123L21.8132 18.2928C21.5145 17.8527 21.6291 17.2538 22.0692 16.955Z" fill="#CBD1DD"/>
<path fill-rule="evenodd" clip-rule="evenodd" d="M30.1514 14.0598C30.6732 13.9565 31.1799 14.2958 31.2832 14.8176L32.7896 22.4286C32.8929 22.9504 32.5537 23.4571 32.0319 23.5604C31.5101 23.6637 31.0034 23.3244 30.9001 22.8026L29.3936 15.1916C29.2904 14.6698 29.6296 14.1631 30.1514 14.0598Z" fill="#CBD1DD"/>
<path d="M74.7973 32.8038C74.5589 33.8082 74.2013 34.774 73.7644 35.6625C72.6123 37.7486 70.904 39.4484 68.7588 40.4914C66.5341 41.6117 63.9121 41.998 61.2504 41.4958C55.053 40.221 51.0406 34.349 52.3516 28.2839C53.6626 22.2188 59.6613 18.317 65.8985 19.5919C68.1232 20.0555 70.0698 21.0985 71.6986 22.6051C74.4 25.3093 75.5521 29.1338 74.7973 32.8038Z" fill="#E2E6EF" stroke="#CBD1DD" stroke-miterlimit="10"/>
<path d="M63.8175 23.22C62.9995 23.22 62.3633 24.0203 62.4239 24.9598L62.8784 30.5967C62.9087 31.1534 63.3328 31.6057 63.8175 31.6057C64.3023 31.6057 64.7264 31.1534 64.7567 30.5967L65.2112 24.9598C65.2718 23.9855 64.6355 23.22 63.8175 23.22Z" fill="white"/>
<path d="M63.5634 34.4447C62.7869 34.4447 62.1658 35.0659 62.1658 35.8423C62.1658 36.6188 62.7869 37.2399 63.5634 37.2399C64.3398 37.2399 64.961 36.6188 64.961 35.8423C64.961 35.0659 64.3398 34.4447 63.5634 34.4447Z" fill="white"/>
</g>
</g>
<defs>
<filter id="filter0_d_1330_10265" x="0.97998" y="10.0413" width="85.0398" height="70.1412" filterUnits="userSpaceOnUse" color-interpolation-filters="sRGB">
<feFlood flood-opacity="0" result="BackgroundImageFix"/>
<feColorMatrix in="SourceAlpha" type="matrix" values="0 0 0 0 0 0 0 0 0 0 0 0 0 0 0 0 0 0 127 0" result="hardAlpha"/>
<feOffset dy="2"/>
<feGaussianBlur stdDeviation="3"/>
<feColorMatrix type="matrix" values="0 0 0 0 0.397708 0 0 0 0 0.47749 0 0 0 0 0.575 0 0 0 0.05 0"/>
<feBlend mode="normal" in2="BackgroundImageFix" result="effect1_dropShadow_1330_10265"/>
<feBlend mode="normal" in="SourceGraphic" in2="effect1_dropShadow_1330_10265" result="shape"/>
</filter>
<clipPath id="clip0_1330_10265">
<rect width="86" height="86" fill="white" transform="translate(0.5)"/>
</clipPath>
</defs>
</svg>
