<svg width="87" height="86" viewBox="0 0 87 86" fill="none" xmlns="http://www.w3.org/2000/svg">
<g clip-path="url(#clip0_909_10239)">
<g opacity="0.6" filter="url(#filter0_d_909_10239)">
<path opacity="0.7" d="M52.8277 21.6751L63.2293 59.0664C63.5692 60.3581 62.8214 61.6498 61.5297 61.9897L24.8862 71.7114C23.5945 72.0514 22.3028 71.3035 21.9629 70.0118L9.18188 21.7431C8.84196 20.4514 9.58979 19.1597 10.8815 18.8198L37.3953 11.8174L52.8277 21.6751Z" fill="white" stroke="#D8DCE5" stroke-width="0.8" stroke-miterlimit="10"/>
<path d="M37.3953 11.8174L40.1147 22.151C40.5226 23.5786 42.0862 24.4624 43.5139 24.0545L52.8277 21.6751" fill="#D6DCE8"/>
<path d="M77.713 31.3525L71.4585 69.6956C71.2545 70.9873 69.9628 71.8711 68.6711 71.5992L31.4158 65.0727C30.1241 64.8687 29.2403 63.577 29.4442 62.2853L38.0782 13.1328C38.2822 11.8411 39.5739 10.9573 40.8656 11.2292L67.9233 15.9881L77.713 31.3525Z" fill="white" stroke="#D8DCE6" stroke-width="0.8" stroke-miterlimit="10"/>
<path d="M57.5896 35.3706L39.7098 32.2434C39.3019 32.1754 39.03 31.7675 39.098 31.3596C39.1659 30.9517 39.5738 30.6797 39.9817 30.7477L57.8616 33.875C58.2695 33.943 58.5414 34.3509 58.4734 34.7588C58.4055 35.0987 57.9976 35.4386 57.5896 35.3706Z" fill="#D8DCE5"/>
<path d="M42.3852 20.8348C42.1407 20.5004 41.6715 20.4274 41.3371 20.6718C41.0027 20.9163 40.9297 21.3855 41.1742 21.7199L42.3852 20.8348ZM62.8042 21.9213C63.1598 21.7089 63.276 21.2484 63.0636 20.8928C62.8512 20.5372 62.3907 20.4211 62.0351 20.6334L62.8042 21.9213ZM53.2403 25.7126L53.842 25.2648L53.2403 25.7126ZM54.5553 25.9741L54.1707 25.3302L54.5553 25.9741ZM43.6528 23.8401L43.0473 24.2827L43.6528 23.8401ZM44.9554 24.1188L44.5839 23.4672L44.9554 24.1188ZM41.1742 21.7199L43.0473 24.2827L44.2583 23.3975L42.3852 20.8348L41.1742 21.7199ZM45.3268 24.7703L49.5421 22.3673L48.7992 21.0642L44.5839 23.4672L45.3268 24.7703ZM49.8665 22.4352L52.6386 26.1603L53.842 25.2648L51.0698 21.5397L49.8665 22.4352ZM54.9398 26.618L62.8042 21.9213L62.0351 20.6334L54.1707 25.3302L54.9398 26.618ZM52.6386 26.1603C53.1747 26.8807 54.1689 27.0784 54.9398 26.618L54.1707 25.3302C54.0606 25.396 53.9186 25.3677 53.842 25.2648L52.6386 26.1603ZM49.5421 22.3673C49.6518 22.3047 49.791 22.3339 49.8665 22.4352L51.0698 21.5397C50.5418 20.8302 49.5675 20.6262 48.7992 21.0642L49.5421 22.3673ZM43.0473 24.2827C43.5725 25.0013 44.5535 25.2112 45.3268 24.7703L44.5839 23.4672C44.4735 23.5302 44.3333 23.5002 44.2583 23.3975L43.0473 24.2827Z" fill="#D8DCE5"/>
<path d="M45.8283 37.6824L38.9619 36.4587C38.554 36.3907 38.2821 35.9828 38.3501 35.5749C38.4181 35.167 38.826 34.8951 39.2339 34.963L46.0323 36.1868C46.4402 36.2547 46.7121 36.6627 46.6442 37.0706C46.5762 37.4785 46.1683 37.7504 45.8283 37.6824Z" fill="#D8DCE5"/>
<path d="M67.8553 15.9883L66.0197 26.5258C65.7478 28.0215 66.8355 29.4491 68.3312 29.7211L77.713 31.3527" fill="#D8DCE5"/>
<path d="M56.1012 68.29C62.7507 68.29 68.1412 62.8995 68.1412 56.25C68.1412 49.6005 62.7507 44.21 56.1012 44.21C49.4517 44.21 44.0612 49.6005 44.0612 56.25C44.0612 62.8995 49.4517 68.29 56.1012 68.29Z" fill="white"/>
<path d="M75.8852 75.68C75.4131 75.68 74.941 75.4892 74.5633 75.0598L66.6795 67.092L66.3962 67.2828C63.8469 69.1913 60.8728 70.1932 57.8514 70.1932C54.2164 70.1932 50.5813 68.7141 47.8904 66.1377C45.0579 63.4182 43.5 59.7444 43.5 55.7366C43.5 47.7688 49.9204 41.28 57.8042 41.28C63.186 41.28 67.9069 44.1427 70.4562 49.0093C72.9582 53.8282 72.6278 59.4581 69.5592 63.9907L69.3704 64.277L77.3014 72.2925C78.104 73.1036 77.9151 73.9147 77.7735 74.3441C77.3958 75.1075 76.6405 75.68 75.8852 75.68ZM57.8042 45.2401C52.0448 45.2401 47.4183 49.9635 47.4183 55.7366C47.4183 62.3208 52.7529 66.2809 57.9459 66.2809C61.1088 66.2809 63.9886 64.8495 66.0185 62.2731C68.5206 59.1241 68.9455 54.8778 67.1988 51.204C65.4048 47.5302 61.817 45.2401 57.8042 45.2401Z" fill="#E2E6EF" stroke="#CBD1DD" stroke-width="0.8" stroke-miterlimit="10"/>
</g>
</g>
<defs>
<filter id="filter0_d_909_10239" x="2.69995" y="6.77979" width="81.6" height="77.3003" filterUnits="userSpaceOnUse" color-interpolation-filters="sRGB">
<feFlood flood-opacity="0" result="BackgroundImageFix"/>
<feColorMatrix in="SourceAlpha" type="matrix" values="0 0 0 0 0 0 0 0 0 0 0 0 0 0 0 0 0 0 127 0" result="hardAlpha"/>
<feOffset dy="2"/>
<feGaussianBlur stdDeviation="3"/>
<feColorMatrix type="matrix" values="0 0 0 0 0.397708 0 0 0 0 0.47749 0 0 0 0 0.575 0 0 0 0.05 0"/>
<feBlend mode="normal" in2="BackgroundImageFix" result="effect1_dropShadow_909_10239"/>
<feBlend mode="normal" in="SourceGraphic" in2="effect1_dropShadow_909_10239" result="shape"/>
</filter>
<clipPath id="clip0_909_10239">
<rect width="86" height="86" fill="white" transform="translate(0.5)"/>
</clipPath>
</defs>
</svg>
