<svg width="18" height="18" viewBox="0 0 18 18" fill="none" xmlns="http://www.w3.org/2000/svg">
<path d="M9 18C13.9706 18 18 13.9706 18 9C18 4.02944 13.9706 0 9 0C4.02944 0 0 4.02944 0 9C0 13.9706 4.02944 18 9 18Z" fill="#DBDBDB"/>
<path d="M13.3756 7.0257C13.5074 6.8939 13.5074 6.6802 13.3756 6.5484L12.5801 5.7529C12.4483 5.6211 12.2346 5.6211 12.1028 5.7529L8.07443 9.78126C7.98657 9.86913 7.8441 9.86913 7.75624 9.78126L5.89752 7.92255C5.76572 7.79074 5.55203 7.79074 5.42023 7.92254L4.62473 8.71804C4.49293 8.84984 4.49293 9.06354 4.62473 9.19534L7.67669 12.2473C7.80849 12.3791 8.02218 12.3791 8.15398 12.2473L13.3756 7.0257Z" fill="white"/>
</svg>
