<svg width="24" height="24" viewBox="0 0 24 24" fill="none" xmlns="http://www.w3.org/2000/svg">
<path fill-rule="evenodd" clip-rule="evenodd" d="M21.5 12C21.5 17.2467 17.2467 21.5 12 21.5C6.75329 21.5 2.5 17.2467 2.5 12C2.5 6.75329 6.75329 2.5 12 2.5C17.2467 2.5 21.5 6.75329 21.5 12Z" fill="#BDBDBD"/>
<path fill-rule="evenodd" clip-rule="evenodd" d="M13.9799 8.8887L12 10.8686L10.0201 8.8887C9.86386 8.73249 9.6106 8.73249 9.45439 8.8887L8.8887 9.45439C8.73249 9.6106 8.73249 9.86386 8.8887 10.0201L10.8686 12L8.8887 13.9799C8.73249 14.1361 8.73249 14.3893 8.8887 14.5456L9.45439 15.1112C9.6106 15.2675 9.86386 15.2675 10.0201 15.1112L12 13.1313L13.9799 15.1112C14.1361 15.2675 14.3893 15.2675 14.5456 15.1112L15.1112 14.5456C15.2675 14.3893 15.2675 14.1361 15.1112 13.9799L13.1313 12L15.1112 10.0201C15.2675 9.86386 15.2675 9.6106 15.1112 9.45439L14.5456 8.8887C14.3893 8.73249 14.1361 8.73249 13.9799 8.8887Z" fill="white"/>
</svg>
