<svg width="72" height="72" viewBox="0 0 72 72" fill="none" xmlns="http://www.w3.org/2000/svg">
<path fill-rule="evenodd" clip-rule="evenodd" d="M36 72C55.8823 72 72 55.8823 72 36C72 16.1177 55.8823 0 36 0C16.1177 0 0 16.1177 0 36C0 55.8823 16.1177 72 36 72ZM54.3047 25.9206C55.3654 24.6477 55.1934 22.756 53.9206 21.6953C52.6477 20.6346 50.756 20.8066 49.6953 22.0794L31.7984 43.5558L22.1213 33.8787C20.9497 32.7071 19.0503 32.7071 17.8787 33.8787C16.7071 35.0503 16.7071 36.9497 17.8787 38.1213L29.8787 50.1213C30.4747 50.7173 31.2939 51.0351 32.1359 50.9969C32.978 50.9587 33.7651 50.5681 34.3047 49.9206L54.3047 25.9206Z" fill="#0DB27C"/>
</svg>
