<svg width="16" height="14" viewBox="0 0 16 14" fill="none" xmlns="http://www.w3.org/2000/svg">
<path fill-rule="evenodd" clip-rule="evenodd" d="M13.1515 13.2829C13.3077 13.4392 13.561 13.4391 13.7172 13.2829L14.2829 12.7173C14.4391 12.561 14.4391 12.3078 14.2829 12.1516L12.7442 10.6129C13.8828 9.8166 14.5941 8.83106 15.0081 8.09057C15.3902 7.40737 15.3902 6.59277 15.0081 5.90956C14.1855 4.43843 12.19 2.00007 7.99999 2.00007C6.71037 2.00007 5.62865 2.23106 4.72502 2.59373L2.84854 0.717255C2.69233 0.561045 2.43906 0.561045 2.28285 0.717255L1.71717 1.28294C1.56096 1.43915 1.56096 1.69242 1.71717 1.84863L13.1515 13.2829ZM7.46473 5.33344L6.33792 4.20664C6.82424 3.91666 7.39267 3.75007 8.00001 3.75007C9.79493 3.75007 11.25 5.20514 11.25 7.00007C11.25 7.60741 11.0834 8.17583 10.7934 8.66215L9.66662 7.53534C9.72077 7.36663 9.75 7.18676 9.75 7.00007C9.75 6.03357 8.9665 5.25007 8 5.25007C7.81331 5.25007 7.63344 5.2793 7.46473 5.33344ZM2.24265 4.24279L4.75881 6.75896C4.75298 6.83857 4.75001 6.91897 4.75001 7.00007C4.75001 8.79499 6.20508 10.2501 8.00001 10.2501C8.0811 10.2501 8.16151 10.2471 8.24112 10.2413L9.82993 11.8301C9.2723 11.9389 8.66367 12.0001 7.99999 12.0001C3.80998 12.0001 1.81449 9.56171 0.991852 8.09057C0.609812 7.40737 0.609812 6.59277 0.991852 5.90957C1.26596 5.41937 1.6703 4.82178 2.24265 4.24279Z" fill="#6C6C6C"/>
</svg>
