<svg width="57" height="57" viewBox="0 0 57 57" fill="none" xmlns="http://www.w3.org/2000/svg">
<path d="M37.7255 24.8956C37.9988 24.6222 37.9988 24.179 37.7255 23.9056L36.0756 22.2557C35.8022 21.9823 35.359 21.9823 35.0856 22.2557L26.7305 30.6108C26.5482 30.793 26.2528 30.793 26.0705 30.6108L22.2154 26.7557C21.942 26.4823 21.4988 26.4823 21.2255 26.7557L19.5755 28.4056C19.3022 28.679 19.3022 29.1222 19.5755 29.3955L25.9055 35.7255C26.1789 35.9989 26.6221 35.9989 26.8955 35.7255L37.7255 24.8956Z" fill="#31BD65"/>
<path fill-rule="evenodd" clip-rule="evenodd" d="M50.9007 28.3956C50.9007 40.6379 40.9764 50.5622 28.7341 50.5622C16.4917 50.5622 6.56738 40.6379 6.56738 28.3956C6.56738 16.1532 16.4917 6.22888 28.7341 6.22888C40.9764 6.22888 50.9007 16.1532 50.9007 28.3956ZM47.1674 28.3956C47.1674 38.576 38.9145 46.8289 28.7341 46.8289C18.5536 46.8289 10.3007 38.576 10.3007 28.3956C10.3007 18.2151 18.5536 9.96222 28.7341 9.96222C38.9145 9.96222 47.1674 18.2151 47.1674 28.3956Z" fill="#31BD65"/>
</svg>
