<svg width="20" height="20" viewBox="0 0 20 20" fill="none" xmlns="http://www.w3.org/2000/svg">
<path fill-rule="evenodd" clip-rule="evenodd" d="M10 5.83333C6.66817 5.83333 5.00151 7.68351 4.26027 8.91808C3.85734 9.58917 3.85734 10.4108 4.26027 11.0819C5.00151 12.3165 6.66817 14.1667 10 14.1667C13.3318 14.1667 14.9985 12.3165 15.7397 11.0819C16.1427 10.4108 16.1427 9.58917 15.7397 8.91808C14.9985 7.68351 13.3318 5.83333 10 5.83333ZM12.7084 9.99999C12.7084 11.4958 11.4958 12.7083 10 12.7083C8.50425 12.7083 7.29168 11.4958 7.29168 9.99999C7.29168 8.50422 8.50425 7.29166 10 7.29166C11.4958 7.29166 12.7084 8.50422 12.7084 9.99999ZM10 11.4583C10.8054 11.4583 11.4583 10.8054 11.4583 9.99999C11.4583 9.19458 10.8054 8.54166 10 8.54166C9.1946 8.54166 8.54168 9.19458 8.54168 9.99999C8.54168 10.8054 9.1946 11.4583 10 11.4583Z" fill="#3D3D3D"/>
</svg>
