<svg width="16" height="16" viewBox="0 0 16 16" fill="none" xmlns="http://www.w3.org/2000/svg">
<path fill-rule="evenodd" clip-rule="evenodd" d="M8.00008 13.2667C10.9088 13.2667 13.2667 10.9087 13.2667 8.00002C13.2667 5.09132 10.9088 2.73336 8.00008 2.73335C5.09138 2.73335 2.73341 5.09132 2.73341 8.00002C2.73341 10.9087 5.09138 13.2667 8.00008 13.2667ZM8.00008 14.3334C11.4979 14.3334 14.3334 11.4978 14.3334 8.00002C14.3334 4.50222 11.4979 1.66669 8.00008 1.66669C4.50228 1.66669 1.66675 4.50222 1.66675 8.00002C1.66675 11.4978 4.50228 14.3334 8.00008 14.3334Z" fill="#F16514"/>
<path d="M7.62968 10.8109C7.73931 10.8841 7.86821 10.9232 8.00006 10.9232C8.17687 10.9232 8.34644 10.853 8.47146 10.7279C8.59649 10.6029 8.66673 10.4334 8.66673 10.2565C8.66673 10.1247 8.62763 9.9958 8.55437 9.88616C8.48112 9.77653 8.377 9.69108 8.25518 9.64062C8.13337 9.59016 7.99932 9.57696 7.87 9.60269C7.74068 9.62841 7.62189 9.6919 7.52866 9.78514C7.43542 9.87837 7.37193 9.99716 7.3462 10.1265C7.32048 10.2558 7.33368 10.3898 7.38414 10.5117C7.4346 10.6335 7.52005 10.7376 7.62968 10.8109Z" fill="#F16514"/>
<path d="M7.73342 8.7949C7.58615 8.7949 7.46676 8.67551 7.46676 8.52824L7.46676 5.2667C7.46676 5.11942 7.58615 5.00003 7.73342 5.00003L8.26676 5.00003C8.41403 5.00003 8.53342 5.11942 8.53342 5.2667L8.53342 8.52824C8.53342 8.67551 8.41403 8.7949 8.26676 8.7949L7.73342 8.7949Z" fill="#F16514"/>
</svg>
