<svg width="32" height="32" viewBox="0 0 32 32" fill="none" xmlns="http://www.w3.org/2000/svg">
<path d="M25.2937 17.4585L25.3045 17.4706L25.3157 17.4823L26.9537 19.1987C26.9804 19.2298 26.9953 19.266 26.999 19.302C27.003 19.3398 26.9949 19.3789 26.974 19.4143L26.9728 19.4163L24.5299 23.5677L24.5291 23.5691C24.5082 23.6047 24.4745 23.6361 24.43 23.6557C24.3853 23.6754 24.3342 23.6811 24.2848 23.671L24.2795 23.67L21.9874 23.2149C21.9866 23.2147 21.9858 23.2146 21.985 23.2144C21.4589 23.1082 20.9106 23.1941 20.4422 23.4582C19.9727 23.7228 19.6137 24.1498 19.4379 24.6623L19.4368 24.6654L18.693 26.8573C18.6929 26.8577 18.6928 26.8581 18.6927 26.8584C18.6798 26.895 18.6546 26.9299 18.6173 26.9562C18.5792 26.9829 18.5315 26.9985 18.4809 26.9984H18.4783H13.5926H13.5669L13.5414 26.9997C13.4886 27.0024 13.438 26.9879 13.3975 26.9608C13.3575 26.9341 13.3307 26.8976 13.3175 26.8594C13.3174 26.8592 13.3173 26.8589 13.3172 26.8587L12.573 24.6654L12.5719 24.6623C12.3961 24.1498 12.0371 23.7228 11.5676 23.4582C11.0993 23.1941 10.551 23.1082 10.0249 23.2144C10.0241 23.2145 10.0233 23.2147 10.0225 23.2149L7.7303 23.67L7.7303 23.67L7.72506 23.671C7.67567 23.6811 7.62456 23.6754 7.57986 23.6557C7.53537 23.6361 7.50163 23.6047 7.48076 23.5691L7.47996 23.5677L5.03707 19.4163L5.03243 19.4084L5.02765 19.4006C5.0061 19.3655 4.99739 19.3265 5.00067 19.2888C5.00389 19.2518 5.01877 19.2145 5.04619 19.1825L6.5927 17.46L6.59398 17.4585C6.95234 17.0578 7.15241 16.5395 7.15241 16C7.15241 15.4605 6.95234 14.9422 6.59399 14.5415L6.59269 14.54L5.04618 12.8175C5.01877 12.7855 5.00389 12.7482 5.00067 12.7112C4.99739 12.6735 5.0061 12.6345 5.02765 12.5994L5.03243 12.5916L5.03707 12.5837L7.47586 8.43922C7.49598 8.40714 7.52673 8.37881 7.56657 8.36003C7.60299 8.34285 7.64427 8.33503 7.68586 8.33798L10.0032 8.78617C10.5285 8.89151 11.0757 8.8054 11.5432 8.54184C12.0127 8.27717 12.3717 7.85019 12.5475 7.33769L12.5521 7.32423L12.5563 7.31065L13.2344 5.13394C13.2484 5.09816 13.2743 5.06437 13.312 5.03921C13.3525 5.01214 13.4031 4.99762 13.4559 5.00032L13.4814 5.00163H13.5071L18.3928 5.00163L18.3954 5.00163C18.446 5.0015 18.4937 5.01711 18.5317 5.04384C18.5692 5.07014 18.5944 5.10506 18.6072 5.14163C18.6073 5.14198 18.6074 5.14233 18.6075 5.14268L19.3513 7.33456L19.3524 7.33769C19.5282 7.85019 19.8872 8.27717 20.3567 8.54184C20.8251 8.80589 21.3734 8.89182 21.8996 8.78559C21.9004 8.78544 21.9011 8.78528 21.9019 8.78513L24.194 8.33004L24.1993 8.32897C24.2487 8.31889 24.2998 8.32458 24.3445 8.34428C24.389 8.36389 24.4227 8.39529 24.4436 8.43089L24.4444 8.43225L26.8872 12.5837L26.8885 12.5857C26.9094 12.6211 26.9175 12.6602 26.9135 12.698C26.9096 12.7358 26.8933 12.774 26.8639 12.8062L26.861 12.8094L25.2976 14.5371L25.2976 14.5371L25.2937 14.5415C24.9353 14.9422 24.7353 15.4605 24.7353 16C24.7353 16.5395 24.9353 17.0578 25.2937 17.4585Z" stroke="#6C6C6C" stroke-width="2"/>
<circle cx="16" cy="16" r="3.33333" stroke="#6C6C6C" stroke-width="2"/>
</svg>
