<svg width="32" height="32" viewBox="0 0 32 32" fill="none" xmlns="http://www.w3.org/2000/svg">
<path d="M25.9124 5.8613C22.0911 5.35178 13.2254 7.08414 8.33404 18.0898" stroke="#05C28C" stroke-width="2" stroke-linecap="round"/>
<path d="M25.9126 5.86066C26.4221 9.68205 24.6898 18.5477 13.6842 23.4391" stroke="#05C28C" stroke-width="2" stroke-linecap="round"/>
<path d="M24.3318 13.6572L18.2175 7.54297" stroke="#05C28C" stroke-width="2" stroke-linecap="round"/>
<path d="M8.33398 18.0892L13.6839 23.4392" stroke="#05C28C" stroke-width="2" stroke-linecap="round"/>
<path d="M15.8747 8.2561C14.3967 6.77811 10.9575 5.63169 9.53096 7.05819C8.49816 8.09099 7.30485 9.28429 6.72485 9.8643C6.52959 10.0596 6.53007 10.3757 6.72533 10.5709L10.1426 13.9882" stroke="#05C28C" stroke-width="2" stroke-linecap="round"/>
<path d="M23.5677 15.9487C25.0457 17.4267 26.1922 20.866 24.7657 22.2925C23.7329 23.3253 22.5396 24.5186 21.9596 25.0986C21.7643 25.2938 21.4482 25.2934 21.2529 25.0981L17.8357 21.6808" stroke="#05C28C" stroke-width="2" stroke-linecap="round"/>
<circle cx="17.5054" cy="14.269" r="1.62128" transform="rotate(45 17.5054 14.269)" fill="#05C28C"/>
<path d="M4.89505 26.8793C4.76767 23.9495 5.73552 19.3125 9.09835 22.6753C12.4612 26.0381 7.57003 26.7519 4.89505 26.8793Z" stroke="#05C28C" stroke-width="1.5" stroke-linecap="round"/>
</svg>
