<svg width="12" height="12" viewBox="0 0 12 12" fill="none" xmlns="http://www.w3.org/2000/svg">
<path d="M10.8387 9.87097V5.22581C10.8387 4.90513 11.0987 4.64516 11.4193 4.64516C11.74 4.64516 12 4.90513 12 5.22581V9.87097C12 11.0468 11.0468 12 9.87096 12H2.12903C0.953199 12 0 11.0468 0 9.87097V2.12903C0 0.9532 0.953199 9.30631e-08 2.12903 9.30631e-08H5.99999C6.32068 9.30631e-08 6.58064 0.259964 6.58064 0.580645C6.58064 0.901327 6.32068 1.16129 5.99999 1.16129H2.12903C1.59456 1.16129 1.16129 1.59456 1.16129 2.12903V9.87097C1.16129 10.4054 1.59456 10.8387 2.12903 10.8387H9.87096C10.4054 10.8387 10.8387 10.4054 10.8387 9.87097Z" fill="black"/>
<path d="M2.12903 10.8387L6.77419 10.8387C7.09487 10.8387 7.35484 11.0987 7.35484 11.4193C7.35484 11.74 7.09487 12 6.77419 12L2.12903 12C0.953199 12 0 11.0468 0 9.87097V2.12903C0 0.9532 0.953199 9.30631e-08 2.12903 9.30631e-08L9.87097 0C11.0468 5.13973e-08 12 0.953199 12 2.12903V5.99999C12 6.32068 11.74 6.58064 11.4194 6.58064C11.0987 6.58064 10.8387 6.32068 10.8387 5.99999V2.12903C10.8387 1.59456 10.4054 1.16129 9.87097 1.16129L2.12903 1.16129C1.59456 1.16129 1.16129 1.59456 1.16129 2.12903V9.87097C1.16129 10.4054 1.59456 10.8387 2.12903 10.8387Z" fill="black"/>
<path d="M6.5 3C6.5 2.72386 6.27614 2.5 6 2.5C5.72386 2.5 5.5 2.72386 5.5 3V5.5H3C2.72386 5.5 2.5 5.72386 2.5 6C2.5 6.27614 2.72386 6.5 3 6.5H5.5V9C5.5 9.27614 5.72386 9.5 6 9.5C6.27614 9.5 6.5 9.27614 6.5 9V6.5H9C9.27614 6.5 9.5 6.27614 9.5 6C9.5 5.72386 9.27614 5.5 9 5.5H6.5V3Z" fill="black"/>
</svg>
